<svg width="46" height="46" viewBox="0 0 46 46" fill="none" xmlns="http://www.w3.org/2000/svg">
<g id="dumbbell 1">
<g id="Group">
<path id="Vector" d="M3.94504 24.9595H1.12305C0.875078 24.9595 0.673828 24.7583 0.673828 24.5103V21.4897C0.673828 21.2418 0.875078 21.0405 1.12305 21.0405H3.94504" stroke="#CC965A" stroke-width="1.3" stroke-miterlimit="10" stroke-linecap="round" stroke-linejoin="round"/>
<path id="Vector_2" d="M32.1675 21.0405H13.834" stroke="#CC965A" stroke-width="1.3" stroke-miterlimit="10" stroke-linecap="round" stroke-linejoin="round"/>
<path id="Vector_3" d="M32.1675 24.9595H13.834" stroke="#CC965A" stroke-width="1.3" stroke-miterlimit="10" stroke-linecap="round" stroke-linejoin="round"/>
<path id="Vector_4" d="M42.0547 21.0405H44.8767C45.1246 21.0405 45.3259 21.2418 45.3259 21.4897V24.5103C45.3259 24.7583 45.1246 24.9595 44.8767 24.9595H42.0547" stroke="#CC965A" stroke-width="1.3" stroke-miterlimit="10" stroke-linecap="round" stroke-linejoin="round"/>
<path id="Vector_5" d="M8.88923 16.9241C8.88923 15.9382 8.08998 15.1389 7.10404 15.1389H5.73051C4.74456 15.1389 3.94531 15.9382 3.94531 16.9241V29.0757C3.94531 30.0617 4.74456 30.8609 5.73051 30.8609H7.10404C8.08998 30.8609 8.88923 30.0617 8.88923 29.0757" stroke="#CC965A" stroke-width="1.3" stroke-miterlimit="10" stroke-linecap="round" stroke-linejoin="round"/>
<path id="Vector_6" d="M13.8326 27.5591V13.1297C13.8326 12.1437 13.0333 11.3445 12.0474 11.3445H10.6739C9.68792 11.3445 8.88867 12.1437 8.88867 13.1297V32.8704C8.88867 33.8564 9.68792 34.6556 10.6739 34.6556H12.0474C13.0333 34.6556 13.8326 33.8564 13.8326 32.8704V30.7037" stroke="#CC965A" stroke-width="1.3" stroke-miterlimit="10" stroke-linecap="round" stroke-linejoin="round"/>
<path id="Vector_7" d="M37.1113 16.9241C37.1113 15.9382 37.9106 15.1389 38.8965 15.1389H40.2701C41.256 15.1389 42.0552 15.9382 42.0552 16.9241V29.0757C42.0552 30.0617 41.256 30.8609 40.2701 30.8609H38.8965C37.9106 30.8609 37.1113 30.0617 37.1113 29.0757" stroke="#CC965A" stroke-width="1.3" stroke-miterlimit="10" stroke-linecap="round" stroke-linejoin="round"/>
<path id="Vector_8" d="M32.168 15.396V13.1297C32.168 12.1437 32.9672 11.3445 33.9532 11.3445H35.3267C36.3126 11.3445 37.1119 12.1437 37.1119 13.1297V32.8704C37.1119 33.8564 36.3126 34.6556 35.3267 34.6556H33.9532C32.9672 34.6556 32.168 33.8564 32.168 32.8704V18.5405" stroke="#CC965A" stroke-width="1.3" stroke-miterlimit="10" stroke-linecap="round" stroke-linejoin="round"/>
<path id="Vector_9" d="M29.0469 24.9596V21.0404" stroke="#CC965A" stroke-width="1.3" stroke-miterlimit="10" stroke-linecap="round" stroke-linejoin="round"/>
<path id="Vector_10" d="M16.9531 21.0404V24.9596" stroke="#CC965A" stroke-width="1.3" stroke-miterlimit="10" stroke-linecap="round" stroke-linejoin="round"/>
</g>
</g>
</svg>
