<svg width="49" height="49" viewBox="0 0 49 49" fill="none" xmlns="http://www.w3.org/2000/svg">
<g id="girl 1">
<g id="Layer_1">
<path id="Vector" d="M44.1766 36.6735L40.8078 33.5344V18.1453H42.3391C42.7984 18.1453 43.1047 17.8391 43.1047 17.3797C43.1047 16.9203 42.7984 16.6141 42.3391 16.6141H40.8078V11.7906C40.8078 11.3313 40.5016 11.025 40.0422 11.025H8.95781C8.49844 11.025 8.19219 11.3313 8.19219 11.7906V16.6141H6.66094C6.20156 16.6141 5.89531 16.9203 5.89531 17.3797C5.89531 17.8391 6.20156 18.1453 6.66094 18.1453H8.19219V33.611L4.82344 36.75C4.51719 37.0563 4.51719 37.5156 4.82344 37.8219C4.97656 37.975 5.20625 38.0516 5.35937 38.0516C5.5125 38.0516 5.74219 37.975 5.89531 37.8219L13.0922 31.0844C13.3984 30.7781 13.3984 30.3188 13.0922 30.0125C12.7859 29.7063 12.3266 29.7063 12.0203 30.0125L9.72344 32.1563V18.1453H39.2766V32.1563L36.9797 30.0125C36.6734 29.7063 36.2141 29.7063 35.9078 30.0125C35.6016 30.3188 35.6016 30.7781 35.9078 31.0844L43.1047 37.8219C43.2578 37.975 43.4109 38.0516 43.6406 38.0516C43.8703 38.0516 44.0234 37.975 44.1766 37.8219C44.4828 37.4391 44.4828 36.9797 44.1766 36.6735ZM9.72344 16.6141V12.5563H39.2766V16.6141H9.72344Z" fill="#CC965A"/>
</g>
</g>
</svg>
