<svg width="46" height="46" viewBox="0 0 46 46" fill="none" xmlns="http://www.w3.org/2000/svg">
<g id="horizontal-bar 1" clip-path="url(#clip0_16096_1012)">
<g id="Group">
<path id="Vector" d="M9.67145 3.75916C10.0488 3.75916 10.3546 3.45328 10.3546 3.07599V1.36634H12.2164V3.07599C12.2164 3.45328 12.5222 3.75916 12.8996 3.75916C13.2769 3.75916 13.5827 3.45328 13.5827 3.07599V0.683168C13.5827 0.305877 13.2769 0 12.8996 0H9.67145C9.29407 0 8.98828 0.305877 8.98828 0.683168V3.07599C8.98828 3.45328 9.29416 3.75916 9.67145 3.75916Z" fill="#CC965A"/>
<path id="Vector_2" d="M9.67145 32.6345C10.0488 32.6345 10.3546 32.3286 10.3546 31.9513V9.45246C10.3546 9.07516 10.0488 8.76929 9.67145 8.76929C9.29407 8.76929 8.98828 9.07516 8.98828 9.45246V31.9512C8.98828 32.3286 9.29416 32.6345 9.67145 32.6345Z" fill="#CC965A"/>
<path id="Vector_3" d="M33.0992 3.75916C33.4766 3.75916 33.7824 3.45328 33.7824 3.07599V1.36634H35.6441V3.07599C35.6441 3.45328 35.9499 3.75916 36.3273 3.75916C36.7047 3.75916 37.0105 3.45328 37.0105 3.07599V0.683168C37.0105 0.305877 36.7047 0 36.3273 0H33.0992C32.7218 0 32.416 0.305877 32.416 0.683168V3.07599C32.416 3.45328 32.7219 3.75916 33.0992 3.75916Z" fill="#CC965A"/>
<path id="Vector_4" d="M36.3286 8.76929C35.9512 8.76929 35.6454 9.07516 35.6454 9.45246V44.6337H33.7836V9.45246C33.7836 9.07516 33.4779 8.76929 33.1005 8.76929C32.7231 8.76929 32.4173 9.07516 32.4173 9.45246V13.1953H13.5827V9.45246C13.5827 9.07516 13.2769 8.76929 12.8996 8.76929C12.5222 8.76929 12.2164 9.07516 12.2164 9.45246V44.6337H10.3546V34.2286C10.3546 33.8513 10.0488 33.5454 9.67145 33.5454C9.29407 33.5454 8.98828 33.8513 8.98828 34.2286V45.3169C8.98828 45.6942 9.29407 46 9.67145 46H12.8996C13.2769 46 13.5827 45.6942 13.5827 45.3169V44.2362H32.4173V45.3169C32.4173 45.6942 32.7231 46 33.1005 46H36.3286C36.706 46 37.0118 45.6942 37.0118 45.3169V9.45246C37.0118 9.07516 36.7059 8.76929 36.3286 8.76929ZM13.5827 23.5423H32.4173V24.9086H13.5827V23.5423ZM32.4172 26.275V31.1566H13.5827V26.275H32.4172ZM13.5827 32.5229H32.4173V33.8892H13.5827V32.5229ZM32.4172 22.176H13.5827V17.2944H32.4173V22.176H32.4172ZM13.5827 35.2555H32.4173V40.1371H13.5827V35.2555ZM32.4172 14.5616V15.928H13.5827V14.5616H32.4172ZM13.5827 42.8699V41.5035H32.4173V42.8699H13.5827Z" fill="#CC965A"/>
<path id="Vector_5" d="M45.888 9.27199C45.8602 9.09291 45.7625 8.93223 45.6164 8.82511L39.8598 4.6105C39.8532 4.60568 39.8462 4.60167 39.8397 4.59693C39.8334 4.59265 39.8273 4.58828 39.8208 4.58427C39.4754 4.34316 39.0718 4.21472 38.6491 4.21472H7.35036C6.9277 4.21472 6.52409 4.34307 6.17849 4.58436C6.17221 4.58828 6.16629 4.59256 6.16019 4.59675C6.15345 4.60158 6.14625 4.60568 6.1396 4.61059L0.383041 8.8252C0.236934 8.93223 0.139105 9.09291 0.111505 9.27199C0.0839045 9.45107 0.128447 9.63379 0.235386 9.77999L1.84976 11.9849C1.98366 12.1676 2.19116 12.2645 2.40158 12.2645C2.54158 12.2645 2.68295 12.2216 2.80465 12.1326L8.02041 8.31373H28.5564C28.9338 8.31373 29.2396 8.00785 29.2396 7.63056C29.2396 7.25327 28.9338 6.94739 28.5564 6.94739H8.21625L7.52233 5.58106H38.4771L37.7831 6.94739H30.834C30.4566 6.94739 30.1508 7.25327 30.1508 7.63056C30.1508 8.00785 30.4566 8.31373 30.834 8.31373H37.979L43.1949 12.1325C43.4993 12.3553 43.9266 12.2893 44.1497 11.9848L45.7641 9.7799C45.871 9.63379 45.9157 9.45107 45.888 9.27199ZM2.54868 10.6265L1.74154 9.52403L6.29819 6.18789L6.92515 7.42233L2.54868 10.6265ZM43.4508 10.6265L39.0743 7.42224L39.7013 6.1878L44.258 9.52394L43.4508 10.6265Z" fill="#CC965A"/>
</g>
</g>
<defs>
<clipPath id="clip0_16096_1012">
<rect width="46" height="46" fill="white"/>
</clipPath>
</defs>
</svg>
