<svg width="46" height="46" viewBox="0 0 46 46" fill="none" xmlns="http://www.w3.org/2000/svg">
<g id="cable-row-machine 1">
<g id="Group">
<path id="Vector" d="M19.3042 35.6013L15.3906 39.5158" stroke="#CC965A" stroke-width="1.3" stroke-miterlimit="10" stroke-linecap="round" stroke-linejoin="round"/>
<path id="Vector_2" d="M21.8641 39.5158L18.1581 33.8467C17.8436 33.3669 17.9784 32.7227 18.4591 32.4092L19.2182 31.9123C19.6989 31.5988 20.3422 31.7336 20.6557 32.2133L25.43 39.5158" stroke="#CC965A" stroke-width="1.3" stroke-miterlimit="10" stroke-linecap="round" stroke-linejoin="round"/>
<path id="Vector_3" d="M3.24805 25.548H9.72407" stroke="#CC965A" stroke-width="1.3" stroke-miterlimit="10" stroke-linecap="round" stroke-linejoin="round"/>
<path id="Vector_4" d="M29.6662 23.299L29.6663 23.9514C29.6663 24.3 29.3842 24.583 29.0356 24.583H27.7437C25.1104 24.583 22.9766 22.4484 22.9766 19.8159C22.9766 17.1826 25.1104 15.0488 27.7437 15.0488H29.0356C29.3842 15.0488 29.6663 15.3309 29.6663 15.6795L29.6662 16.3326" stroke="#CC965A" stroke-width="1.3" stroke-miterlimit="10" stroke-linecap="round" stroke-linejoin="round"/>
<path id="Vector_5" d="M28.2461 17.753V21.8782C28.2461 22.6628 28.8821 23.2989 29.6666 23.2989C30.4511 23.2989 31.087 22.6628 31.087 21.8782V17.753C31.087 16.9685 30.4511 16.3326 29.6666 16.3326C28.8821 16.3326 28.2461 16.9685 28.2461 17.753Z" stroke="#CC965A" stroke-width="1.3" stroke-miterlimit="10" stroke-linecap="round" stroke-linejoin="round"/>
<path id="Vector_6" d="M22.9773 19.8159L19.1445 19.8158" stroke="#CC965A" stroke-width="1.3" stroke-miterlimit="10" stroke-linecap="round" stroke-linejoin="round"/>
<path id="Vector_7" d="M15.3362 21.1663H12.2969" stroke="#CC965A" stroke-width="1.3" stroke-miterlimit="10" stroke-linecap="round" stroke-linejoin="round"/>
<path id="Vector_8" d="M15.3362 18.4647H12.2969" stroke="#CC965A" stroke-width="1.3" stroke-miterlimit="10" stroke-linecap="round" stroke-linejoin="round"/>
<path id="Vector_9" d="M16.3281 17.78V6.48401" stroke="#CC965A" stroke-width="1.3" stroke-miterlimit="10" stroke-linecap="round" stroke-linejoin="round"/>
<path id="Vector_10" d="M17.0007 17.6723C15.817 17.6723 14.8574 18.6318 14.8574 19.8156C14.8574 20.9993 15.817 21.9589 17.0007 21.9589C18.1844 21.9589 19.144 20.9995 19.144 19.8157C19.144 18.632 18.1844 17.6723 17.0007 17.6723Z" stroke="#CC965A" stroke-width="1.3" stroke-miterlimit="10" stroke-linecap="round" stroke-linejoin="round"/>
<path id="Vector_11" d="M29.3348 42.0898H1.53992C1.06195 42.0898 0.673828 41.7017 0.673828 41.2237V6.48401" stroke="#CC965A" stroke-width="1.3" stroke-miterlimit="10" stroke-linecap="round" stroke-linejoin="round"/>
<path id="Vector_12" d="M12.2969 6.48401V39.1268C12.2969 39.3416 12.4712 39.5159 12.6859 39.5159H35.578C35.7397 39.5159 35.8978 39.4692 36.0344 39.3811L39.0576 37.4279" stroke="#CC965A" stroke-width="1.3" stroke-miterlimit="10" stroke-linecap="round" stroke-linejoin="round"/>
<path id="Vector_13" d="M9.72398 6.48401V39.1268C9.72398 39.3416 9.54969 39.5159 9.33496 39.5159H3.63707C3.42234 39.5159 3.24805 39.3416 3.24805 39.1268V6.48401" stroke="#CC965A" stroke-width="1.3" stroke-miterlimit="10" stroke-linecap="round" stroke-linejoin="round"/>
<path id="Vector_14" d="M32.4785 42.0899H36.2097C36.4541 42.0899 36.694 42.0189 36.8997 41.8859L40.4234 39.6102" stroke="#CC965A" stroke-width="1.3" stroke-miterlimit="10" stroke-linecap="round" stroke-linejoin="round"/>
<g id="Group_2">
<path id="Vector_15" d="M3.24805 29.2888H9.72407" stroke="#CC965A" stroke-width="1.3" stroke-miterlimit="10" stroke-linecap="round" stroke-linejoin="round"/>
<path id="Vector_16" d="M3.24805 32.5319H9.72407" stroke="#CC965A" stroke-width="1.3" stroke-miterlimit="10" stroke-linecap="round" stroke-linejoin="round"/>
<path id="Vector_17" d="M3.24805 35.7751H9.72407" stroke="#CC965A" stroke-width="1.3" stroke-miterlimit="10" stroke-linecap="round" stroke-linejoin="round"/>
</g>
<path id="Vector_18" d="M6.48633 25.5479V6.48401" stroke="#CC965A" stroke-width="1.3" stroke-miterlimit="10" stroke-linecap="round" stroke-linejoin="round"/>
<path id="Vector_19" d="M16.9894 3.91003H19.3118C20.0225 3.91003 20.5984 4.48683 20.5984 5.1975C20.5984 5.90816 20.0225 6.48406 19.3118 6.48406C13.4755 6.48406 6.53658 6.48406 0.673828 6.48406C0.673828 6.48406 0.674098 4.78601 0.674727 4.77523C0.703207 4.2951 1.08801 3.91003 1.57227 3.91003H13.8448" stroke="#CC965A" stroke-width="1.3" stroke-miterlimit="10" stroke-linecap="round" stroke-linejoin="round"/>
<path id="Vector_20" d="M39.902 32.7929L45.2513 41.3379C45.4561 41.665 45.2207 42.0899 44.8353 42.0899H42.2837C42.0933 42.0899 41.9163 41.9911 41.8148 41.8303L36.1582 32.7929" stroke="#CC965A" stroke-width="1.3" stroke-miterlimit="10" stroke-linecap="round" stroke-linejoin="round"/>
<path id="Vector_21" d="M41.7927 29.0685H33.1956C32.2699 29.0685 31.5195 29.8189 31.5195 30.7446V31.1173C31.5195 32.043 32.2699 32.7934 33.1956 32.7934H41.7927C42.7184 32.7934 43.4688 32.043 43.4688 31.1173V30.7446C43.4688 29.8189 42.7184 29.0685 41.7927 29.0685Z" stroke="#CC965A" stroke-width="1.3" stroke-miterlimit="10" stroke-linecap="round" stroke-linejoin="round"/>
</g>
</g>
</svg>
