<svg width="46" height="46" viewBox="0 0 46 46" fill="none" xmlns="http://www.w3.org/2000/svg">
<g id="swedish-wall 1" clip-path="url(#clip0_16096_952)">
<g id="g1929">
<g id="g1931">
<g id="Clip path group">
<mask id="mask0_16096_952" style="mask-type:luminance" maskUnits="userSpaceOnUse" x="0" y="0" width="46" height="46">
<g id="clipPath1937">
<path id="path1935" d="M0 3.8147e-06H46V46H0V3.8147e-06Z" fill="white"/>
</g>
</mask>
<g mask="url(#mask0_16096_952)">
<g id="g1933">
<g id="g1939">
<path id="path1941" d="M0.673828 7.90625V0.673832H3.36914V45.3262H0.673828V11.5" stroke="#CC965A" stroke-width="1.3" stroke-miterlimit="10" stroke-linecap="round" stroke-linejoin="round"/>
</g>
<path id="path1943" d="M24.3477 0.673832H21.6523V45.3262H24.3477V0.673832Z" stroke="#CC965A" stroke-width="1.3" stroke-miterlimit="10" stroke-linecap="round" stroke-linejoin="round"/>
<g id="g1945">
<path id="path1947" d="M45.3262 37.2852V0.673832H42.6309V45.3262H45.3262V40.7891" stroke="#CC965A" stroke-width="1.3" stroke-miterlimit="10" stroke-linecap="round" stroke-linejoin="round"/>
</g>
</g>
</g>
</g>
</g>
<g id="g1949">
<path id="path1951" d="M3.54688 4.44727H21.2979" stroke="#CC965A" stroke-width="1.3" stroke-miterlimit="10" stroke-linecap="round" stroke-linejoin="round"/>
</g>
<g id="g1953">
<path id="path1955" d="M3.54688 15.0488H21.2979" stroke="#CC965A" stroke-width="1.3" stroke-miterlimit="10" stroke-linecap="round" stroke-linejoin="round"/>
</g>
<g id="g1957">
<path id="path1959" d="M3.54688 20.3496H21.2979" stroke="#CC965A" stroke-width="1.3" stroke-miterlimit="10" stroke-linecap="round" stroke-linejoin="round"/>
</g>
<g id="g1961">
<path id="path1963" d="M3.54688 25.6504H21.2979" stroke="#CC965A" stroke-width="1.3" stroke-miterlimit="10" stroke-linecap="round" stroke-linejoin="round"/>
</g>
<g id="g1965">
<path id="path1967" d="M3.54688 30.9512H21.2979" stroke="#CC965A" stroke-width="1.3" stroke-miterlimit="10" stroke-linecap="round" stroke-linejoin="round"/>
</g>
<g id="g1969">
<path id="path1971" d="M3.54688 36.252H21.2979" stroke="#CC965A" stroke-width="1.3" stroke-miterlimit="10" stroke-linecap="round" stroke-linejoin="round"/>
</g>
<g id="g1973">
<path id="path1975" d="M3.54688 41.5527H21.2979" stroke="#CC965A" stroke-width="1.3" stroke-miterlimit="10" stroke-linecap="round" stroke-linejoin="round"/>
</g>
<g id="g1977">
<path id="path1979" d="M24.4336 4.44727H42.3174" stroke="#CC965A" stroke-width="1.3" stroke-miterlimit="10" stroke-linecap="round" stroke-linejoin="round"/>
</g>
<g id="g1981">
<path id="path1983" d="M24.4336 15.0488H42.3174" stroke="#CC965A" stroke-width="1.3" stroke-miterlimit="10" stroke-linecap="round" stroke-linejoin="round"/>
</g>
<g id="g1985">
<path id="path1987" d="M36.7461 20.3496H42.3165" stroke="#CC965A" stroke-width="1.3" stroke-miterlimit="10" stroke-linecap="round" stroke-linejoin="round"/>
</g>
<g id="g1989">
<path id="path1991" d="M24.4336 20.3496H30.2782" stroke="#CC965A" stroke-width="1.3" stroke-miterlimit="10" stroke-linecap="round" stroke-linejoin="round"/>
</g>
<g id="g1993">
<path id="path1995" d="M37.0156 25.6504H42.3165" stroke="#CC965A" stroke-width="1.3" stroke-miterlimit="10" stroke-linecap="round" stroke-linejoin="round"/>
</g>
<g id="g1997">
<path id="path1999" d="M24.4336 25.6504H30.0087" stroke="#CC965A" stroke-width="1.3" stroke-miterlimit="10" stroke-linecap="round" stroke-linejoin="round"/>
</g>
<g id="g2001">
<path id="path2003" d="M36.9258 30.9512H42.3165" stroke="#CC965A" stroke-width="1.3" stroke-miterlimit="10" stroke-linecap="round" stroke-linejoin="round"/>
</g>
<g id="g2005">
<path id="path2007" d="M24.4336 30.9512H30.0087" stroke="#CC965A" stroke-width="1.3" stroke-miterlimit="10" stroke-linecap="round" stroke-linejoin="round"/>
</g>
<g id="g2009">
<path id="path2011" d="M36.9258 36.252H42.3165" stroke="#CC965A" stroke-width="1.3" stroke-miterlimit="10" stroke-linecap="round" stroke-linejoin="round"/>
</g>
<g id="g2013">
<path id="path2015" d="M24.4336 36.252H30.0985" stroke="#CC965A" stroke-width="1.3" stroke-miterlimit="10" stroke-linecap="round" stroke-linejoin="round"/>
</g>
<g id="g2017">
<path id="path2019" d="M24.4336 41.5527H42.3174" stroke="#CC965A" stroke-width="1.3" stroke-miterlimit="10" stroke-linecap="round" stroke-linejoin="round"/>
</g>
<g id="g2021">
<g id="Clip path group_2">
<mask id="mask1_16096_952" style="mask-type:luminance" maskUnits="userSpaceOnUse" x="0" y="0" width="46" height="46">
<g id="clipPath2027">
<path id="path2025" d="M0 3.8147e-06H46V46H0V3.8147e-06Z" fill="white"/>
</g>
</mask>
<g mask="url(#mask1_16096_952)">
<g id="g2023">
<g id="g2029">
<path id="path2031" d="M34.0054 38.4082H32.9282C31.3897 38.4082 30.1426 37.1611 30.1426 35.6227V21.2484C30.1426 19.71 31.3897 18.4629 32.9282 18.4629H34.0054C35.5439 18.4629 36.791 19.71 36.791 21.2484V35.6227C36.791 37.1611 35.5439 38.4082 34.0054 38.4082Z" stroke="#CC965A" stroke-width="1.3" stroke-miterlimit="10" stroke-linecap="round" stroke-linejoin="round"/>
</g>
</g>
</g>
</g>
</g>
</g>
</g>
<defs>
<clipPath id="clip0_16096_952">
<rect width="46" height="46" fill="white"/>
</clipPath>
</defs>
</svg>
