<svg width="46" height="46" viewBox="0 0 46 46" fill="none" xmlns="http://www.w3.org/2000/svg">
<g id="push-up-bar 1">
<g id="Group">
<g id="Group_2">
<path id="Vector" d="M20.5936 26.131L20.9907 28.7913C21.1012 29.5307 20.528 30.1956 19.7805 30.1956H18.3754C17.5713 30.1956 16.9199 29.5442 16.9199 28.741V24.6603" stroke="#CC965A" stroke-width="1.3" stroke-miterlimit="10" stroke-linecap="round" stroke-linejoin="round"/>
<path id="Vector_2" d="M29.0806 24.6603V28.741C29.0806 29.5442 28.4292 30.1956 27.6251 30.1956H26.22C25.4725 30.1956 24.8993 29.5307 25.0098 28.7913L25.4069 26.131" stroke="#CC965A" stroke-width="1.3" stroke-miterlimit="10" stroke-linecap="round" stroke-linejoin="round"/>
</g>
<path id="Vector_3" d="M39.793 34.6815H40.4273C41.0993 34.6815 41.6438 35.2269 41.6438 35.898V38.9761" stroke="#CC965A" stroke-width="1.3" stroke-miterlimit="10" stroke-linecap="round" stroke-linejoin="round"/>
<path id="Vector_4" d="M29.3555 38.9761V35.898C29.3555 35.2269 29.8999 34.6815 30.572 34.6815H32.5" stroke="#CC965A" stroke-width="1.3" stroke-miterlimit="10" stroke-linecap="round" stroke-linejoin="round"/>
<path id="Vector_5" d="M13.498 34.6815H15.427C16.099 34.6815 16.6435 35.2269 16.6435 35.898V38.9761" stroke="#CC965A" stroke-width="1.3" stroke-miterlimit="10" stroke-linecap="round" stroke-linejoin="round"/>
<path id="Vector_6" d="M4.35547 38.9761V35.898C4.35547 35.2269 4.89992 34.6815 5.57195 34.6815H6.20715" stroke="#CC965A" stroke-width="1.3" stroke-miterlimit="10" stroke-linecap="round" stroke-linejoin="round"/>
<path id="Vector_7" d="M37.3105 21.8965C38.2083 19.7874 38.6967 17.4294 38.8547 15.2054" stroke="#CC965A" stroke-width="1.3" stroke-miterlimit="10" stroke-linecap="round" stroke-linejoin="round"/>
<path id="Vector_8" d="M7.14648 15.2054C7.30452 17.4294 7.79291 19.7874 8.69063 21.8965" stroke="#CC965A" stroke-width="1.3" stroke-miterlimit="10" stroke-linecap="round" stroke-linejoin="round"/>
<path id="Vector_9" d="M3.28362 28.3151C2.01413 25.2882 0.874907 22.0816 0.681743 19.946C0.615259 19.2165 0.971939 18.5148 1.58827 18.1213C4.26741 16.4089 9.56379 13.5573 14.2357 13.5573H16.0415" stroke="#CC965A" stroke-width="1.3" stroke-miterlimit="10" stroke-linecap="round" stroke-linejoin="round"/>
<path id="Vector_10" d="M29.9582 13.5573H31.7641C36.436 13.5573 41.7323 16.4089 44.4115 18.1213C45.0278 18.5148 45.3845 19.2165 45.318 19.946C44.9389 24.1301 40.9345 32.4173 39.4206 35.428C39.0729 36.1189 38.3649 36.5546 37.5914 36.5546H33.5106C32.9527 36.5546 32.4999 36.1018 32.4999 35.5439V34.3301C32.4999 33.1496 33.4576 32.1927 34.6373 32.1927H36.5222C36.5222 32.1927 37.1538 30.5944 38.116 28.1318C38.2194 27.8677 38.2814 27.5882 38.3002 27.3043C38.4035 25.6773 38.7252 23.8903 39.4206 22.4528C39.532 22.2237 39.3667 21.9559 39.1124 21.9595C37.196 21.9865 34.5277 21.6945 32.7172 20.8212C32.3363 20.6379 31.8817 20.7835 31.6679 21.1473C31.1441 22.0413 30.4047 23.0664 29.7254 23.9541C28.6725 25.3287 27.0382 26.1328 25.3069 26.1328H20.6926C18.9613 26.1328 17.327 25.3287 16.274 23.9541C15.5948 23.0664 14.8554 22.0413 14.3316 21.1473C14.1178 20.7835 13.6632 20.6379 13.2822 20.8212C11.4719 21.6945 8.80353 21.9865 6.88707 21.9595C6.63281 21.9559 6.4675 22.2237 6.57891 22.4528C7.2743 23.8903 7.59594 25.6773 7.69926 27.3043C7.71812 27.5882 7.78012 27.8677 7.88344 28.1318C8.84566 30.5944 9.47727 32.1927 9.47727 32.1927H11.3622C12.5418 32.1927 13.4987 33.1496 13.4987 34.3301V35.5439C13.4987 36.1018 13.0468 36.5546 12.4888 36.5546H8.40812C7.63457 36.5546 6.9266 36.1189 6.57891 35.428C6.09555 34.4667 5.35883 32.9681 4.56641 31.2368" stroke="#CC965A" stroke-width="1.3" stroke-miterlimit="10" stroke-linecap="round" stroke-linejoin="round"/>
<path id="Vector_11" d="M27.3005 5.41933C26.2545 4.66751 24.9714 4.22485 23.5848 4.22485H22.4146C18.8946 4.22485 16.041 7.07838 16.041 10.5985V14.0531C16.041 15.8299 16.8077 17.5202 18.1445 18.6906L19.4944 19.8725C20.2058 20.4953 21.1192 20.8387 22.0647 20.8387H23.9349C24.8804 20.8387 25.7937 20.4954 26.5051 19.8725L27.855 18.6906C29.1918 17.5202 29.9585 15.8299 29.9585 14.0531V10.5985C29.9585 9.61036 29.7337 8.67472 29.3323 7.83999" stroke="#CC965A" stroke-width="1.3" stroke-miterlimit="10" stroke-linecap="round" stroke-linejoin="round"/>
<path id="Vector_12" d="M27.3965 39.7359V41.0154C27.3965 41.435 27.7366 41.7751 28.1562 41.7751H30.5569C30.9765 41.7751 31.3166 41.435 31.3166 41.0154V39.7359C31.3166 39.3163 30.9765 38.9761 30.5569 38.9761H28.1561C27.7365 38.9761 27.3965 39.3163 27.3965 39.7359Z" stroke="#CC965A" stroke-width="1.3" stroke-miterlimit="10" stroke-linecap="round" stroke-linejoin="round"/>
<path id="Vector_13" d="M39.6836 39.7359V41.0154C39.6836 41.435 40.0237 41.7751 40.4433 41.7751H42.844C43.2636 41.7751 43.6037 41.435 43.6037 41.0154V39.7359C43.6037 39.3163 43.2636 38.9761 42.844 38.9761H40.4433C40.0237 38.9761 39.6836 39.3163 39.6836 39.7359Z" stroke="#CC965A" stroke-width="1.3" stroke-miterlimit="10" stroke-linecap="round" stroke-linejoin="round"/>
<path id="Vector_14" d="M18.6037 39.7359V41.0154C18.6037 41.435 18.2636 41.7751 17.844 41.7751H15.4433C15.0237 41.7751 14.6836 41.435 14.6836 41.0154V39.7359C14.6836 39.3163 15.0237 38.9761 15.4433 38.9761H17.844C18.2636 38.9761 18.6037 39.3163 18.6037 39.7359Z" stroke="#CC965A" stroke-width="1.3" stroke-miterlimit="10" stroke-linecap="round" stroke-linejoin="round"/>
<path id="Vector_15" d="M6.31468 39.7359V41.0154C6.31468 41.435 5.97454 41.7751 5.55497 41.7751H3.15425C2.73468 41.7751 2.39453 41.435 2.39453 41.0154V39.7359C2.39453 39.3163 2.73468 38.9761 3.15425 38.9761H5.55497C5.97454 38.9761 6.31468 39.3163 6.31468 39.7359Z" stroke="#CC965A" stroke-width="1.3" stroke-miterlimit="10" stroke-linecap="round" stroke-linejoin="round"/>
</g>
</g>
</svg>
