<svg width="46" height="46" viewBox="0 0 46 46" fill="none" xmlns="http://www.w3.org/2000/svg">
<g id="rack 1">
<g id="Group">
<path id="Vector" d="M12.3481 39.6009C12.297 39.6009 12.2459 39.5907 12.1948 39.5805C11.929 39.4987 11.7757 39.2125 11.8575 38.9365L21.2619 8.9138C21.3437 8.64803 21.6299 8.49469 21.9059 8.57647C22.1717 8.65825 22.325 8.94447 22.2432 9.22047L12.8388 39.2431C12.7672 39.4578 12.5628 39.6009 12.3481 39.6009ZM5.88769 39.6009C5.83658 39.6009 5.78547 39.5907 5.73436 39.5805C5.46858 39.4987 5.31525 39.2125 5.39703 38.9365L6.36814 35.8289C6.44992 35.5631 6.73614 35.4098 7.01214 35.4916C7.27792 35.5734 7.43125 35.8596 7.34947 36.1356L6.37836 39.2431C6.3068 39.4578 6.10236 39.6009 5.88769 39.6009ZM10.0481 26.3325C9.99703 26.3325 9.94592 26.3222 9.89481 26.312C9.62903 26.2302 9.47569 25.944 9.55747 25.668L10.8557 21.528C10.9375 21.2622 11.2237 21.1089 11.4997 21.1907C11.7655 21.2725 11.9188 21.5587 11.837 21.8347L10.5286 25.9645C10.457 26.1894 10.2628 26.3325 10.0481 26.3325ZM13.8712 14.1067C13.8201 14.1067 13.769 14.0965 13.7179 14.0862C13.4521 14.0045 13.2988 13.7182 13.3806 13.4422L14.8015 8.92403C14.8833 8.65825 15.1695 8.50491 15.4455 8.58669C15.7113 8.66847 15.8646 8.95469 15.7828 9.23069L14.3619 13.7489C14.2904 13.9636 14.0961 14.1067 13.8712 14.1067Z" fill="#CC965A"/>
</g>
<g id="Group_2">
<path id="Vector_2" d="M40.1738 39.6009C39.9592 39.6009 39.7547 39.4578 39.6832 39.2431L38.712 36.1356C38.6303 35.8698 38.7734 35.5836 39.0494 35.4916C39.3152 35.4098 39.6014 35.5529 39.6934 35.8289L40.6645 38.9365C40.7463 39.2023 40.6032 39.4885 40.3272 39.5805C40.276 39.5907 40.2249 39.6009 40.1738 39.6009ZM33.7032 39.6009C33.4885 39.6009 33.284 39.4578 33.2125 39.2431L23.808 9.22048C23.7263 8.9547 23.8694 8.66848 24.1454 8.57648C24.4112 8.4947 24.6974 8.63781 24.7894 8.91381L34.1938 38.9365C34.2756 39.2023 34.1325 39.4885 33.8565 39.5805C33.8054 39.5907 33.7543 39.6009 33.7032 39.6009ZM36.0134 26.3325C35.7987 26.3325 35.5943 26.1894 35.5227 25.9747L34.2245 21.8347C34.1427 21.5689 34.2858 21.2827 34.5618 21.1907C34.8276 21.1089 35.1138 21.252 35.2058 21.528L36.504 25.668C36.5858 25.9338 36.4427 26.22 36.1667 26.312C36.1156 26.3223 36.0645 26.3325 36.0134 26.3325ZM32.18 14.1067C31.9654 14.1067 31.7609 13.9636 31.6894 13.7489L30.2685 9.2307C30.1867 8.96492 30.3298 8.6787 30.6058 8.5867C30.8716 8.50492 31.1578 8.64803 31.2498 8.92403L32.6707 13.4423C32.7525 13.708 32.6094 13.9943 32.3334 14.0863C32.2823 14.0965 32.2312 14.1067 32.18 14.1067Z" fill="#CC965A"/>
</g>
<g id="Group_3">
<path id="Vector_3" d="M30.7999 9.57823H15.2519C13.5857 9.57823 12.2363 8.2289 12.2363 6.56267C12.2363 4.89645 13.5857 3.54712 15.2519 3.54712H30.7999C32.4661 3.54712 33.8154 4.89645 33.8154 6.56267C33.8154 8.2289 32.4661 9.57823 30.7999 9.57823ZM15.2519 4.56934C14.1479 4.56934 13.2586 5.4689 13.2586 6.56267C13.2586 7.65645 14.1581 8.55601 15.2519 8.55601H30.7999C31.9039 8.55601 32.7932 7.65645 32.7932 6.56267C32.7932 5.4689 31.8937 4.56934 30.7999 4.56934H15.2519Z" fill="#CC965A"/>
</g>
<g id="Group_4">
<path id="Vector_4" d="M13.6662 42.6062H4.088C2.97377 42.6062 2.07422 41.7067 2.07422 40.5925C2.07422 39.4782 2.97377 38.5787 4.088 38.5787H13.6662C14.7804 38.5787 15.68 39.4782 15.68 40.5925C15.68 41.7067 14.7804 42.6062 13.6662 42.6062ZM4.088 39.6009C3.54622 39.6009 3.09644 40.0507 3.09644 40.5925C3.09644 41.1342 3.536 41.584 4.088 41.584H13.6662C14.2182 41.584 14.6578 41.1342 14.6578 40.5925C14.6578 40.0507 14.208 39.6009 13.6662 39.6009H4.088Z" fill="#CC965A"/>
</g>
<g id="Group_5">
<path id="Vector_5" d="M41.9733 42.6062H32.3849C31.2706 42.6062 30.3711 41.7067 30.3711 40.5925C30.3711 39.4782 31.2706 38.5787 32.3849 38.5787H41.9733C43.0875 38.5787 43.9871 39.4782 43.9871 40.5925C43.9871 41.7067 43.0773 42.6062 41.9733 42.6062ZM32.3849 39.6009C31.8329 39.6009 31.3933 40.0507 31.3933 40.5925C31.3933 41.1342 31.8431 41.584 32.3849 41.584H41.9733C42.5253 41.584 42.9649 41.1342 42.9649 40.5925C42.9649 40.0507 42.5151 39.6009 41.9733 39.6009H32.3849Z" fill="#CC965A"/>
</g>
<g id="Group_6">
<path id="Vector_6" d="M31.2283 31.7093H14.8217C14.5354 31.7093 14.3105 31.4844 14.3105 31.1982C14.3105 30.912 14.5354 30.6871 14.8217 30.6871H31.2385C31.5248 30.6871 31.7497 30.912 31.7497 31.1982C31.7497 31.4844 31.5145 31.7093 31.2283 31.7093ZM30.0937 28.0804H15.9563C15.6701 28.0804 15.4452 27.8556 15.4452 27.5693C15.4452 27.2831 15.6701 27.0582 15.9563 27.0582H30.0937C30.3799 27.0582 30.6048 27.2831 30.6048 27.5693C30.6048 27.8556 30.3799 28.0804 30.0937 28.0804Z" fill="#CC965A"/>
</g>
<g id="Group_7">
<path id="Vector_7" d="M6.61368 36.5035C3.20968 36.5035 0.439453 33.7333 0.439453 30.3293C0.439453 26.9253 3.20968 24.1551 6.61368 24.1551C10.0177 24.1551 12.7879 26.9253 12.7879 30.3293C12.7879 33.7333 10.0177 36.5035 6.61368 36.5035ZM6.61368 25.1671C3.7719 25.1671 1.46168 27.4773 1.46168 30.3191C1.46168 33.1609 3.7719 35.4711 6.61368 35.4711C9.45545 35.4711 11.7657 33.1609 11.7657 30.3191C11.7657 27.4773 9.45545 25.1671 6.61368 25.1671Z" fill="#CC965A"/>
</g>
<g id="Group_8">
<path id="Vector_8" d="M6.61397 33.8866C4.65131 33.8866 3.05664 32.292 3.05664 30.3293C3.05664 28.3666 4.65131 26.772 6.61397 26.772C8.57664 26.772 10.1713 28.3666 10.1713 30.3293C10.1713 32.292 8.57664 33.8866 6.61397 33.8866ZM6.61397 27.784C5.21353 27.784 4.07886 28.9186 4.07886 30.3191C4.07886 31.7195 5.21353 32.8542 6.61397 32.8542C8.01442 32.8542 9.14908 31.7195 9.14908 30.3191C9.14908 28.9186 8.01442 27.784 6.61397 27.784Z" fill="#CC965A"/>
</g>
<g id="Group_9">
<path id="Vector_9" d="M39.4379 36.5035C36.0339 36.5035 33.2637 33.7333 33.2637 30.3293C33.2637 26.9253 36.0339 24.1551 39.4379 24.1551C42.8419 24.1551 45.6121 26.9253 45.6121 30.3293C45.6121 33.7333 42.8521 36.5035 39.4379 36.5035ZM39.4379 25.1671C36.5961 25.1671 34.2859 27.4773 34.2859 30.3191C34.2859 33.1609 36.5961 35.4711 39.4379 35.4711C42.2797 35.4711 44.5899 33.1609 44.5899 30.3191C44.5899 27.4773 42.2797 25.1671 39.4379 25.1671Z" fill="#CC965A"/>
</g>
<g id="Group_10">
<path id="Vector_10" d="M39.4382 33.8866C37.4755 33.8866 35.8809 32.292 35.8809 30.3293C35.8809 28.3666 37.4755 26.772 39.4382 26.772C41.4009 26.772 42.9955 28.3666 42.9955 30.3293C42.9955 32.292 41.4009 33.8866 39.4382 33.8866ZM39.4382 27.784C38.0377 27.784 36.9031 28.9186 36.9031 30.3191C36.9031 31.7195 38.0377 32.8542 39.4382 32.8542C40.8386 32.8542 41.9733 31.7195 41.9733 30.3191C41.9733 28.9186 40.8386 27.784 39.4382 27.784Z" fill="#CC965A"/>
</g>
<g id="Group_11">
<path id="Vector_11" d="M11.1519 22.1924C8.3817 22.1924 6.13281 19.9435 6.13281 17.1733C6.13281 14.4031 8.3817 12.1644 11.1519 12.1644C13.9221 12.1644 16.171 14.4133 16.171 17.1835C16.171 19.9538 13.9119 22.1924 11.1519 22.1924ZM11.1519 13.1867C8.95415 13.1867 7.15503 14.9755 7.15503 17.1835C7.15503 19.3915 8.94392 21.1804 11.1519 21.1804C13.3599 21.1804 15.1488 19.3915 15.1488 17.1835C15.1488 14.9755 13.3497 13.1867 11.1519 13.1867Z" fill="#CC965A"/>
</g>
<g id="Group_12">
<path id="Vector_12" d="M11.1525 20.1173C9.53742 20.1173 8.21875 18.7986 8.21875 17.1835C8.21875 15.5684 9.53742 14.2498 11.1525 14.2498C12.7676 14.2498 14.0863 15.5684 14.0863 17.1835C14.0863 18.7986 12.7676 20.1173 11.1525 20.1173ZM11.1525 15.2618C10.0996 15.2618 9.24097 16.1204 9.24097 17.1733C9.24097 18.2262 10.0996 19.0849 11.1525 19.0849C12.2054 19.0849 13.0641 18.2262 13.0641 17.1733C13.0641 16.1204 12.2054 15.2618 11.1525 15.2618Z" fill="#CC965A"/>
</g>
<g id="Group_13">
<path id="Vector_13" d="M34.8995 22.1924C32.1395 22.1924 29.8906 19.9435 29.8906 17.1733C29.8906 14.4031 32.1395 12.1542 34.8995 12.1542C37.6595 12.1542 39.9084 14.4031 39.9084 17.1733C39.9186 19.9435 37.6697 22.1924 34.8995 22.1924ZM34.8995 13.1866C32.7017 13.1866 30.9128 14.9755 30.9128 17.1835C30.9128 19.3915 32.7017 21.1804 34.8995 21.1804C37.0973 21.1804 38.8862 19.3915 38.8862 17.1835C38.8862 14.9755 37.1075 13.1866 34.8995 13.1866Z" fill="#CC965A"/>
</g>
<g id="Group_14">
<path id="Vector_14" d="M34.8986 20.1173C33.2835 20.1173 31.9648 18.7986 31.9648 17.1835C31.9648 15.5684 33.2835 14.2498 34.8986 14.2498C36.5137 14.2498 37.8324 15.5684 37.8324 17.1835C37.8324 18.7986 36.524 20.1173 34.8986 20.1173ZM34.8986 15.2618C33.8457 15.2618 32.9871 16.1204 32.9871 17.1733C32.9871 18.2262 33.8457 19.0849 34.8986 19.0849C35.9515 19.0849 36.8102 18.2262 36.8102 17.1733C36.8102 16.1204 35.9617 15.2618 34.8986 15.2618Z" fill="#CC965A"/>
</g>
</g>
</svg>
