<svg width="46" height="46" viewBox="0 0 46 46" fill="none" xmlns="http://www.w3.org/2000/svg">
<g id="bench-press 1">
<g id="Group">
<path id="Vector" d="M17.4238 34.8351H17.4229L12.8184 37.4172" stroke="#CC965A" stroke-width="1.3" stroke-miterlimit="10" stroke-linecap="round" stroke-linejoin="round"/>
<path id="Vector_2" d="M33.0157 35.3247H21.584" stroke="#CC965A" stroke-width="1.3" stroke-miterlimit="10" stroke-linecap="round" stroke-linejoin="round"/>
<path id="Vector_3" d="M36.1602 35.3249H40.3653C40.6785 35.3249 40.9325 35.5788 40.9325 35.8921V44.8769C40.9325 45.125 41.1336 45.3262 41.3817 45.3262H43.3989C43.6469 45.3262 43.8481 45.125 43.8481 44.8769V34.6057C43.8481 33.3927 42.8647 32.4092 41.6516 32.4092H39.5884" stroke="#CC965A" stroke-width="1.3" stroke-miterlimit="10" stroke-linecap="round" stroke-linejoin="round"/>
<path id="Vector_4" d="M12.8184 21.8913L18.0688 24.9226C18.8738 25.3871 19.1488 26.4158 18.6843 27.2208L17.9916 28.4202" stroke="#CC965A" stroke-width="1.3" stroke-miterlimit="10" stroke-linecap="round" stroke-linejoin="round"/>
<path id="Vector_5" d="M5.75195 21.354L6.44465 20.1537C6.91004 19.3487 7.93875 19.0729 8.74375 19.5383L9.39781 19.9156" stroke="#CC965A" stroke-width="1.3" stroke-miterlimit="10" stroke-linecap="round" stroke-linejoin="round"/>
<path id="Vector_6" d="M21.9947 32.4093C22.1708 32.7579 22.2696 33.1532 22.2696 33.5701C22.2696 34.9995 21.1116 36.1585 19.6813 36.1585C18.2518 36.1585 17.0938 34.9995 17.0938 33.5701C17.0938 32.8181 17.4145 32.1407 17.9266 31.6672" stroke="#CC965A" stroke-width="1.3" stroke-miterlimit="10" stroke-linecap="round" stroke-linejoin="round"/>
<path id="Vector_7" d="M21.9609 29.5649V28.1795C21.9609 27.2505 22.7147 26.4967 23.6437 26.4967H36.9235C37.8534 26.4967 38.6063 27.2505 38.6063 28.1795V29.5649" stroke="#CC965A" stroke-width="1.3" stroke-miterlimit="10" stroke-linecap="round" stroke-linejoin="round"/>
<path id="Vector_8" d="M3.84032 20.2499L9.39805 23.4582V26.7429L2.41809 22.7134C2.16383 22.566 2.07668 22.2408 2.22403 21.9856L3.11348 20.4448C3.25993 20.1906 3.58606 20.1025 3.84032 20.2499Z" stroke="#CC965A" stroke-width="1.3" stroke-miterlimit="10" stroke-linecap="round" stroke-linejoin="round"/>
<path id="Vector_9" d="M40.5891 30.5648V32.4093H19.9358C19.4623 32.4093 18.9969 32.2844 18.5863 32.0481L12.8184 28.7185V25.4338L19.6312 29.3672C19.8558 29.4966 20.1101 29.5649 20.3688 29.5649H39.59C40.1416 29.5649 40.5891 30.0123 40.5891 30.5648Z" stroke="#CC965A" stroke-width="1.3" stroke-miterlimit="10" stroke-linecap="round" stroke-linejoin="round"/>
<path id="Vector_10" d="M9.39844 14.0138C9.39844 19.8187 9.39844 36.3229 9.39844 42.1088" stroke="#CC965A" stroke-width="1.3" stroke-miterlimit="10" stroke-linecap="round" stroke-linejoin="round"/>
<path id="Vector_11" d="M12.8184 15.0668C12.8184 16.614 12.8184 40.6014 12.8184 42.1088" stroke="#CC965A" stroke-width="1.3" stroke-miterlimit="10" stroke-linecap="round" stroke-linejoin="round"/>
<path id="Vector_12" d="M18.5727 12.6244C19.6864 11.3567 20.3617 9.69429 20.3617 7.87414C20.3617 3.89748 17.138 0.673706 13.1613 0.673706C9.18453 0.673706 5.96094 3.89748 5.96094 7.87423C5.96094 11.851 9.18462 15.0747 13.1614 15.0747C14.1995 15.0747 15.1863 14.855 16.0778 14.4596" stroke="#CC965A" stroke-width="1.3" stroke-miterlimit="10" stroke-linecap="round" stroke-linejoin="round"/>
<path id="Vector_13" d="M9.39453 6.13179C10.0528 4.71046 11.4918 3.72461 13.1609 3.72461C14.83 3.72461 16.2689 4.71046 16.9261 6.13179" stroke="#CC965A" stroke-width="1.3" stroke-miterlimit="10" stroke-linecap="round" stroke-linejoin="round"/>
<path id="Vector_14" d="M16.9282 9.61609C16.2699 11.0374 14.831 12.0233 13.1619 12.0233C11.4918 12.0233 10.0528 11.0373 9.39453 9.61609" stroke="#CC965A" stroke-width="1.3" stroke-miterlimit="10" stroke-linecap="round" stroke-linejoin="round"/>
<path id="Vector_15" d="M13.1623 9.27478C13.9358 9.27478 14.5629 8.64772 14.5629 7.87421C14.5629 7.10069 13.9358 6.47363 13.1623 6.47363C12.3888 6.47363 11.7617 7.10069 11.7617 7.87421C11.7617 8.64772 12.3888 9.27478 13.1623 9.27478Z" stroke="#CC965A" stroke-width="1.3" stroke-miterlimit="10" stroke-linecap="round" stroke-linejoin="round"/>
<path id="Vector_16" d="M6.83719 42.1084H15.3801C15.8975 42.1084 16.3169 42.5278 16.3169 43.0452V44.3893C16.3169 44.9067 15.8975 45.3261 15.3801 45.3261H6.83719C6.31978 45.3261 5.90039 44.9067 5.90039 44.3893V43.0452C5.90039 42.5279 6.31987 42.1084 6.83719 42.1084Z" stroke="#CC965A" stroke-width="1.3" stroke-miterlimit="10" stroke-linecap="round" stroke-linejoin="round"/>
</g>
</g>
</svg>
