<svg width="60" height="60" viewBox="0 0 60 60" fill="none" xmlns="http://www.w3.org/2000/svg">
<g id="home 1" clip-path="url(#clip0_16062_3840)">
<g id="Page-1">
<g id="001---Home-Workout">
<path id="Shape" d="M8 54C7.44772 54 7 54.4477 7 55V58C7 59.1046 7.89543 60 9 60H51C52.1046 60 53 59.1046 53 58V55C53 54.4477 52.5523 54 52 54C51.4477 54 51 54.4477 51 55V58H9V55C9 54.4477 8.55228 54 8 54Z" fill="#CC965A"/>
<path id="Shape_2" d="M57 35H55V33C55 31.3431 53.6569 30 52 30H50C49.6586 30.0033 49.3203 30.0656 49 30.184V29C49 27.3431 47.6569 26 46 26H44C42.3431 26 41 27.3431 41 29V36H19V29C19 27.3431 17.6569 26 16 26H14C12.3431 26 11 27.3431 11 29V30.184C10.6797 30.0656 10.3414 30.0033 10 30H8C6.34315 30 5 31.3431 5 33V35H3C1.34315 35 0 36.3431 0 38V44C0 45.6569 1.34315 47 3 47H5V49C5 50.6569 6.34315 52 8 52H10C10.3414 51.9967 10.6797 51.9344 11 51.816V53C11 54.6569 12.3431 56 14 56H16C17.6569 56 19 54.6569 19 53V46H41V53C41 54.6569 42.3431 56 44 56H46C47.6569 56 49 54.6569 49 53V51.816C49.3203 51.9344 49.6586 51.9967 50 52H52C53.6569 52 55 50.6569 55 49V47H57C58.6569 47 60 45.6569 60 44V38C60 36.3431 58.6569 35 57 35ZM3 45C2.44772 45 2 44.5523 2 44V38C2 37.4477 2.44772 37 3 37H5V45H3ZM10 50H8C7.44772 50 7 49.5523 7 49V33C7 32.4477 7.44772 32 8 32H10C10.5523 32 11 32.4477 11 33V49C11 49.5523 10.5523 50 10 50ZM17 53C17 53.5523 16.5523 54 16 54H14C13.4477 54 13 53.5523 13 53V29C13 28.4477 13.4477 28 14 28H16C16.5523 28 17 28.4477 17 29V53ZM19 44V38H41V44H19ZM47 53C47 53.5523 46.5523 54 46 54H44C43.4477 54 43 53.5523 43 53V29C43 28.4477 43.4477 28 44 28H46C46.5523 28 47 28.4477 47 29V53ZM53 49C53 49.5523 52.5523 50 52 50H50C49.4477 50 49 49.5523 49 49V33C49 32.4477 49.4477 32 50 32H52C52.5523 32 53 32.4477 53 33V49ZM58 44C58 44.5523 57.5523 45 57 45H55V37H57C57.5523 37 58 37.4477 58 38V44Z" fill="#CC965A"/>
<path id="Shape_3" d="M5.50561 25.34L6.99961 24.26V27C6.99961 27.5523 7.44732 28 7.99961 28C8.55189 28 8.99961 27.5523 8.99961 27V22.813L29.9996 7.62399L50.9996 22.813V27C50.9996 27.5523 51.4473 28 51.9996 28C52.5519 28 52.9996 27.5523 52.9996 27V24.259L54.4916 25.338C55.0863 25.7713 55.8038 26.0032 56.5396 26C57.6262 26.0007 58.6515 25.4968 59.3146 24.636L59.3206 24.628C59.8676 23.9038 60.0995 22.9896 59.9638 22.0922C59.8281 21.1948 59.3363 20.3901 58.5996 19.86L52.9996 15.813V6.99999C52.9996 5.89542 52.1042 4.99999 50.9996 4.99999H45.9996C44.895 4.99999 43.9996 5.89542 43.9996 6.99999V9.29999L32.0456 0.659987C30.8253 -0.225408 29.1739 -0.225408 27.9536 0.659987L1.39961 19.86C0.661125 20.391 0.168469 21.1978 0.0334619 22.0972C-0.101545 22.9967 0.132548 23.9126 0.682607 24.637C1.83929 26.1308 3.97064 26.4415 5.50561 25.34ZM45.9996 6.99999H50.9996V14.366L45.9996 10.751V6.99999ZM2.57561 21.48L29.1256 2.27999C29.6468 1.90137 30.3525 1.90137 30.8736 2.27999L57.4226 21.48C57.725 21.6953 57.9274 22.0238 57.9839 22.3907C58.0404 22.7575 57.9462 23.1317 57.7226 23.428C57.2153 24.0402 56.3259 24.1671 55.6676 23.721L30.5856 5.57999C30.2359 5.32707 29.7633 5.32707 29.4136 5.57999L4.33261 23.72C3.68129 24.1875 2.77745 24.0602 2.28061 23.431C2.05531 23.1352 1.95952 22.7607 2.01511 22.393C2.0707 22.0254 2.27292 21.696 2.57561 21.48Z" fill="#CC965A"/>
</g>
</g>
</g>
<defs>
<clipPath id="clip0_16062_3840">
<rect width="60" height="60" fill="white"/>
</clipPath>
</defs>
</svg>
