<svg width="64" height="64" viewBox="0 0 64 64" fill="none" xmlns="http://www.w3.org/2000/svg">
<g id="premium-quality 1">
<g id="XMLID_754_">
<g id="XMLID_953_">
<path id="XMLID_739_" d="M32.0004 61C30.6004 61 29.2879 60.45 28.3004 59.4625L23.8254 54.9875C23.2129 54.375 22.4004 54.0375 21.5379 54.0375H15.2004C12.3129 54.0375 9.96289 51.6875 9.96289 48.8V42.4625C9.96289 41.6 9.62539 40.7875 9.01289 40.175L4.53789 35.7C2.50039 33.6625 2.50039 30.3375 4.53789 28.3L9.01289 23.825C9.62539 23.2125 9.96289 22.4 9.96289 21.5375V15.2C9.96289 12.3125 12.3129 9.9625 15.2004 9.9625H21.5379C22.4004 9.9625 23.2129 9.625 23.8254 9.0125L28.3004 4.5375C29.2879 3.55 30.6004 3 32.0004 3C33.4004 3 34.7129 3.55 35.7004 4.5375L40.1754 9.0125C40.7879 9.625 41.6004 9.9625 42.4629 9.9625H48.8004C51.6879 9.9625 54.0379 12.3125 54.0379 15.2V21.5375C54.0379 22.4 54.3754 23.2125 54.9879 23.825L59.4629 28.3C61.5004 30.3375 61.5004 33.6625 59.4629 35.7L54.9879 40.175C54.3754 40.7875 54.0379 41.6 54.0379 42.4625V48.8C54.0379 51.6875 51.6879 54.0375 48.8004 54.0375H42.4629C41.6004 54.0375 40.7879 54.375 40.1754 54.9875L35.7004 59.4625C34.7129 60.45 33.4004 61 32.0004 61ZM15.2004 11.9625C13.4129 11.9625 11.9629 13.4125 11.9629 15.2V21.5375C11.9629 22.9375 11.4129 24.25 10.4254 25.2375L5.95039 29.7125C4.68789 30.975 4.68789 33.025 5.95039 34.2875L10.4254 38.7625C11.4129 39.75 11.9629 41.0625 11.9629 42.4625V48.8C11.9629 50.5875 13.4129 52.0375 15.2004 52.0375H21.5379C22.9379 52.0375 24.2504 52.5875 25.2379 53.575L29.7129 58.05C30.3254 58.6625 31.1379 59 32.0004 59C32.8629 59 33.6754 58.6625 34.2879 58.05L38.7629 53.575C39.7504 52.5875 41.0629 52.0375 42.4629 52.0375H48.8004C50.5879 52.0375 52.0379 50.5875 52.0379 48.8V42.4625C52.0379 41.0625 52.5879 39.75 53.5754 38.7625L58.0504 34.2875C59.3129 33.025 59.3129 30.975 58.0504 29.7125L53.5754 25.2375C52.5879 24.25 52.0379 22.9375 52.0379 21.5375V15.2C52.0379 13.4125 50.5879 11.9625 48.8004 11.9625H42.4629C41.0629 11.9625 39.7504 11.4125 38.7629 10.425L34.2879 5.95C33.6754 5.3375 32.8629 5 32.0004 5C31.1379 5 30.3254 5.3375 29.7129 5.95L25.2379 10.425C24.2504 11.4125 22.9379 11.9625 21.5379 11.9625H15.2004Z" fill="#CC965A"/>
</g>
<g id="XMLID_963_">
<path id="XMLID_736_" d="M32.0008 50.2625C21.9258 50.2625 13.7383 42.0625 13.7383 32C13.7383 21.9375 21.9258 13.7375 32.0008 13.7375C42.0758 13.7375 50.2633 21.925 50.2633 32C50.2633 42.075 42.0758 50.2625 32.0008 50.2625ZM32.0008 15.7375C23.0258 15.7375 15.7383 23.0375 15.7383 32C15.7383 40.9625 23.0258 48.2625 32.0008 48.2625C40.9758 48.2625 48.2633 40.9625 48.2633 32C48.2633 23.0375 40.9758 15.7375 32.0008 15.7375Z" fill="#CC965A"/>
</g>
<g id="XMLID_292_">
<path id="XMLID_733_" d="M38.9994 42H24.9994C24.5494 42 24.1619 41.7 24.0369 41.275L20.0369 27.1875C19.9244 26.7875 20.0744 26.35 20.4119 26.1C20.7494 25.85 21.2119 25.8375 21.5494 26.075L26.6869 29.5L31.1369 22.375C31.3244 22.0875 31.6369 21.9 31.9869 21.9C32.3369 21.9 32.6494 22.075 32.8369 22.375L37.2869 29.5L42.4244 26.075C42.7744 25.8375 43.2244 25.85 43.5619 26.1C43.8994 26.35 44.0494 26.775 43.9369 27.1875L39.9369 41.275C39.8369 41.7 39.4494 42 38.9994 42ZM25.7494 40H38.2494L41.2994 29.25L37.5619 31.75C37.3369 31.9 37.0619 31.95 36.7994 31.9C36.5369 31.8375 36.2994 31.6875 36.1619 31.45L31.9994 24.8L27.8494 31.4375C27.7119 31.6625 27.4744 31.825 27.2119 31.8875C26.9494 31.95 26.6744 31.8875 26.4494 31.7375L22.7119 29.2375L25.7494 40Z" fill="#CC965A"/>
</g>
</g>
</g>
</svg>
