<svg width="60" height="60" viewBox="0 0 60 60" fill="none" xmlns="http://www.w3.org/2000/svg">
<g id="technical-support 1" clip-path="url(#clip0_16062_3868)">
<g id="g1104">
<g id="g1106">
<g id="Clip path group">
<mask id="mask0_16062_3868" style="mask-type:luminance" maskUnits="userSpaceOnUse" x="0" y="0" width="60" height="60">
<g id="clipPath1112">
<path id="path1110" d="M0 3.8147e-06H60V60H0V3.8147e-06Z" fill="white"/>
</g>
</mask>
<g mask="url(#mask0_16062_3868)">
<g id="g1108">
<g id="g1114">
<path id="path1116" d="M52.099 11.3296C50.6345 12.7941 48.2601 12.7941 46.7956 11.3296C45.3311 9.86512 45.3311 7.49078 46.7956 6.02629C48.2601 4.5618 50.6345 4.5618 52.099 6.02629C53.5634 7.49078 53.5634 9.86512 52.099 11.3296Z" stroke="#CC965A" stroke-width="2" stroke-miterlimit="10" stroke-linecap="round" stroke-linejoin="round"/>
</g>
<g id="g1118">
<path id="path1120" d="M13.2044 53.9737C11.7399 55.4382 9.3656 55.4382 7.9011 53.9737C6.43661 52.5092 6.43661 50.1349 7.9011 48.6704C9.3656 47.2059 11.7399 47.2059 13.2044 48.6704C14.6689 50.1349 14.6689 52.5092 13.2044 53.9737Z" stroke="#CC965A" stroke-width="2" stroke-miterlimit="10" stroke-linecap="round" stroke-linejoin="round"/>
</g>
<g id="g1122">
<path id="path1124" d="M24.3145 58.2676C26.1524 58.6352 28.0534 58.8281 29.9996 58.8281C45.9209 58.8281 58.8277 45.9213 58.8277 30C58.8277 23.0497 56.3677 16.6743 52.2714 11.6958" stroke="#CC965A" stroke-width="2" stroke-miterlimit="10" stroke-linecap="round" stroke-linejoin="round"/>
</g>
<g id="g1126">
<path id="path1128" d="M35.7398 1.74341C33.8849 1.36865 31.9655 1.17189 30 1.17189C14.0787 1.17189 1.17188 14.0787 1.17188 30C1.17188 36.9503 3.63188 43.3258 7.72816 48.3042" stroke="#CC965A" stroke-width="2" stroke-miterlimit="10" stroke-linecap="round" stroke-linejoin="round"/>
</g>
<g id="g1130">
<path id="path1132" d="M30 38.5113C25.2994 38.5113 21.4887 34.7007 21.4887 30C21.4887 25.2993 25.2994 21.4888 30 21.4888C34.7007 21.4888 38.5114 25.2993 38.5114 30C38.5114 34.7007 34.7007 38.5113 30 38.5113ZM46.9729 26.3258C46.5264 24.2478 45.7088 22.3078 44.5916 20.5792L46.837 18.3337L41.6539 13.1544L39.4103 15.3979C37.6817 14.2808 35.7418 13.4632 33.6638 13.0168V9.84372H26.3363V13.0168C24.2583 13.4632 22.3184 14.2808 20.5898 15.3979L18.3462 13.1544L13.1631 18.3337L15.4084 20.5792C14.2913 22.3078 13.4737 24.2478 13.0272 26.3258H9.84578L9.8418 33.6532H13.0271C13.4736 35.7311 14.2912 37.6712 15.4083 39.3999L13.1545 41.6538L18.3338 46.837L20.5895 44.5811C22.3183 45.6984 24.2583 46.516 26.3363 46.9625V50.1562H33.6638V46.9625C35.7418 46.516 37.6818 45.6984 39.4105 44.5811L41.6663 46.837L46.8456 41.6538L44.5918 39.3999C45.7089 37.6712 46.5265 35.7311 46.973 33.6532H50.1583V26.3258H46.9729Z" stroke="#CC965A" stroke-width="2" stroke-miterlimit="10" stroke-linecap="round" stroke-linejoin="round"/>
</g>
</g>
</g>
</g>
</g>
</g>
</g>
<defs>
<clipPath id="clip0_16062_3868">
<rect width="60" height="60" fill="white"/>
</clipPath>
</defs>
</svg>
