<svg width="64" height="64" viewBox="0 0 64 64" fill="none" xmlns="http://www.w3.org/2000/svg">
<g id="list 1">
<path id="Vector" d="M25.5419 20.518L22.3899 23.67L20.8459 22.126C20.4549 21.735 19.8229 21.735 19.4319 22.126C19.0409 22.517 19.0409 23.149 19.4319 23.54L21.6829 25.791C21.8779 25.986 22.1339 26.084 22.3899 26.084C22.6459 26.084 22.9019 25.986 23.0969 25.791L26.9559 21.932C27.3469 21.541 27.3469 20.909 26.9559 20.518C26.5649 20.127 25.9329 20.127 25.5419 20.518Z" fill="#CC965A"/>
<path id="Vector_2" d="M43.8626 22.154H30.1426C29.5906 22.154 29.1426 22.602 29.1426 23.154C29.1426 23.706 29.5906 24.154 30.1426 24.154H43.8626C44.4146 24.154 44.8626 23.706 44.8626 23.154C44.8626 22.602 44.4146 22.154 43.8626 22.154Z" fill="#CC965A"/>
<path id="Vector_3" d="M25.5419 29.364L22.3899 32.515L20.8459 30.971C20.4549 30.58 19.8229 30.58 19.4319 30.971C19.0409 31.362 19.0409 31.994 19.4319 32.385L21.6829 34.636C21.8779 34.831 22.1339 34.929 22.3899 34.929C22.6459 34.929 22.9019 34.831 23.0969 34.636L26.9559 30.778C27.3469 30.387 27.3469 29.755 26.9559 29.364C26.5649 28.973 25.9329 28.973 25.5419 29.364Z" fill="#CC965A"/>
<path id="Vector_4" d="M43.8626 31H30.1426C29.5906 31 29.1426 31.448 29.1426 32C29.1426 32.552 29.5906 33 30.1426 33H43.8626C44.4146 33 44.8626 32.552 44.8626 32C44.8626 31.448 44.4146 31 43.8626 31Z" fill="#CC965A"/>
<path id="Vector_5" d="M25.5419 38.209L22.3899 41.361L20.8459 39.817C20.4549 39.426 19.8229 39.426 19.4319 39.817C19.0409 40.208 19.0409 40.84 19.4319 41.231L21.6829 43.482C21.8779 43.677 22.1339 43.775 22.3899 43.775C22.6459 43.775 22.9019 43.677 23.0969 43.482L26.9559 39.623C27.3469 39.232 27.3469 38.6 26.9559 38.209C26.5649 37.818 25.9329 37.818 25.5419 38.209Z" fill="#CC965A"/>
<path id="Vector_6" d="M43.8626 39.846H30.1426C29.5906 39.846 29.1426 40.294 29.1426 40.846C29.1426 41.398 29.5906 41.846 30.1426 41.846H43.8626C44.4146 41.846 44.8626 41.398 44.8626 40.846C44.8626 40.294 44.4146 39.846 43.8626 39.846Z" fill="#CC965A"/>
<path id="Vector_7" d="M4.01218 44.788C4.09818 45.039 4.28118 45.245 4.51918 45.362L12.1802 49.107V55.08C12.1802 55.632 12.6282 56.08 13.1802 56.08H26.4372L38.3342 61.899C38.4762 61.968 38.6252 62.001 38.7722 62.001C39.1422 62.001 39.4982 61.795 39.6712 61.44L42.2942 56.08H50.8212C51.3732 56.08 51.8212 55.632 51.8212 55.08V36.587L59.9412 19.978C60.0572 19.74 60.0742 19.465 59.9882 19.214C59.9022 18.963 59.7192 18.757 59.4812 18.64L51.8202 14.895V8.922C51.8202 8.37 51.3722 7.922 50.8202 7.922H37.5632L25.6662 2.103C25.1692 1.861 24.5722 2.066 24.3282 2.562L21.7052 7.922H13.1782C12.6262 7.922 12.1782 8.37 12.1782 8.922V27.415L4.05818 44.024C3.94218 44.262 3.92618 44.537 4.01218 44.788ZM38.3132 59.663L30.9882 56.08H40.0672L38.3132 59.663ZM57.7052 19.997L51.8212 32.032V17.121L57.7052 19.997ZM25.6872 4.337L33.0122 7.92H23.9332L25.6872 4.337ZM14.1792 9.921H49.8212V54.079H14.1792V9.921ZM12.1792 31.968V46.879L6.29518 44.003L12.1792 31.968Z" fill="#CC965A"/>
</g>
</svg>
