<svg width="42" height="42" viewBox="0 0 42 42" fill="none" xmlns="http://www.w3.org/2000/svg">
<path d="M32.8867 18.2764V10.5323C32.8867 9.93973 32.4656 9.43688 31.8925 9.32483L21.5487 3.35287C21.168 3.13303 20.6989 3.13303 20.3182 3.35287L9.72858 9.46682C9.34787 9.68659 9.11334 10.0928 9.11334 10.5324V18.2765C5.03319 19.5602 0 22.2097 0 26.4849C0 30.1535 3.88927 33.3405 10.443 35.0783L9.95408 37.3171C9.74441 38.277 10.6957 39.089 11.6132 38.722L17.7656 36.2611C18.5795 35.9357 18.8025 34.8835 18.1863 34.2563L13.5926 29.5806C12.9091 28.8851 11.7213 29.225 11.5127 30.1805L10.9687 32.6712C5.77582 31.272 2.46094 28.879 2.46094 26.4849C2.46094 24.4058 4.97815 22.3056 9.11334 20.8687V22.7603C9.11334 23.1999 9.34787 23.6061 9.72858 23.8259L20.3848 29.9782C20.7655 30.1981 21.2345 30.1981 21.6152 29.9782L32.2714 23.8259C32.6521 23.6061 32.8867 23.1999 32.8867 22.7603V20.8687C37.0219 22.3056 39.5391 24.4058 39.5391 26.4849C39.5391 31.0414 29.5314 33.3544 24.6168 33.7597C23.9395 33.8157 23.4358 34.4101 23.4917 35.0873C23.5471 35.7578 24.1344 36.2682 24.8193 36.2124C31.226 35.6827 42 32.9143 42 26.4849C42 22.2093 36.9654 19.5598 32.8867 18.2764ZM13.4316 32.9282L15.1356 34.6626L12.8534 35.5756L13.4316 32.9282ZM20.9335 5.83924L29.1287 10.5708C28.1282 11.1485 21.6677 14.8784 21 15.2639C20.2716 14.8433 13.8978 11.1635 12.8047 10.5323L20.9335 5.83924ZM11.5743 12.6637L19.7695 17.3951V26.7814L11.5743 22.0498V12.6637ZM30.4257 22.0498L22.2305 26.7814V17.3951L30.4257 12.6637V22.0498Z" fill="currentColor"/>
</svg>
