<svg width="17" height="17" viewBox="0 0 17 17" fill="none" xmlns="http://www.w3.org/2000/svg">
<path d="M6.94254 8.51387L0.323076 1.89421C-0.107706 1.46363 -0.107706 0.767434 0.323076 0.336852C0.753658 -0.0937294 1.44985 -0.0937294 1.88043 0.336852L8.5001 6.95652L15.1196 0.336852C15.5503 -0.0937294 16.2463 -0.0937294 16.6769 0.336852C17.1077 0.767434 17.1077 1.46363 16.6769 1.89421L10.0574 8.51387L16.6769 15.1335C17.1077 15.5641 17.1077 16.2603 16.6769 16.6909C16.4623 16.9057 16.1802 17.0136 15.8982 17.0136C15.6163 17.0136 15.3343 16.9057 15.1196 16.6909L8.5001 10.0712L1.88043 16.6909C1.66564 16.9057 1.3837 17.0136 1.10175 17.0136C0.819809 17.0136 0.537863 16.9057 0.323076 16.6909C-0.107706 16.2603 -0.107706 15.5641 0.323076 15.1335L6.94254 8.51387Z" fill="currentColor"/>
</svg>
