<svg width="32" height="32" viewBox="0 0 32 32" fill="none" xmlns="http://www.w3.org/2000/svg">
<path d="M25.3333 1.33331H6.66667C4.89921 1.33543 3.20474 2.03849 1.95496 3.28827C0.705176 4.53806 0.00211714 6.23252 0 7.99998L0 24C0.00211714 25.7674 0.705176 27.4619 1.95496 28.7117C3.20474 29.9615 4.89921 30.6645 6.66667 30.6666H25.3333C27.1008 30.6645 28.7953 29.9615 30.045 28.7117C31.2948 27.4619 31.9979 25.7674 32 24V7.99998C31.9979 6.23252 31.2948 4.53806 30.045 3.28827C28.7953 2.03849 27.1008 1.33543 25.3333 1.33331ZM6.66667 3.99998H25.3333C26.1317 4.00155 26.9114 4.242 27.5719 4.69038C28.2325 5.13877 28.7438 5.77458 29.04 6.51598L18.8293 16.728C18.0779 17.4764 17.0606 17.8966 16 17.8966C14.9394 17.8966 13.9221 17.4764 13.1707 16.728L2.96 6.51598C3.2562 5.77458 3.76748 5.13877 4.42806 4.69038C5.08864 4.242 5.86829 4.00155 6.66667 3.99998ZM25.3333 28H6.66667C5.6058 28 4.58839 27.5786 3.83824 26.8284C3.08809 26.0783 2.66667 25.0608 2.66667 24V9.99998L11.2853 18.6133C12.5368 19.8617 14.2323 20.5627 16 20.5627C17.7677 20.5627 19.4632 19.8617 20.7147 18.6133L29.3333 9.99998V24C29.3333 25.0608 28.9119 26.0783 28.1618 26.8284C27.4116 27.5786 26.3942 28 25.3333 28Z" fill="currentColor"/>
</svg>
