<svg width="16" height="16" viewBox="0 0 16 16" fill="none" xmlns="http://www.w3.org/2000/svg">
<path d="M8.66796 0.666633C8.66796 0.489822 8.7382 0.320252 8.86322 0.195228C8.98825 0.0702039 9.15781 -3.39877e-05 9.33463 -3.39877e-05C11.1021 0.00190708 12.7967 0.704909 14.0465 1.95473C15.2963 3.20455 15.9994 4.89912 16.0013 6.66663C16.0013 6.84344 15.9311 7.01301 15.806 7.13804C15.681 7.26306 15.5114 7.3333 15.3346 7.3333C15.1578 7.3333 14.9882 7.26306 14.8632 7.13804C14.7382 7.01301 14.668 6.84344 14.668 6.66663C14.6664 5.25263 14.104 3.897 13.1041 2.89715C12.1043 1.8973 10.7486 1.33489 9.33463 1.3333C9.15781 1.3333 8.98825 1.26306 8.86322 1.13804C8.7382 1.01301 8.66796 0.843444 8.66796 0.666633ZM9.33463 3.99997C10.0419 3.99997 10.7201 4.28092 11.2202 4.78101C11.7203 5.28111 12.0013 5.95939 12.0013 6.66663C12.0013 6.84344 12.0715 7.01301 12.1966 7.13804C12.3216 7.26306 12.4911 7.3333 12.668 7.3333C12.8448 7.3333 13.0143 7.26306 13.1394 7.13804C13.2644 7.01301 13.3346 6.84344 13.3346 6.66663C13.3336 5.60609 12.9118 4.58929 12.1619 3.83938C11.412 3.08946 10.3952 2.66769 9.33463 2.66663C9.15781 2.66663 8.98825 2.73687 8.86322 2.8619C8.7382 2.98692 8.66796 3.15649 8.66796 3.3333C8.66796 3.51011 8.7382 3.67968 8.86322 3.8047C8.98825 3.92973 9.15781 3.99997 9.33463 3.99997ZM15.3966 11.1593C15.783 11.5467 15.9999 12.0715 15.9999 12.6186C15.9999 13.1658 15.783 13.6906 15.3966 14.078L14.79 14.7773C9.32996 20.0046 -3.95671 6.7213 1.18996 1.24397L1.95663 0.577299C2.34447 0.201751 2.86458 -0.00600127 3.40443 -0.00101076C3.94428 0.00397975 4.46046 0.221312 4.84129 0.603966C4.86196 0.624633 6.09729 2.2293 6.09729 2.2293C6.46385 2.61438 6.6679 3.12592 6.66703 3.65757C6.66616 4.18922 6.46044 4.70008 6.09263 5.08397L5.32063 6.05463C5.74786 7.09271 6.376 8.03613 7.16897 8.8307C7.96193 9.62526 8.90408 10.2553 9.94129 10.6846L10.918 9.90797C11.3019 9.54044 11.8127 9.33496 12.3442 9.33422C12.8756 9.33347 13.387 9.53752 13.772 9.90397C13.772 9.90397 15.376 11.1386 15.3966 11.1593ZM14.4793 12.1286C14.4793 12.1286 12.884 10.9013 12.8633 10.8806C12.7259 10.7445 12.5404 10.668 12.347 10.668C12.1535 10.668 11.968 10.7445 11.8306 10.8806C11.8126 10.8993 10.468 11.9706 10.468 11.9706C10.3773 12.0428 10.2695 12.09 10.1551 12.1078C10.0406 12.1256 9.92351 12.1132 9.81529 12.072C8.4716 11.5717 7.25112 10.7885 6.23652 9.77535C5.22191 8.76225 4.43689 7.54292 3.93463 6.19997C3.89009 6.09027 3.87557 5.97069 3.89256 5.85353C3.90955 5.73636 3.95744 5.62583 4.03129 5.5333C4.03129 5.5333 5.10263 4.18797 5.12063 4.17063C5.2568 4.03329 5.33321 3.84771 5.33321 3.6543C5.33321 3.46089 5.2568 3.27531 5.12063 3.13797C5.09996 3.11797 3.87263 1.5213 3.87263 1.5213C3.73323 1.3963 3.5513 1.32936 3.36412 1.3342C3.17695 1.33903 2.99872 1.41527 2.86596 1.5473L2.09929 2.21397C-1.66204 6.73663 9.85196 17.612 13.8153 13.8666L14.4226 13.1666C14.5649 13.0348 14.6504 12.8528 14.661 12.6591C14.6716 12.4654 14.6064 12.2752 14.4793 12.1286Z" fill="currentColor"/>
</svg>
