<svg width="16" height="16" viewBox="0 0 16 16" fill="none" xmlns="http://www.w3.org/2000/svg">
<path d="M15.6444 13.904L12.3463 10.606C13.1411 9.45866 13.5387 8.17959 13.5387 6.76948C13.5387 5.85283 13.3607 4.97615 13.0048 4.13965C12.6491 3.30302 12.1683 2.5819 11.5626 1.97613C10.9568 1.37036 10.2358 0.889531 9.3993 0.533821C8.56256 0.178011 7.68595 0.00012207 6.76929 0.00012207C5.85271 0.00012207 4.97603 0.178011 4.13953 0.533821C3.30289 0.889531 2.58177 1.37036 1.976 1.97613C1.37017 2.5819 0.889409 3.30315 0.533666 4.13965C0.177889 4.97625 0 5.85283 0 6.76948C0 7.68607 0.177889 8.56245 0.533666 9.39918C0.889375 10.2357 1.37017 10.9567 1.976 11.5625C2.58177 12.1684 3.30303 12.6491 4.13953 13.005C4.97613 13.3607 5.85271 13.5386 6.76929 13.5386C8.17971 13.5386 9.45857 13.1409 10.606 12.3462L13.9041 15.6346C14.1348 15.8781 14.4229 16 14.7694 16C15.1027 16 15.3913 15.8781 15.6347 15.6346C15.8782 15.3911 16 15.1026 16 14.7693C16.0001 14.4297 15.8816 14.1411 15.6444 13.904ZM9.8126 9.81245C8.96966 10.6555 7.95531 11.077 6.76929 11.077C5.58348 11.077 4.56913 10.6554 3.72613 9.81245C2.88313 8.96952 2.46164 7.9553 2.46164 6.76928C2.46164 5.58347 2.88323 4.56895 3.72613 3.72612C4.56896 2.88308 5.58348 2.46163 6.76929 2.46163C7.95517 2.46163 8.96953 2.88325 9.8126 3.72612C10.6557 4.56895 11.0771 5.58347 11.0771 6.76928C11.0771 7.9553 10.6555 8.96952 9.8126 9.81245Z" fill="currentColor"/>
</svg>
