<svg width="32" height="32" viewBox="0 0 32 32" fill="none" xmlns="http://www.w3.org/2000/svg">
<path d="M16 32C7.17733 32 0 24.8227 0 16C0 7.17733 7.17733 0 16 0C24.8227 0 32 7.17733 32 16C32 24.8227 24.8227 32 16 32ZM16 2.66667C8.648 2.66667 2.66667 8.648 2.66667 16C2.66667 23.352 8.648 29.3333 16 29.3333C23.352 29.3333 29.3333 23.352 29.3333 16C29.3333 8.648 23.352 2.66667 16 2.66667ZM22.6667 16C22.6667 15.2627 22.0707 14.6667 21.3333 14.6667H17.3333V8C17.3333 7.26267 16.736 6.66667 16 6.66667C15.264 6.66667 14.6667 7.26267 14.6667 8V16C14.6667 16.7373 15.264 17.3333 16 17.3333H21.3333C22.0707 17.3333 22.6667 16.7373 22.6667 16Z" fill="currentColor"/>
</svg>
