<svg width="20" height="24" viewBox="0 0 20 24" fill="none" xmlns="http://www.w3.org/2000/svg">
<path d="M12.2087 0.947357H7.78762C5.73569 0.947357 3.76779 1.76249 2.31685 3.21343C0.865912 4.66437 0.0507819 6.63226 0.0507819 8.6842V12C0.0501659 13.4646 0.465303 14.8994 1.24793 16.1374C2.03055 17.3754 3.14852 18.3658 4.47183 18.9935V22.6879C4.47315 22.76 4.49548 22.8301 4.53608 22.8896C4.57667 22.9492 4.63378 22.9956 4.70038 23.0232C4.76698 23.0508 4.84018 23.0583 4.911 23.0449C4.98182 23.0315 5.04719 22.9977 5.09907 22.9476L8.30986 19.7368H12.2087C14.2606 19.7368 16.2285 18.9217 17.6795 17.4708C19.1304 16.0198 19.9455 14.0519 19.9455 12V8.6842C19.9455 6.63226 19.1304 4.66437 17.6795 3.21343C16.2285 1.76249 14.2606 0.947357 12.2087 0.947357ZM15.1045 15.4484L13.9992 16.5537C12.8221 17.7059 9.74947 16.3906 7.04157 13.6247C4.33368 10.8588 3.14552 7.75578 4.27841 6.60354L5.38368 5.49828C5.6003 5.30383 5.88194 5.19766 6.17302 5.20073C6.4641 5.2038 6.74344 5.31588 6.95591 5.51486L8.5696 7.17275C8.69776 7.305 8.79018 7.46768 8.83817 7.64548C8.88615 7.82328 8.88814 8.01036 8.84393 8.18914C8.79972 8.36791 8.71076 8.53251 8.58544 8.66745C8.46011 8.80239 8.30252 8.90324 8.12749 8.96052C7.86806 9.04012 7.64924 9.21658 7.51649 9.45327C7.38374 9.68996 7.34725 9.96868 7.4146 10.2316C7.69091 11.4584 9.24934 12.9947 10.4099 13.2959C10.6715 13.3583 10.9469 13.3231 11.1844 13.1969C11.422 13.0708 11.6054 12.8623 11.7003 12.6106C11.7616 12.4351 11.867 12.2783 12.0064 12.1554C12.1459 12.0324 12.3146 11.9474 12.4965 11.9085C12.6783 11.8696 12.867 11.8782 13.0446 11.9335C13.2221 11.9887 13.3824 12.0887 13.5101 12.2238L15.121 13.8817C15.3145 14.0977 15.4201 14.3783 15.4171 14.6683C15.414 14.9582 15.3025 15.2366 15.1045 15.4484ZM11.0039 6.19736C10.894 6.19683 10.7842 6.20329 10.6751 6.2167C10.627 6.22196 10.5784 6.2177 10.532 6.20416C10.4855 6.19062 10.4422 6.16807 10.4045 6.1378C10.3668 6.10752 10.3354 6.07011 10.3121 6.0277C10.2889 5.9853 10.2742 5.93873 10.2689 5.89065C10.2637 5.84257 10.2679 5.79392 10.2815 5.74749C10.295 5.70106 10.3176 5.65774 10.3478 5.62003C10.3781 5.58231 10.4155 5.55092 10.4579 5.52766C10.5003 5.5044 10.5469 5.48972 10.595 5.48446C10.7307 5.46883 10.8673 5.46145 11.0039 5.46236C11.9818 5.46162 12.9199 5.84918 13.6122 6.53986C14.3044 7.23053 14.6941 8.16779 14.6955 9.14565C14.6964 9.28228 14.689 9.41885 14.6734 9.55459C14.6682 9.60267 14.6535 9.64925 14.6302 9.69165C14.607 9.73406 14.5756 9.77147 14.5378 9.80174C14.5001 9.83202 14.4568 9.85457 14.4104 9.86811C14.364 9.88165 14.3153 9.88591 14.2672 9.88065C14.2192 9.87539 14.1726 9.86071 14.1302 9.83745C14.0878 9.81419 14.0504 9.7828 14.0201 9.74508C13.9898 9.70736 13.9673 9.66405 13.9537 9.61762C13.9402 9.57119 13.9359 9.52254 13.9412 9.47446C13.9532 9.36526 13.9597 9.25551 13.9605 9.14565C13.9591 8.36272 13.6468 7.61241 13.0924 7.05958C12.5381 6.50675 11.7869 6.19662 11.0039 6.19736ZM13.2145 9.14565C13.2065 9.23797 13.1641 9.32394 13.0958 9.38657C13.0276 9.44921 12.9383 9.48395 12.8456 9.48395C12.7529 9.48395 12.6636 9.44921 12.5953 9.38657C12.527 9.32394 12.4847 9.23797 12.4767 9.14565C12.4767 8.75504 12.3215 8.38044 12.0453 8.10425C11.7691 7.82805 11.3945 7.67288 11.0039 7.67288C10.9528 7.67731 10.9013 7.67106 10.8527 7.65454C10.8042 7.63801 10.7595 7.61157 10.7217 7.57688C10.6839 7.5422 10.6537 7.50003 10.633 7.45305C10.6124 7.40608 10.6017 7.35532 10.6017 7.304C10.6017 7.25268 10.6124 7.20193 10.633 7.15495C10.6537 7.10798 10.6839 7.06581 10.7217 7.03112C10.7595 6.99644 10.8042 6.96999 10.8527 6.95346C10.9013 6.93694 10.9528 6.93069 11.0039 6.93512C11.5902 6.93512 12.1525 7.16801 12.567 7.58257C12.9816 7.99712 13.2145 8.55938 13.2145 9.14565ZM16.0246 10.3421C16.0164 10.3923 15.998 10.4403 15.9704 10.4831C15.9429 10.5259 15.9068 10.5626 15.8644 10.5908C15.8221 10.619 15.7744 10.6382 15.7243 10.6471C15.6742 10.6561 15.6228 10.6546 15.5733 10.6428C15.5238 10.631 15.4772 10.6091 15.4365 10.5785C15.3959 10.5479 15.3619 10.5093 15.3369 10.465C15.3118 10.4207 15.2962 10.3717 15.2909 10.3211C15.2856 10.2705 15.2908 10.2193 15.3062 10.1708C15.386 9.8368 15.4259 9.49454 15.425 9.15117C15.425 7.97864 14.9592 6.85413 14.1301 6.02502C13.301 5.19591 12.1765 4.73012 11.0039 4.73012C10.8907 4.73012 10.7746 4.73012 10.6613 4.73012C10.613 4.73375 10.5645 4.72784 10.5186 4.71272C10.4726 4.6976 10.43 4.67358 10.3934 4.64202C10.3193 4.57828 10.2735 4.48772 10.2662 4.39025C10.2589 4.29278 10.2905 4.1964 10.3543 4.1223C10.418 4.0482 10.5086 4.00245 10.606 3.99512C10.7387 3.98407 10.8713 3.97854 11.0039 3.97854C12.3729 3.98074 13.6851 4.5261 14.6523 5.49488C15.6195 6.46366 16.1628 7.77668 16.1628 9.14565C16.1629 9.54845 16.1165 9.94992 16.0246 10.3421Z" fill="currentColor"/>
</svg>
