<svg width="22" height="22" viewBox="0 0 22 22" fill="none" xmlns="http://www.w3.org/2000/svg">
<path d="M18.4065 3.59197C16.6591 1.82473 14.3373 0.740468 11.8605 0.534958C9.38373 0.329449 6.91507 1.01623 4.90024 2.47131C2.88541 3.92639 1.4572 6.05388 0.873459 8.46966C0.28972 10.8855 0.588921 13.4303 1.71704 15.6449L0.611779 21.0109C0.599944 21.0645 0.599486 21.12 0.610433 21.1738C0.62138 21.2276 0.643489 21.2785 0.675331 21.3232C0.720933 21.3908 0.786117 21.443 0.862162 21.4726C0.938207 21.5022 1.02149 21.5079 1.10086 21.4889L6.35086 20.2428C8.55931 21.3413 11.0859 21.6206 13.481 21.0308C15.876 20.4411 17.9841 19.0206 19.43 17.0222C20.8759 15.0238 21.5658 12.5772 21.3768 10.1179C21.1879 7.65855 20.1324 5.34604 18.3982 3.59197H18.4065ZM16.7652 16.6811C15.5567 17.8875 14.0004 18.6847 12.3152 18.9608C10.6301 19.2369 8.90077 18.9778 7.37046 18.2201L6.63546 17.8554L3.41086 18.618V18.5766L4.0906 15.3243L3.73138 14.617C2.94892 13.0825 2.67264 11.3396 2.9422 9.63839C3.21175 7.93716 4.01328 6.36505 5.23178 5.14763C6.76176 3.61925 8.8359 2.76074 10.9985 2.76074C13.1611 2.76074 15.2352 3.61925 16.7652 5.14763L16.8011 5.19737C18.3112 6.73061 19.1542 8.7985 19.1464 10.9505C19.1387 13.1025 18.2808 15.1643 16.7597 16.6866L16.7652 16.6811Z" fill="currentColor"/>
<path d="M16.4822 14.3158C16.0871 14.9375 15.4599 15.6974 14.6779 15.888C13.2963 16.2196 11.1935 15.888 8.56025 13.4537L8.5271 13.4233C6.23644 11.2846 5.62854 9.50238 5.76394 8.09041C5.84407 7.28633 6.51275 6.56238 7.07644 6.08712C7.16606 6.01155 7.27211 5.958 7.38613 5.93073C7.50014 5.90347 7.61895 5.90326 7.73306 5.9301C7.84717 5.95695 7.95342 6.01012 8.04331 6.08537C8.13321 6.16061 8.20426 6.25583 8.25078 6.36344L9.09907 8.28107C9.15445 8.40451 9.17522 8.54068 9.15915 8.67502C9.14309 8.80936 9.0908 8.93679 9.00788 9.0437L8.57683 9.59633C8.48724 9.71104 8.43387 9.84986 8.42353 9.99505C8.41319 10.1402 8.44636 10.2852 8.5188 10.4115C8.92826 11.0149 9.41817 11.5597 9.97499 12.0307C10.5741 12.6072 11.2535 13.094 11.9921 13.4758C12.1269 13.5301 12.2748 13.5431 12.417 13.5131C12.5592 13.4831 12.6893 13.4114 12.7906 13.3073L13.2853 12.8044C13.3794 12.7032 13.4997 12.63 13.6328 12.5929C13.7659 12.5558 13.9067 12.5563 14.0396 12.5944L16.0567 13.1719C16.171 13.2044 16.276 13.2634 16.3633 13.344C16.4506 13.4247 16.5177 13.5247 16.5591 13.6361C16.6005 13.7475 16.6151 13.867 16.6018 13.9851C16.5884 14.1032 16.5475 14.2165 16.4822 14.3158Z" fill="currentColor"/>
</svg>
