<svg width="91" height="133" viewBox="0 0 91 133" fill="none" xmlns="http://www.w3.org/2000/svg">
<path d="M45 133L59.7224 85.75H30.2776L45 133Z" fill="#CC965A"/>
<g clip-path="url(#clip0_16091_4894)">
<path d="M45.5014 90.9697C70.6138 90.9697 90.9715 70.612 90.9715 45.4996C90.9715 20.3871 70.6138 0.02948 45.5014 0.02948C20.3889 0.02948 0.03125 20.3871 0.03125 45.4996C0.03125 70.612 20.3889 90.9697 45.5014 90.9697Z" fill="#CC965A" stroke="#CC965A" stroke-width="0.0597848" stroke-linecap="round" stroke-linejoin="round"/>
<path d="M45.499 79.0338C64.0195 79.0338 79.0333 64.02 79.0333 45.4996C79.0333 26.9792 64.0195 11.9654 45.499 11.9654C26.9786 11.9654 11.9648 26.9792 11.9648 45.4996C11.9648 64.02 26.9786 79.0338 45.499 79.0338Z" fill="white" stroke="#CC965A" stroke-width="0.0597848" stroke-linecap="round" stroke-linejoin="round"/>
<path d="M82.7241 36.1319L82.5111 36.1993L82.3023 36.2397L82.1002 36.2506L81.9015 36.2346L81.707 36.1909L81.5192 36.1193L81.3339 36.0191L81.1554 35.8919L80.9794 35.737L80.8102 35.5534L80.646 35.3421L80.4843 35.1021L80.3294 34.8343L80.1787 34.5396L80.033 34.2163L79.8924 33.8651L79.2137 32.0775L79.1194 31.8198L79.0377 31.5723L78.9687 31.3331L78.9114 31.1024L78.8642 30.8818L78.8297 30.6679L78.8078 30.4642L78.7969 30.2688L78.7986 30.0835L78.8104 29.905L78.8356 29.7358L78.8718 29.5758L78.9207 29.4251L78.9813 29.2828L79.0537 29.1497L79.1371 29.0243L79.2777 28.8601L79.4394 28.7186L79.6212 28.6024L79.8233 28.5106L82.7822 27.3865L82.997 27.3175L83.2083 27.277L83.4138 27.2644L83.6142 27.2787L83.8087 27.3208L83.9998 27.3916L84.1851 27.4901L84.3661 27.6172L84.5421 27.7722L84.7114 27.954L84.8772 28.1637L85.0389 28.402L85.1938 28.6689L85.3446 28.962L85.4902 29.2845L85.6309 29.6339L86.3112 31.4266L86.4291 31.7466L86.5293 32.0455L86.6135 32.3276L86.6843 32.5895L86.7365 32.8345L86.7735 33.0602L86.7954 33.2648L86.8005 33.4534L86.7802 33.7262L86.7255 33.9763L86.6354 34.2036L86.5116 34.4108L86.355 34.5944L86.1639 34.7543L85.9382 34.8933L85.678 35.0095L82.7241 36.1319Z" fill="white" stroke="#CC965A" stroke-width="0.0597848" stroke-linecap="round" stroke-linejoin="round"/>
<path d="M82.2918 35.033L85.2684 33.903L85.367 33.8576L85.4529 33.8011L85.527 33.7338L85.5893 33.6538L85.6415 33.5628L85.6802 33.461L85.7071 33.3464L85.724 33.221L85.7274 33.0846L85.7198 32.9372L85.6987 32.7781L85.6676 32.6071L85.6255 32.4252L85.5707 32.2324L85.5034 32.027L85.4251 31.8106L84.7194 29.9556L84.6352 29.7408L84.5468 29.5413L84.4609 29.3594L84.3717 29.1935L84.2807 29.0445L84.1898 28.9114L84.0972 28.7952L84.0037 28.695L83.9094 28.6117L83.8126 28.5443L83.7149 28.4946L83.6164 28.4601L83.5178 28.4416L83.416 28.4399L83.3141 28.455L83.2105 28.487L80.2339 29.6171L80.1387 29.6608L80.0554 29.7156L79.9847 29.7829L79.924 29.8612L79.8752 29.9522L79.839 30.0541L79.8129 30.1669L79.8002 30.2924L79.7969 30.4288L79.8061 30.5761L79.8272 30.7353L79.86 30.9062L79.9038 31.0898L79.9602 31.2843L80.0276 31.4897L80.1059 31.707L80.8124 33.5679L80.8974 33.7809L80.9833 33.978L81.0692 34.1582L81.1576 34.3232L81.2469 34.4722L81.3361 34.6036L81.4271 34.7198L81.5197 34.82L81.6115 34.9025L81.7058 34.9699L81.8018 35.0204L81.8969 35.0566L81.9946 35.0751L82.0931 35.0768L82.1916 35.0625L82.2918 35.033Z" fill="#CC965A" stroke="#CC965A" stroke-width="0.0597848" stroke-linecap="round" stroke-linejoin="round"/>
<path d="M82.6767 24.4242L82.5908 24.4756L82.5092 24.5076L82.4292 24.5211L82.3542 24.5169L82.2801 24.4916L82.2094 24.4495L82.142 24.3863L82.078 24.3063L79.5544 20.6898L79.4416 20.5315L79.3305 20.3867L79.2244 20.2553L79.1191 20.1366L79.0172 20.0313L78.9187 19.9404L78.8227 19.8621L78.7301 19.7964L78.6408 19.7442L78.5549 19.7054L78.4707 19.6785L78.3907 19.6659L78.3124 19.6676L78.2366 19.6819L78.1651 19.7088L78.096 19.7492L75.2626 21.7272L75.1716 21.8038L75.1009 21.8931L75.0487 21.9966L75.0192 22.1128L75.01 22.2408L75.0209 22.3823L75.0504 22.5355L75.1026 22.7031L75.1337 22.7848L75.1758 22.8757L75.228 22.9776L75.2904 23.0871L75.3645 23.2092L75.447 23.3397L75.5396 23.4803L75.6432 23.631L78.0522 27.0834L78.1053 27.1718L78.1381 27.2543L78.1541 27.3343L78.1508 27.4109L78.1289 27.485L78.0893 27.5541L78.0303 27.6198L77.9529 27.6821L77.8434 27.7579L77.7592 27.8092L77.6759 27.8421L77.5975 27.8564L77.5218 27.8505L77.4485 27.8278L77.3795 27.7857L77.3121 27.725L77.2498 27.645L74.8466 24.2019L74.7422 24.0512L74.6479 23.9097L74.562 23.7818L74.4845 23.6622L74.4163 23.5544L74.3582 23.4576L74.3077 23.3708L74.2673 23.2959L74.1544 23.0483L74.0652 22.7957L73.9987 22.5406L73.9566 22.2804L73.9414 22.0261L73.9507 21.7878L73.9877 21.5689L74.0509 21.3634L74.1418 21.1765L74.2589 21.0064L74.402 20.8523L74.5729 20.7159L77.3685 18.7666L77.5032 18.6832L77.643 18.6192L77.7887 18.5737L77.9419 18.5468L78.0986 18.5375L78.2636 18.5468L78.4345 18.5754L78.6097 18.6226L78.9061 18.7371L79.1865 18.887L79.4517 19.0764L79.7018 19.3038L79.8433 19.4562L79.9982 19.6423L80.1674 19.8654L80.351 20.1206L82.8805 23.7455L82.9335 23.8331L82.9681 23.9182L82.9858 23.9998L82.9824 24.0765L82.9622 24.1497L82.9209 24.2188L82.8628 24.2845L82.7862 24.3476L82.6767 24.4242Z" fill="white" stroke="#CC965A" stroke-width="0.0597848" stroke-linecap="round" stroke-linejoin="round"/>
<path d="M72.4233 20.2056L72.3433 20.273L72.265 20.3201L72.1867 20.3488L72.1083 20.358L72.03 20.3471L71.9509 20.3159L71.8726 20.2654L71.7959 20.1947L71.5374 19.9286L71.4701 19.8503L71.4229 19.7703L71.3951 19.692L71.3867 19.6137L71.3977 19.5353L71.428 19.4587L71.4777 19.3804L71.5484 19.3029L75.8302 15.1551L75.9085 15.0877L75.9868 15.0405L76.0651 15.0136L76.1434 15.0043L76.22 15.0153L76.2983 15.0464L76.3758 15.097L76.4524 15.166L76.7109 15.4321L76.7783 15.5121L76.8271 15.5904L76.8549 15.6704L76.8642 15.7487L76.8532 15.8253L76.8238 15.9036L76.7732 15.9811L76.705 16.0577L72.4233 20.2056Z" fill="white" stroke="#CC965A" stroke-width="0.0597848" stroke-linecap="round" stroke-linejoin="round"/>
<path d="M74.7148 14.0124L74.6474 14.089L74.5783 14.1488L74.5059 14.1884L74.431 14.2069L74.3527 14.2086L74.271 14.1909L74.1876 14.1538L74.1018 14.0974L71.9074 12.4487L68.6369 16.8037L68.5679 16.8837L68.4971 16.9452L68.4239 16.9856L68.3473 17.0058L68.2673 17.0092L68.1856 16.9915L68.1005 16.9545L68.0147 16.898L67.7166 16.6749L67.6383 16.6075L67.5793 16.5377L67.5397 16.4636L67.5195 16.3869V16.3069L67.5381 16.2253L67.576 16.1394L67.634 16.0518L70.9045 11.6959L68.7447 10.0742L68.6681 10.0068L68.6083 9.93775L68.5696 9.86533L68.5493 9.79039L68.5477 9.71377L68.5662 9.63377L68.6024 9.55041L68.6588 9.46452L68.7405 9.35506L68.8062 9.27759L68.8752 9.22033L68.9468 9.18244L69.0226 9.16223H69.0992L69.1809 9.17907L69.2634 9.21696L69.3501 9.27338L74.7038 13.295L74.7821 13.3623L74.8411 13.4314L74.8806 13.5029L74.9025 13.5787L74.9042 13.6554L74.8865 13.7353L74.8512 13.8179L74.7956 13.9029L74.7148 14.0124Z" fill="white" stroke="#CC965A" stroke-width="0.0597848" stroke-linecap="round" stroke-linejoin="round"/>
<path d="M65.7088 10.9204L65.6414 11.0425L65.5901 11.1225L65.5336 11.1873L65.4705 11.2336L65.4031 11.2656L65.3299 11.2808H65.2516L65.1682 11.2639L65.0789 11.2311L59.6326 8.77066L59.1375 9.867L59.1047 9.95541L59.0862 10.043L59.0794 10.1306L59.0895 10.2181L59.1114 10.3049L59.1468 10.3907L59.1973 10.4766L59.2613 10.5634L59.3388 10.6476L59.4305 10.7326L59.5358 10.8168L59.6545 10.9002L59.7884 10.9852L59.9358 11.0677L60.0966 11.1494L60.2709 11.2328L64.2639 13.0364L64.3548 13.0853L64.4272 13.1383L64.4803 13.1989L64.5182 13.268L64.5367 13.3421V13.4238L64.5198 13.5113L64.4853 13.6048L64.4306 13.7277L64.3834 13.817L64.3287 13.8869L64.2672 13.9408L64.1982 13.9753L64.1232 13.9921H64.0416L63.954 13.9753L63.858 13.9391L59.8288 12.1195L59.7303 12.0723L59.6217 12.0159L59.503 11.9519L59.3741 11.8778L59.1392 11.7355L58.9245 11.5898L58.73 11.4441L58.5548 11.2968L58.3999 11.1494L58.2652 10.9987L58.149 10.8488L58.0547 10.6947L57.978 10.5415L57.9233 10.3865L57.8871 10.2291L57.8711 10.0725L57.8761 9.91247L57.8997 9.75332L57.9435 9.59165L58.0075 9.4283L59.3994 6.34728L59.5105 6.1435L59.647 5.96667L59.8086 5.81932L59.9947 5.70059L60.2069 5.60965L60.4452 5.54481L60.7062 5.51029L60.9934 5.50439L61.1971 5.51534L61.4043 5.53892L61.6156 5.57513L61.8304 5.62312L62.0493 5.68459L62.2741 5.75785L62.5006 5.84626L62.733 5.94478L63.8319 6.4399L63.9211 6.48874L63.9927 6.54179L64.0474 6.60326L64.0837 6.67062L64.103 6.74388V6.82555L64.0853 6.91144L64.0508 7.00575L63.9961 7.12953L63.9489 7.21879L63.8942 7.28952L63.8327 7.34257L63.7645 7.37877L63.6887 7.39561H63.6071L63.5195 7.37877L63.4243 7.34257L62.2817 6.82724L61.96 6.70514L61.6796 6.60747L61.4287 6.54347L61.2064 6.50895L61.0136 6.50726L60.8494 6.53589L60.7147 6.59652L60.6077 6.68746L60.5311 6.81124L60.0528 7.87221L65.4941 10.3301L65.5918 10.3815L65.6684 10.4396L65.7248 10.5036L65.7627 10.5743L65.7778 10.6509L65.7753 10.736L65.7526 10.8252L65.7088 10.9204Z" fill="white" stroke="#CC965A" stroke-width="0.0597848" stroke-linecap="round" stroke-linejoin="round"/>
<path d="M58.0663 4.52846L58.0385 4.62867L58.0007 4.71371L57.9518 4.78276L57.8929 4.83244L57.8221 4.86865L57.7405 4.88801L57.6495 4.89054L57.5476 4.87707L54.8708 4.32637L53.7862 9.60848L53.7585 9.70869L53.7206 9.79289L53.6717 9.86194L53.6136 9.9133L53.5454 9.94783L53.4654 9.96888L53.3745 9.9714L53.2743 9.95793L52.9164 9.88383L52.8196 9.85689L52.7362 9.81984L52.6705 9.76931L52.6217 9.71037L52.5872 9.63964L52.5703 9.55796L52.5687 9.46534L52.583 9.36177L53.6675 4.0805L50.989 3.53065L50.8888 3.50202L50.8054 3.46497L50.7381 3.41445L50.6884 3.35466L50.6539 3.28309L50.6345 3.20141L50.6328 3.10879L50.6471 3.00521L50.6758 2.8688L50.7019 2.7686L50.7414 2.68608L50.7903 2.61872L50.8492 2.5682L50.9183 2.53367L50.9999 2.51515L51.0909 2.51178L51.1928 2.52609L57.7531 3.87336L57.8516 3.9003L57.935 3.93988L58.0023 3.98787L58.0537 4.04766L58.0882 4.11839L58.1059 4.19838L58.1084 4.29017L58.095 4.39205L58.0663 4.52846Z" fill="white" stroke="#CC965A" stroke-width="0.0597848" stroke-linecap="round" stroke-linejoin="round"/>
<path d="M48.5975 7.45457L48.5865 7.72907L48.5427 7.97832L48.4644 8.2023L48.3549 8.40102L48.2126 8.57701L48.0367 8.72605L47.827 8.85151L47.5853 8.95171L47.4051 9.00645L47.2081 9.05528L46.9917 9.09739L46.7593 9.13191L46.5084 9.16138L46.2406 9.18327L45.9543 9.19927L45.6512 9.20854L41.3576 9.29021L41.2557 9.28516L41.1665 9.26664L41.0907 9.2338L41.0284 9.18664L40.9795 9.12686L40.945 9.0536L40.9231 8.96519L40.9138 8.8633L40.9105 8.72857L40.9155 8.62669L40.9341 8.53743L40.9669 8.46249L41.0141 8.40102L41.0755 8.35302L41.1488 8.31682L41.238 8.29492L41.3399 8.28734L45.6613 8.20398L45.8726 8.19725L46.0697 8.18546L46.2532 8.16946L46.4242 8.14757L46.5808 8.12062L46.7231 8.08947L46.8519 8.05326L46.9681 8.01116L47.0683 7.964L47.1559 7.91264L47.23 7.85622L47.2906 7.79475L47.3378 7.72907L47.3689 7.65666L47.3891 7.58003L47.3942 7.49835L47.3816 6.88114L47.374 6.79525L47.3521 6.71357L47.3159 6.63863L47.2687 6.56958L47.2064 6.50643L47.1306 6.44833L47.0414 6.39865L46.9395 6.3515L46.8241 6.31192L46.6953 6.2774L46.553 6.25129L46.3972 6.22772L46.2263 6.21172L46.0452 6.20077L45.849 6.19656L45.6394 6.19825L43.989 6.2294L43.6075 6.23109L43.2522 6.21845L42.9213 6.19319L42.6131 6.1553L42.3302 6.10562L42.0717 6.04078L41.8367 5.96416L41.6271 5.8749L41.4401 5.77133L41.2793 5.65681L41.1412 5.52882L41.0284 5.38568L40.9391 5.23243L40.8743 5.06486L40.8339 4.88298L40.8179 4.69015L40.8086 4.18914L40.8195 3.93148L40.8633 3.69655L40.9391 3.48014L41.0486 3.28479L41.1884 3.11049L41.3618 2.95724L41.5673 2.82251L41.8056 2.70968L41.9799 2.64653L42.1727 2.59179L42.3866 2.54464L42.6207 2.5059L42.8758 2.47222L43.152 2.4478L43.4467 2.43012L43.7633 2.42086L44.3915 2.40991L44.495 2.41496L44.5843 2.43349L44.6592 2.46464L44.7224 2.51011L44.7721 2.5699L44.8066 2.64316L44.8285 2.73157L44.8377 2.83177L44.8411 2.96818L44.8369 3.07007L44.8175 3.15933L44.783 3.23427L44.7359 3.29658L44.6752 3.34542L44.6003 3.38163L44.5094 3.40352L44.4058 3.41278L43.7524 3.42541L43.5402 3.43215L43.3414 3.44394L43.1562 3.46162L42.9853 3.48351L42.8286 3.5113L42.6847 3.54498L42.5567 3.58371L42.4405 3.62582L42.3386 3.67634L42.251 3.72939L42.1769 3.78917L42.1154 3.85317L42.0691 3.9239L42.0363 3.99884L42.0169 4.07883L42.0127 4.16556L42.022 4.63542L42.0363 4.74068L42.0733 4.83583L42.1365 4.92256L42.2224 4.9975L42.3318 5.06149L42.4666 5.11623L42.6249 5.1617L42.8068 5.19622L42.8918 5.20717L42.992 5.21559L43.1065 5.22316L43.2362 5.22737L43.3793 5.23074H43.5385H43.7128L43.9006 5.22737L45.5729 5.19622H45.8474L46.1109 5.20548L46.3627 5.22485L46.606 5.25432L46.8359 5.2939L47.059 5.34189L47.2687 5.40168L47.4691 5.47072L47.7268 5.58356L47.9508 5.71323L48.1402 5.85975L48.2968 6.02226L48.4189 6.20077L48.5082 6.39697L48.5638 6.60832L48.5857 6.83735L48.5975 7.45457Z" fill="white" stroke="#CC965A" stroke-width="0.0597848" stroke-linecap="round" stroke-linejoin="round"/>
<path d="M38.9226 6.1418L38.9487 6.28579L38.9613 6.38515L38.9588 6.4744L38.9411 6.5544L38.9099 6.6226L38.8628 6.68407L38.8013 6.73459L38.7264 6.77333L38.6371 6.80448L32.8919 8.32352L33.1815 9.4207L33.2102 9.5049L33.2489 9.58069L33.2994 9.64805L33.3601 9.70531L33.4308 9.75415L33.5125 9.79541L33.6034 9.82656L33.707 9.85014L33.8181 9.86529L33.9419 9.87035L34.0766 9.86698L34.2206 9.85603L34.3747 9.83582L34.5406 9.80719L34.7157 9.77014L34.9027 9.72299L39.1171 8.60897L39.2173 8.58961L39.3065 8.58792L39.3882 8.60224L39.4598 8.63508L39.5213 8.68391L39.5726 8.74959L39.6164 8.83295L39.6492 8.93316L39.6854 9.06788L39.7057 9.17145L39.709 9.26492L39.6964 9.34828L39.6669 9.4207L39.6198 9.48469L39.5575 9.53774L39.4775 9.58069L39.3798 9.61352L35.1064 10.7419L34.9995 10.768L34.8808 10.7932L34.7469 10.8185L34.6012 10.8421L34.3292 10.8791L34.0699 10.9018L33.8274 10.9128L33.5983 10.9077L33.3836 10.8909L33.1849 10.8589L32.9997 10.8134L32.8304 10.7553L32.6738 10.6838L32.5332 10.597L32.406 10.4985L32.2949 10.3857L32.1972 10.2585L32.1147 10.1196L32.0473 9.9655L31.9934 9.79793L31.127 6.51819L31.0849 6.28916L31.0781 6.06517L31.111 5.84708L31.18 5.63573L31.2869 5.43027L31.4309 5.23155L31.6111 5.03873L31.8309 4.85011L31.9951 4.73138L32.1711 4.61855L32.3572 4.51329L32.5567 4.41478L32.7647 4.32552L32.9853 4.24047L33.2161 4.16385L33.4594 4.0948L34.6231 3.7883L34.7242 3.76893L34.8151 3.76556L34.8942 3.77988L34.9667 3.81103L35.0281 3.85987L35.0812 3.92555L35.1233 4.00891L35.1561 4.10743L35.1923 4.24384L35.2125 4.34741L35.2176 4.44172L35.205 4.52424L35.1755 4.59834L35.1283 4.66234L35.0652 4.71538L34.9852 4.75833L34.89 4.79117L33.6767 5.1103L33.3491 5.21892L33.0721 5.32081L32.8355 5.42859L32.6426 5.54311L32.4919 5.66268L32.3824 5.78898L32.3151 5.92118L32.2915 6.05759L32.3083 6.20158L32.6047 7.32486L38.3769 5.79993L38.4847 5.77972L38.5824 5.77635L38.6666 5.79235L38.7424 5.82519L38.803 5.8774L38.8552 5.94729L38.8939 6.03486L38.9226 6.1418Z" fill="white" stroke="#CC965A" stroke-width="0.0597848" stroke-linecap="round" stroke-linejoin="round"/>
<path d="M24.9142 13.3833L25.043 13.5669L25.1415 13.7538L25.2131 13.945L25.2569 14.1386L25.2729 14.3365L25.2602 14.5386L25.2198 14.7441L25.1508 14.952L25.0539 15.1651L24.9285 15.3815L24.7761 15.6013L24.5942 15.8252L24.3862 16.0526L24.1479 16.2833L23.8827 16.5182L23.5896 16.7565L22.0841 17.9329L21.866 18.0979L21.6546 18.2478L21.4458 18.3859L21.2437 18.508L21.0458 18.6183L20.853 18.7134L20.6652 18.7951L20.4817 18.8625L20.3032 18.9155L20.1297 18.9568L19.9613 18.982L19.7971 18.9938L19.6388 18.993L19.4855 18.977L19.3365 18.9484L19.1925 18.9046L18.9929 18.8187L18.8111 18.7058L18.6452 18.5661L18.4961 18.4002L16.5468 15.9035L16.4163 15.7183L16.3161 15.5288L16.2428 15.336L16.1974 15.1407L16.1797 14.9411L16.1906 14.739L16.2302 14.5327L16.2976 14.3222L16.3927 14.1092L16.5173 13.8928L16.6672 13.6721L16.8474 13.449L17.0563 13.2225L17.2912 12.9918L17.5556 12.7585L17.8478 12.5202L19.3584 11.3397L19.6278 11.1342L19.8847 10.9498L20.128 10.7848L20.3579 10.6425L20.576 10.5187L20.7797 10.4168L20.9709 10.3368L21.1477 10.2762L21.4146 10.2147L21.6698 10.1945L21.9148 10.2114L22.1481 10.2695L22.3687 10.3655L22.5792 10.5019L22.7779 10.6753L22.9657 10.89L24.9142 13.3833Z" fill="white" stroke="#CC965A" stroke-width="0.0597848" stroke-linecap="round" stroke-linejoin="round"/>
<path d="M23.9005 14.1497L21.979 11.6909L21.9083 11.6126L21.8299 11.5486L21.7457 11.4964L21.6548 11.461L21.5554 11.4391L21.4493 11.4307L21.3365 11.4391L21.2161 11.4594L21.0873 11.4939L20.9542 11.5419L20.8111 11.6067L20.6629 11.6833L20.5071 11.7743L20.3446 11.8804L20.1737 11.9999L19.9968 12.1347L18.4837 13.3161L18.3102 13.4575L18.1519 13.5939L18.0096 13.727L17.8808 13.8566L17.7696 13.9821L17.6736 14.1042L17.592 14.2238L17.528 14.34L17.4783 14.4528L17.4438 14.5606L17.4244 14.6658L17.4219 14.7677L17.4337 14.8662L17.4623 14.9606L17.5061 15.0515L17.5659 15.1391L19.4874 17.5978L19.5564 17.6744L19.6314 17.7359L19.7147 17.7848L19.8048 17.8193L19.9042 17.8378L20.0086 17.8437L20.1215 17.8361L20.241 17.8125L20.3682 17.7763L20.5029 17.7267L20.6435 17.6618L20.7926 17.5835L20.9492 17.49L21.1125 17.3831L21.2835 17.2627L21.462 17.128L22.9785 15.9432L23.1511 15.8034L23.3077 15.6687L23.4509 15.5374L23.5772 15.4085L23.6892 15.2831L23.7843 15.1626L23.8643 15.0448L23.93 14.9302L23.9805 14.8208L24.015 14.7138L24.0336 14.6111L24.0386 14.5117L24.026 14.4166L23.999 14.324L23.9586 14.2347L23.9005 14.1497Z" fill="#CC965A" stroke="#CC965A" stroke-width="0.0597848" stroke-linecap="round" stroke-linejoin="round"/>
<path d="M18.0593 20.3613L18.2252 20.5011L18.343 20.6417L18.4121 20.7874L18.4323 20.9347L18.4146 21.0493L18.3691 21.1764L18.2942 21.3204L18.1889 21.477L18.1317 21.5385L18.0483 21.5915L17.9431 21.6353L17.8134 21.6732L17.7831 21.6791L17.7283 21.69L17.6517 21.7027L17.5498 21.7187L10.187 23.5291L14.1017 26.3625L14.1834 26.4299L14.2448 26.4989L14.2869 26.5722L14.3088 26.6471L14.3122 26.7254L14.2962 26.8071L14.2617 26.8922L14.2069 26.9797L13.9922 27.2761L13.9282 27.3544L13.8592 27.4142L13.7884 27.4546L13.7135 27.4749L13.6369 27.4782L13.5552 27.4605L13.4718 27.426L13.3843 27.3713L8.62338 23.9248L8.54507 23.844L8.49455 23.7337L8.47266 23.5947L8.47687 23.4272L8.51307 23.2672L8.59307 23.1198L8.6798 23.0196L8.78758 22.927L8.91641 22.842L9.06798 22.7636L9.22039 22.7013L9.36269 22.6575L16.5689 20.811L12.7805 18.0684L12.7039 18.0044L12.6441 17.9354L12.6054 17.8647L12.5852 17.7897L12.5818 17.7131L12.5986 17.6314L12.6349 17.5481L12.6896 17.4605L12.9018 17.1691L12.9675 17.0891L13.0365 17.0294L13.1072 16.9889L13.1822 16.9654L13.2588 16.9637L13.3405 16.9797L13.423 17.0134L13.5097 17.0689L18.0593 20.3613Z" fill="white" stroke="#CC965A" stroke-width="0.0597848" stroke-linecap="round" stroke-linejoin="round"/>
<path d="M11.3059 28.2496L11.5206 28.3456L11.7101 28.4618L11.8776 28.5949L12.0225 28.7465L12.1429 28.9191L12.2397 29.1085L12.3138 29.3174L12.3635 29.5447L12.3904 29.7923L12.3938 30.0567L12.3744 30.3404L12.3306 30.6427L12.2633 30.9661L12.174 31.3063L12.0595 31.665L11.9231 32.0422L11.3008 33.6648L11.1855 33.9578L11.0659 34.2332L10.9472 34.4908L10.8268 34.73L10.7055 34.9531L10.5817 35.1586L10.4579 35.3464L10.3325 35.5156L10.2045 35.6672L10.0773 35.8019L9.94683 35.9181L9.81547 36.0166L9.68411 36.0983L9.55107 36.1631L9.4155 36.2094L9.27993 36.2381L9.06942 36.249L8.83786 36.2254L8.58188 36.1673L8.30316 36.073L4.10139 34.4605L4.00708 34.4167L3.93046 34.3671L3.87235 34.3106L3.83025 34.2441L3.80668 34.1742L3.80078 34.0942L3.81173 34.0075L3.83952 33.9157L3.96329 33.5907L4.00624 33.5014L4.05592 33.4299L4.11402 33.3743L4.1797 33.3373L4.25464 33.317L4.338 33.3137L4.42894 33.328L4.52915 33.3591L8.69976 34.959L8.85133 35.0045L8.99869 35.0205L9.14352 35.0079L9.28414 34.9666L9.42055 34.8984L9.55359 34.799L9.68411 34.6727L9.81041 34.5169L9.87862 34.4184L9.94683 34.3056L10.0176 34.1768L10.0917 34.0345L10.1649 33.8778L10.2399 33.7069L10.319 33.5208L10.3973 33.3196L11.0204 31.6961L11.0987 31.4864L11.1695 31.2903L11.2292 31.1101L11.2806 30.9425L11.3236 30.7884L11.3572 30.6495L11.3808 30.524L11.3968 30.4128L11.4078 30.215L11.3951 30.0348L11.3623 29.8739L11.3059 29.7308L11.2276 29.607L11.1274 29.5018L11.0053 29.4142L10.8604 29.3451L6.68561 27.7419L6.59046 27.6981L6.51299 27.6484L6.45405 27.5903L6.4111 27.5247L6.38837 27.4506L6.38163 27.3706L6.39258 27.283L6.42121 27.1887L6.54499 26.8679L6.5854 26.7786L6.63593 26.7079L6.69403 26.6531L6.75971 26.6153L6.83296 26.595L6.91464 26.5917L7.00558 26.606L7.1041 26.6371L11.3059 28.2496Z" fill="white" stroke="#CC965A" stroke-width="0.0597848" stroke-linecap="round" stroke-linejoin="round"/>
<path d="M8.33611 54.7495L8.54999 54.6838L8.75629 54.6476L8.96006 54.6383L9.15794 54.6568L9.35077 54.704L9.53854 54.7789L9.72211 54.8808L9.90062 55.0122L10.0749 55.1722L10.2425 55.3591L10.405 55.5738L10.5633 55.818L10.7174 56.0891L10.8656 56.3889L11.0104 56.7165L11.1477 57.0718L11.8137 58.8856L11.9047 59.1457L11.9847 59.3958L12.0537 59.6375L12.1101 59.8707L12.1539 60.0947L12.1868 60.3094L12.2086 60.5149L12.2188 60.7128L12.2154 60.9005L12.2011 61.0791L12.1758 61.2483L12.1388 61.41L12.0899 61.5624L12.0285 61.7047L11.9569 61.8377L11.8718 61.9632L11.7312 62.1266L11.5679 62.2655L11.386 62.38L11.1822 62.471L8.22328 63.5589L8.00856 63.6245L7.79889 63.6624L7.59343 63.6734L7.39303 63.654L7.19852 63.6085L7.00906 63.5353L6.82381 63.4334L6.6453 63.3012L6.47184 63.1446L6.30259 62.9585L6.13923 62.7438L5.97924 62.5004L5.82599 62.231L5.67864 61.932L5.53465 61.6062L5.39655 61.2517L4.72882 59.4337L4.6143 59.1112L4.51578 58.8064L4.43242 58.5235L4.36506 58.2565L4.31369 58.0107L4.27917 57.7833L4.25896 57.5762L4.25391 57.3867L4.2758 57.1131L4.33222 56.8604L4.42316 56.6331L4.54694 56.426L4.70524 56.2441L4.89638 56.0849L5.12205 55.9485L5.38224 55.8357L8.33611 54.7495Z" fill="white" stroke="#CC965A" stroke-width="0.0597848" stroke-linecap="round" stroke-linejoin="round"/>
<path d="M8.75836 55.8466L5.78259 56.9421L5.68407 56.9858L5.59734 57.0423L5.5224 57.1096L5.45925 57.1879L5.40788 57.2806L5.36831 57.3824L5.34052 57.497L5.32452 57.6233L5.32031 57.7614L5.32789 57.9104L5.34642 58.0721L5.37673 58.2455L5.41883 58.4308L5.47356 58.6261L5.53924 58.835L5.61587 59.0556L6.31223 60.9459L6.39644 61.1657L6.48148 61.3678L6.56737 61.5522L6.65663 61.7215L6.74588 61.8756L6.83598 62.0103L6.92776 62.1307L7.02039 62.2326L7.1147 62.3185L7.21153 62.3892L7.30752 62.4431L7.40604 62.4785L7.50625 62.4978L7.60645 62.502L7.70834 62.4877L7.81191 62.4582L10.7877 61.3628L10.8837 61.3207L10.967 61.2659L11.0386 61.1986L11.0984 61.1202L11.1472 61.0293L11.1843 60.9274L11.2112 60.8129L11.2255 60.6858L11.2281 60.5477L11.2188 60.3978L11.1986 60.2361L11.1674 60.0618L11.1253 59.8774L11.0706 59.6795L11.0041 59.4699L10.9258 59.2484L10.2286 57.3538L10.1452 57.1357L10.061 56.9353L9.9751 56.7509L9.88669 56.5825L9.79912 56.4309L9.70986 56.2962L9.62061 56.1766L9.52967 56.0748L9.43704 55.9889L9.34273 55.9198L9.24758 55.8668L9.15159 55.8289L9.05644 55.8087L8.95792 55.8053L8.85856 55.8179L8.75836 55.8466Z" fill="#CC965A" stroke="#CC965A" stroke-width="0.0597848" stroke-linecap="round" stroke-linejoin="round"/>
<path d="M8.32465 66.5758L8.41054 66.5245L8.49222 66.4925L8.57221 66.479L8.64884 66.4832L8.72125 66.5085L8.79199 66.5506L8.85935 66.6137L8.92334 66.6937L11.4461 70.3103L11.5589 70.4686L11.6709 70.6126L11.777 70.7448L11.8823 70.8618L11.9842 70.9687L12.0827 71.0597L12.1787 71.138L12.2704 71.2037L12.3605 71.2559L12.4464 71.2946L12.5306 71.3216L12.6106 71.3325H12.6889L12.7647 71.3182L12.8363 71.2912L12.9053 71.2508L15.7388 69.2729L15.8297 69.1963L15.9022 69.107L15.9518 69.0034L15.9822 68.8872L15.9914 68.7592L15.9822 68.6178L15.951 68.4645L15.8988 68.297L15.8676 68.2153L15.8255 68.1243L15.7733 68.0225L15.711 67.9113L15.6369 67.79L15.5544 67.6604L15.4618 67.5189L15.3582 67.369L12.9491 63.9167L12.8961 63.8283L12.8632 63.7457L12.8472 63.6657L12.8506 63.5891L12.8725 63.515L12.9121 63.446L12.971 63.3803L13.0485 63.318L13.158 63.2422L13.2422 63.1908L13.3255 63.158L13.4038 63.1437L13.4788 63.1487L13.5529 63.1715L13.6219 63.2144L13.6893 63.275L13.7516 63.355L16.1548 66.7981L16.2592 66.9489L16.3535 67.0895L16.4394 67.2183L16.5177 67.3379L16.5851 67.4457L16.6432 67.5425L16.6937 67.6292L16.7341 67.7042L16.8469 67.9517L16.9362 68.2026L17.0019 68.4595L17.0448 68.7197L17.06 68.974L17.0507 69.2123L17.0128 69.4312L16.9505 69.635L16.8596 69.8227L16.7417 69.9937L16.5994 70.1478L16.4284 70.2842L13.6329 72.2335L13.4981 72.3169L13.3584 72.3792L13.2127 72.4263L13.0611 72.4533L12.9028 72.4625L12.7378 72.4516L12.5668 72.4246L12.3917 72.3775L12.0953 72.263L11.8149 72.1131L11.5497 71.9228L11.2987 71.6963L11.1581 71.5439L11.0032 71.3578L10.8339 71.1346L10.6504 70.8795L8.12088 67.2545L8.06783 67.1669L8.03331 67.0819L8.01562 67.0002L8.01899 66.9236L8.0392 66.8503L8.08046 66.7813L8.13772 66.7156L8.21519 66.6525L8.32465 66.5758Z" fill="white" stroke="#CC965A" stroke-width="0.0597848" stroke-linecap="round" stroke-linejoin="round"/>
<path d="M18.5768 70.7935L18.6568 70.7262L18.7351 70.6799L18.8134 70.6512L18.8934 70.642L18.97 70.6529L19.0483 70.6841L19.1266 70.7346L19.2041 70.8053L19.4626 71.0714L19.53 71.1497L19.5771 71.2297L19.6049 71.308L19.6125 71.3863L19.6016 71.4646L19.5721 71.5413L19.5224 71.6196L19.4517 71.697L15.1699 75.8449L15.0916 75.9123L15.0133 75.9594L14.935 75.9864L14.8567 75.9957L14.7792 75.9847L14.7009 75.9536L14.6243 75.903L14.5476 75.834L14.2891 75.5679L14.2218 75.4879L14.1729 75.4096L14.1451 75.3296L14.1367 75.2513L14.1468 75.1747L14.1763 75.0964L14.226 75.0189L14.295 74.9423L18.5768 70.7935Z" fill="white" stroke="#CC965A" stroke-width="0.0597848" stroke-linecap="round" stroke-linejoin="round"/>
<path d="M16.312 76.7898L16.381 76.7131L16.4518 76.6534L16.525 76.6146L16.6 76.5953L16.6783 76.5944L16.7583 76.6129L16.84 76.6508L16.925 76.7072L19.0562 78.3619L22.3629 74.0995L22.4319 74.0203L22.5044 73.963L22.5793 73.9235L22.6559 73.9033H22.7342L22.8176 73.9235L22.9018 73.963L22.9885 74.0203L23.2858 74.251L23.3641 74.3218L23.4239 74.3933L23.4634 74.4674L23.482 74.5441V74.624L23.4634 74.7057L23.4239 74.7899L23.3658 74.8767L20.0591 79.1391L22.2189 80.8147L22.2955 80.8838L22.3536 80.9537L22.3924 81.0278L22.4117 81.1027V81.1827L22.3924 81.2627L22.3536 81.346L22.2955 81.4319L22.2113 81.5414L22.1423 81.6189L22.0715 81.6761L21.9991 81.714L21.9242 81.7325H21.8459L21.7642 81.714L21.6808 81.6761L21.5966 81.6189L16.3053 77.5139L16.2286 77.4449L16.1705 77.3741L16.1318 77.3009L16.1133 77.2259V77.1476L16.1318 77.0676L16.1697 76.9843L16.227 76.9001L16.312 76.7898Z" fill="white" stroke="#CC965A" stroke-width="0.0597848" stroke-linecap="round" stroke-linejoin="round"/>
<path d="M25.3341 79.9145L25.4032 79.7925L25.4545 79.7125L25.5126 79.6485L25.575 79.6013L25.644 79.5702L25.7164 79.5542L25.7947 79.5558L25.8772 79.5727L25.9673 79.6072L31.3867 82.1106L31.8658 81.0732L31.897 80.9898L31.9164 80.9065L31.9206 80.8223L31.9113 80.7389L31.8877 80.6564L31.8507 80.573L31.8002 80.488L31.7362 80.4055L31.6587 80.3221L31.5669 80.2387L31.4617 80.1562L31.3429 80.0729L31.209 79.9886L31.0634 79.9053L30.9034 79.8219L30.7299 79.7394L26.7555 77.9021L26.6662 77.8541L26.5938 77.7993L26.5408 77.7362L26.5046 77.6688L26.486 77.5939V77.5122L26.5046 77.4246L26.5408 77.3303L26.5972 77.2082L26.6452 77.119L26.7008 77.0482L26.7614 76.9969L26.8304 76.9607L26.9054 76.943L26.9871 76.9447L27.0746 76.964L27.1706 76.9994L31.1846 78.8536L31.2831 78.9007L31.3909 78.9571L31.5088 79.0228L31.636 79.0978L31.8692 79.2443L32.0822 79.39L32.2767 79.5373L32.4494 79.6855L32.6026 79.8362L32.7373 79.9886L32.8502 80.1402L32.9445 80.2943L33.0177 80.4492L33.0725 80.6042L33.1053 80.7608L33.1196 80.9191L33.1154 81.0791L33.0885 81.2408L33.043 81.4016L32.9773 81.5649L31.5543 84.646L31.4414 84.8497L31.3033 85.0257L31.14 85.1731L30.9522 85.2918L30.7392 85.3811L30.5009 85.4442L30.239 85.4771L29.951 85.4813L29.7473 85.4686L29.5401 85.4442L29.3305 85.4063L29.1157 85.3558L28.896 85.2935L28.6737 85.2169L28.4463 85.1285L28.2156 85.0266L27.1201 84.5222L27.0308 84.4733L26.9593 84.4186L26.9054 84.358L26.87 84.2889L26.8523 84.2148V84.134L26.87 84.0473L26.9054 83.9538L26.9618 83.8292L27.0106 83.7399L27.0654 83.67L27.1285 83.6162L27.1976 83.5808L27.2725 83.5631L27.3542 83.5648L27.4418 83.5833L27.5369 83.6195L28.677 84.145L28.9978 84.2687L29.2782 84.3656L29.5292 84.4296L29.7532 84.4624L29.9494 84.4616L30.1152 84.4279L30.2533 84.3639L30.3645 84.2654L30.4462 84.1348L30.9649 83.0116L25.5438 80.5073L25.447 80.4551L25.3695 80.3962L25.3131 80.3314L25.2777 80.2598L25.2617 80.1823L25.2651 80.0998L25.2903 80.0105L25.3341 79.9145Z" fill="white" stroke="#CC965A" stroke-width="0.0597848" stroke-linecap="round" stroke-linejoin="round"/>
<path d="M32.9118 86.4336L32.9396 86.3334L32.9775 86.2484L33.0272 86.181L33.087 86.1296L33.156 86.0934L33.2377 86.0749L33.3286 86.0732L33.4305 86.0875L36.0989 86.65L37.2121 81.3679L37.2399 81.2677L37.2778 81.1835L37.3266 81.1161L37.3856 81.0639L37.4546 81.0286L37.5346 81.0092L37.6255 81.0075L37.7258 81.0218L38.0836 81.0968L38.1805 81.1254L38.2638 81.1633L38.3278 81.213L38.3775 81.2728L38.4112 81.3443L38.4297 81.426V81.5186L38.4154 81.6222L37.303 86.9035L39.9807 87.4676L40.0818 87.4963L40.1643 87.535L40.23 87.5838L40.2822 87.6453L40.3167 87.7152L40.3335 87.7985L40.3352 87.8912L40.3209 87.9948L40.2914 88.1312L40.2628 88.2314L40.2258 88.3139L40.1752 88.3796L40.1163 88.4318L40.0456 88.4663L39.9656 88.4831L39.873 88.4848L39.7711 88.4705L33.22 87.0921L33.1215 87.0635L33.0381 87.0247L32.9708 86.9759L32.9211 86.9161L32.8866 86.8454L32.8689 86.7645L32.8672 86.6719L32.8815 86.57L32.9118 86.4336Z" fill="white" stroke="#CC965A" stroke-width="0.0597848" stroke-linecap="round" stroke-linejoin="round"/>
<path d="M42.4023 83.5454L42.4133 83.2709L42.4588 83.0217L42.5362 82.7977L42.6457 82.5981L42.788 82.423L42.9657 82.2739L43.1736 82.1485L43.4153 82.0483L43.5955 81.9935L43.7926 81.9447L44.009 81.9026L44.2422 81.8664L44.4914 81.8386L44.7601 81.8167L45.0463 81.8007L45.3486 81.7915L49.643 81.7098L49.7449 81.7148L49.8342 81.7334L49.91 81.7662L49.9723 81.8117L50.0211 81.8731L50.0556 81.9464L50.0775 82.034L50.0868 82.1358L50.0902 82.2706L50.0851 82.3725L50.0666 82.4609L50.0337 82.5358L49.9866 82.5981L49.9251 82.647L49.8519 82.6815L49.7626 82.7034L49.6607 82.7126L45.3394 82.796L45.128 82.8019L44.9301 82.8145L44.7474 82.8305L44.5765 82.8524L44.4199 82.8794L44.2767 82.9105L44.1487 82.9467L44.0342 82.9888L43.9323 83.036L43.8448 83.0874L43.7707 83.1438L43.71 83.2052L43.6629 83.2709L43.6317 83.3433L43.6107 83.42L43.6065 83.5008L43.6191 84.1189L43.6267 84.2047L43.6486 84.2864L43.6848 84.3614L43.7336 84.4304L43.7942 84.4936L43.8692 84.5508L43.9593 84.6013L44.0612 84.6468L44.1765 84.6872L44.3054 84.7218L44.4477 84.7487L44.6043 84.7723L44.7735 84.7883L44.9554 84.7992L45.1516 84.8034L45.3613 84.8017L47.0117 84.7706L47.3923 84.7689L47.7484 84.7815L48.0794 84.8068L48.3876 84.8447L48.6696 84.8944L48.9281 84.9584L49.1639 85.0358L49.3736 85.1251L49.5605 85.2287L49.7213 85.3423L49.8594 85.4712L49.9723 85.6135L50.0615 85.7676L50.1255 85.9351L50.1668 86.117L50.1819 86.3098L50.192 86.8108L50.1811 87.0685L50.1365 87.3034L50.0615 87.5198L49.9538 87.7135L49.8123 87.8895L49.6388 88.0428L49.4334 88.1775L49.1951 88.2903L49.0208 88.3535L48.8279 88.4065L48.6132 88.4554L48.38 88.4941L48.1248 88.5269L47.8487 88.5505L47.5539 88.5699L47.2373 88.5791L46.6092 88.5901L46.5056 88.585L46.4163 88.5665L46.3414 88.5353L46.2782 88.4899L46.2286 88.4301L46.194 88.3568L46.1722 88.2684L46.162 88.1682L46.1595 88.0318L46.1637 87.9299L46.1839 87.8407L46.2176 87.7657L46.2639 87.7026L46.3254 87.6546L46.402 87.6184L46.4913 87.5965L46.5949 87.5872L47.2483 87.5746L47.4596 87.5678L47.6592 87.5552L47.8436 87.5384L48.0145 87.5165L48.1712 87.4878L48.316 87.455L48.444 87.4163L48.5602 87.3725L48.6621 87.3237L48.7496 87.2706L48.8237 87.2108L48.8844 87.1468L48.9315 87.0761L48.9644 87.0011L48.9837 86.9212L48.9879 86.8344L48.9787 86.3646L48.9644 86.2576L48.9273 86.1625L48.8642 86.0774L48.7783 86.0025L48.668 85.9368L48.5332 85.8821L48.3749 85.8383L48.1939 85.8038L48.1088 85.7928L48.0086 85.7827L47.8941 85.7768L47.7653 85.7718L47.6213 85.7692L47.4613 85.7676L47.2879 85.7692L47.0992 85.7718L45.4278 85.8038H45.1533L44.8897 85.7937L44.6371 85.7751L44.3963 85.7457L44.1639 85.7061L43.9416 85.6581L43.7319 85.5983L43.5307 85.5293L43.2739 85.4164L43.0499 85.2859L42.8604 85.1402L42.7038 84.9777L42.5817 84.7992L42.4916 84.603L42.4369 84.3917L42.415 84.1626L42.4023 83.5454Z" fill="white" stroke="#CC965A" stroke-width="0.0597848" stroke-linecap="round" stroke-linejoin="round"/>
<path d="M52.1058 84.8985L52.078 84.7546L52.0654 84.656L52.067 84.5668L52.0839 84.4868L52.1159 84.4161L52.1613 84.3563L52.2203 84.3066L52.2961 84.2653L52.3853 84.2342L58.1213 82.6874L57.8249 81.5902L57.7954 81.506L57.7559 81.4302L57.7062 81.3645L57.6464 81.3064L57.574 81.2567L57.4923 81.2172L57.4022 81.1843L57.3003 81.1624L57.1875 81.1481L57.0629 81.1422L56.9298 81.1456L56.7858 81.1574L56.6309 81.1801L56.4659 81.2079L56.2907 81.2475L56.1038 81.2938L51.8978 82.4288L51.7976 82.4491L51.7083 82.4524L51.6266 82.4381L51.5542 82.4053L51.4936 82.3581L51.4397 82.2924L51.3976 82.2091L51.3631 82.1089L51.326 81.9741L51.305 81.8706L51.3008 81.7771L51.3134 81.6937L51.3429 81.6205L51.39 81.5557L51.4523 81.5026L51.5323 81.4588L51.6283 81.426L55.8975 80.2758L56.0036 80.2488L56.1231 80.2219L56.2545 80.1974L56.4002 80.1722L56.673 80.1343L56.9298 80.109L57.1732 80.0981L57.4022 80.1015L57.6161 80.1191L57.8156 80.1486L58 80.1941L58.171 80.2505L58.3276 80.3221L58.4691 80.4071L58.5962 80.5073L58.709 80.6185L58.8059 80.7456L58.8892 80.8854L58.9583 81.0386L59.013 81.2062L59.898 84.4868L59.9426 84.715L59.9485 84.9398L59.9191 85.1571L59.85 85.3693L59.7448 85.5755L59.6024 85.776L59.4222 85.9705L59.2042 86.1591L59.0391 86.2795L58.8657 86.3923L58.6787 86.4993L58.4817 86.5978L58.2729 86.6904L58.0539 86.7746L57.8215 86.8512L57.5807 86.922L56.4162 87.2369L56.316 87.2571L56.2267 87.2588L56.145 87.2445L56.0726 87.2133L56.012 87.1653L55.9581 87.1005L55.916 87.018L55.8815 86.9186L55.8453 86.7822L55.8251 86.6795L55.8208 86.5852L55.8326 86.5001L55.8629 86.4269L55.9084 86.3637L55.9707 86.3107L56.0507 86.2669L56.1467 86.234L57.3567 85.9065L57.6826 85.797L57.9596 85.6934L58.1946 85.584L58.3874 85.4695L58.5381 85.3482L58.6459 85.2219L58.7133 85.0897L58.7368 84.9516L58.7183 84.8076L58.416 83.6843L52.6514 85.2387L52.5436 85.2606L52.4476 85.264L52.3618 85.2497L52.2877 85.2152L52.2253 85.1638L52.1748 85.0947L52.1344 85.0055L52.1058 84.8985Z" fill="white" stroke="#CC965A" stroke-width="0.0597848" stroke-linecap="round" stroke-linejoin="round"/>
<path d="M66.1992 77.6916L66.0686 77.5114L65.9668 77.3261L65.8935 77.1367L65.8497 76.9438L65.832 76.7451L65.843 76.543L65.8826 76.3376L65.9499 76.1262L66.0459 75.9115L66.1697 75.69L66.3213 75.4661L66.5031 75.2387L66.712 75.0055L66.9486 74.7689L67.213 74.5272L67.506 74.2813L69.0124 73.0654L69.2297 72.8945L69.4419 72.7387L69.6498 72.5964L69.8519 72.4676L70.0515 72.3539L70.2443 72.2528L70.4338 72.167L70.6173 72.0937L70.7959 72.0356L70.9693 71.9918L71.1386 71.9598L71.3036 71.9447L71.4636 71.9413L71.6185 71.9539L71.7676 71.9792L71.9132 72.0179L72.1136 72.0996L72.2989 72.2074L72.4648 72.3438L72.6155 72.5071L74.5918 74.9566L74.7231 75.1385L74.8267 75.3263L74.9016 75.5157L74.9488 75.7119L74.9673 75.9115L74.9581 76.1144L74.9193 76.3216L74.8536 76.5329L74.7593 76.7493L74.6372 76.9691L74.4865 77.1948L74.3063 77.4221L74.0992 77.6554L73.8642 77.892L73.5998 78.1336L73.3077 78.3778L71.797 79.5971L71.5276 79.8085L71.2708 79.9996L71.0274 80.1705L70.7975 80.3196L70.5794 80.4467L70.3757 80.5545L70.1845 80.6412L70.006 80.7052L69.7383 80.7726L69.4823 80.8004L69.2364 80.7894L69.0015 80.7381L68.7775 80.6471L68.5653 80.5175L68.3632 80.3482L68.1721 80.1377L66.1992 77.6916Z" fill="white" stroke="#CC965A" stroke-width="0.0597848" stroke-linecap="round" stroke-linejoin="round"/>
<path d="M67.123 76.9876L69.0538 79.3807L69.1262 79.4573L69.2045 79.5188L69.2904 79.5659L69.3847 79.5971L69.4866 79.6148L69.5961 79.6173L69.714 79.6047L69.8377 79.5769L69.9691 79.5365L70.1089 79.4792L70.2562 79.4076L70.4112 79.3217L70.5745 79.2207L70.7438 79.1053L70.9223 78.9748L71.1067 78.8291L72.688 77.5535L72.8699 77.4027L73.0366 77.2554L73.1865 77.1131L73.3196 76.975L73.4375 76.8402L73.5393 76.7123L73.6236 76.5868L73.6926 76.4655L73.7465 76.3502L73.7835 76.2373L73.8046 76.1304L73.8088 76.0268L73.7979 75.9283L73.7709 75.8323L73.7271 75.7431L73.6682 75.6572L71.7374 73.2641L71.6683 73.19L71.5909 73.1311L71.505 73.0873L71.4124 73.057L71.3122 73.0418H71.2044L71.0882 73.0553L70.9644 73.0839L70.833 73.1277L70.6933 73.1858L70.5459 73.2591L70.391 73.3458L70.2276 73.4477L70.0584 73.5647L69.8798 73.6969L69.6938 73.8426L68.1074 75.1225L67.9272 75.2732L67.763 75.4172L67.6139 75.5587L67.4809 75.6951L67.363 75.8281L67.2628 75.9553L67.1761 76.079L67.1079 76.1961L67.054 76.3106L67.0169 76.4218L66.995 76.527L66.9883 76.6272L66.9975 76.724L67.0245 76.8167L67.0649 76.9051L67.123 76.9876Z" fill="#CC965A" stroke="#CC965A" stroke-width="0.0597848" stroke-linecap="round" stroke-linejoin="round"/>
<path d="M72.9433 70.6386L72.7775 70.4989L72.6596 70.3566L72.5905 70.2117L72.5703 70.0652L72.5872 69.9507L72.6326 69.8219L72.7084 69.6796L72.8128 69.5229L72.8726 69.4615L72.9543 69.4084L73.0612 69.3646L73.1892 69.3267L73.2204 69.32L73.2743 69.3091L73.3526 69.2973L73.4528 69.2813L80.8156 67.4709L76.9009 64.6374L76.8192 64.5701L76.7578 64.501L76.7157 64.4278L76.6938 64.352L76.6904 64.2737L76.7064 64.1928L76.7409 64.1078L76.7957 64.0202L77.0104 63.7238L77.0761 63.6455L77.1434 63.5857L77.2158 63.5453L77.2891 63.5251L77.3674 63.5217L77.4474 63.5386L77.5324 63.5731L77.6183 63.6287L82.3792 67.0743L82.4575 67.156L82.5081 67.2654L82.5299 67.4052L82.5249 67.5728L82.4895 67.7328L82.4095 67.8801L82.3228 67.9803L82.215 68.0729L82.0862 68.1572L81.9346 68.2355L81.7839 68.2986L81.6399 68.3424L74.4337 70.189L78.2221 72.9315L78.2987 72.9955L78.3576 73.0646L78.3972 73.1353L78.4191 73.2085L78.4208 73.2869L78.4031 73.3685L78.3677 73.4519L78.3122 73.5395L78.1008 73.8308L78.0351 73.9108L77.9661 73.9706L77.8954 74.011L77.8204 74.0329L77.7438 74.0363L77.6621 74.0203L77.5788 73.9857L77.4929 73.931L72.9433 70.6386Z" fill="white" stroke="#CC965A" stroke-width="0.0597848" stroke-linecap="round" stroke-linejoin="round"/>
<path d="M79.7794 62.7327L79.5647 62.6384L79.3735 62.5256L79.206 62.3942L79.062 62.2435L78.9399 62.0742L78.8405 61.8848L78.7656 61.6785L78.7142 61.4511L78.6856 61.2061L78.6797 60.9417L78.6965 60.6596L78.7378 60.3573L78.8001 60.0357L78.8877 59.6955L78.998 59.3368L79.131 58.9587L79.7373 57.3369L79.8501 57.0439L79.9663 56.7677L80.0825 56.5109L80.2012 56.2701L80.32 56.0469L80.4412 55.8415L80.5633 55.6537L80.6871 55.4828L80.8126 55.3312L80.9397 55.1965L81.0677 55.0786L81.1982 54.9784L81.3279 54.8967L81.4609 54.831L81.5948 54.7839L81.7312 54.7544L81.9392 54.7418L82.1716 54.762L82.4251 54.8184L82.7038 54.9093L86.9056 56.4814L86.9999 56.5235L87.0765 56.5724L87.1363 56.6288L87.1784 56.6928L87.202 56.7652L87.2095 56.8435L87.1986 56.9294L87.1725 57.022L87.0512 57.3462L87.0108 57.4354L86.9603 57.5079L86.903 57.5626L86.8365 57.6022L86.7633 57.6224L86.6799 57.6266L86.589 57.6131L86.4888 57.5828L82.3181 56.0233L82.1666 55.9796L82.0192 55.9652L81.8769 55.9779L81.7371 56.0208L81.6007 56.0907L81.4694 56.1901L81.3405 56.3181L81.2168 56.473L81.1494 56.5724L81.082 56.6852L81.0113 56.8132L80.9406 56.9546L80.8673 57.1129L80.7932 57.2839L80.7183 57.47L80.6416 57.6704L80.0354 59.2947L79.9579 59.5043L79.8905 59.7005L79.8316 59.8824L79.7811 60.0483L79.7407 60.2032L79.7078 60.343L79.6842 60.4685L79.6699 60.5796L79.6607 60.7767L79.675 60.956L79.7095 61.1152L79.7668 61.2566L79.8451 61.3804L79.9461 61.484L80.0699 61.5699L80.2139 61.6372L84.3887 63.2L84.4847 63.2421L84.5613 63.2927L84.6211 63.3499L84.6632 63.4148L84.6885 63.4863L84.6961 63.5663L84.6851 63.6547L84.6565 63.7482L84.5377 64.0699L84.4973 64.1591L84.4485 64.2299L84.3904 64.2846L84.3264 64.3216L84.2523 64.3435L84.1698 64.3469L84.0797 64.3343L83.9812 64.3048L79.7794 62.7327Z" fill="white" stroke="#CC965A" stroke-width="0.0597848" stroke-linecap="round" stroke-linejoin="round"/>
<path d="M29.7188 47.8101V47.5516" stroke="#CC965A" stroke-width="0.0597848" stroke-linecap="round" stroke-linejoin="round"/>
<path d="M52.9927 63.5571L54.7635 63.5209L56.4206 63.4139L57.9565 63.2354L59.3854 62.9786L60.6999 62.6569L61.8998 62.2637L62.9852 61.7922L63.9493 61.2499L64.8065 60.6428L65.5492 59.9565L66.1782 59.1995L66.6927 58.371L67.0926 57.4708L67.3781 56.5L67.549 55.4567L67.6063 54.3426V29.772L67.5566 29.1143L67.3991 28.5855L67.1347 28.1788L66.771 27.8934L66.3062 27.693L65.742 27.5574L65.0919 27.4715L64.3493 27.4429L63.578 27.4715L62.9136 27.5498L62.3427 27.693L61.8779 27.8858L61.5065 28.1712L61.2421 28.5788L61.0855 29.1076L61.035 29.7644V54.2214L61.0064 54.6071L60.9137 54.9851L60.7639 55.343L60.5491 55.6857L60.2713 56.0208L59.9353 56.3425L59.5421 56.6423L59.0857 56.9353L58.5636 57.1997L57.9641 57.4355L57.2854 57.6283L56.5351 57.7857L55.7142 57.9137L54.814 57.9996L53.8423 58.0569L52.7923 58.0712H37.9859L36.9358 58.0569L35.9574 57.9996L35.0573 57.9137L34.2354 57.7857L33.486 57.6283L32.8073 57.4355L32.207 57.1997L31.6857 56.9353L31.2285 56.6423L30.8353 56.3425L30.5001 56.0208L30.2214 55.6857L30.0067 55.343L29.8568 54.9851L29.7642 54.6071L29.7356 54.2214V29.7644L29.6859 29.1076L29.5284 28.5788L29.264 28.1712L28.9003 27.8858L28.4287 27.693L27.857 27.5498L27.1926 27.4715L26.4289 27.4429L25.6854 27.4715L25.0361 27.5574L24.4787 27.693L24.0148 27.8934L23.6426 28.1788L23.379 28.5855L23.2216 29.1143L23.1719 29.772V54.3426L23.2283 55.4567L23.4001 56.5L23.6855 57.4708L24.0855 58.371L24.6 59.1995L25.229 59.9565L25.9717 60.6428L26.8213 61.2499L27.793 61.7922L28.8784 62.2637L30.0783 62.6569L31.3927 62.9786L32.8216 63.2354L34.3567 63.4139L36.0138 63.5209L37.7855 63.5571H52.9927Z" fill="#CC965A" stroke="#CC965A" stroke-width="0.0597848" stroke-linecap="round" stroke-linejoin="round"/>
<path d="M54.6076 27.4378L55.1221 27.4807L55.544 27.602L55.8505 27.8024L56.0652 28.0879L56.2075 28.4449L56.3077 28.8811L56.3649 29.388L56.3868 29.9732L56.3649 30.5592L56.3077 31.0662L56.2075 31.4947L56.0652 31.845L55.8505 32.1162L55.544 32.309L55.1221 32.4311L54.6076 32.4665H36.044L35.5295 32.4311L35.1152 32.309L34.8012 32.1162L34.5864 31.845L34.4441 31.4947L34.3439 31.0662L34.2867 30.5592L34.2656 29.9732L34.2867 29.388L34.3439 28.8811L34.4441 28.4449L34.5864 28.0879L34.8012 27.8024L35.1152 27.602L35.5295 27.4807L36.044 27.4378H54.6076Z" fill="#CC965A" stroke="#CC965A" stroke-width="0.0597848" stroke-linecap="round" stroke-linejoin="round"/>
<path d="M36.0987 37.7562L35.5842 37.7991L35.1632 37.9204L34.8559 38.1208L34.642 38.4062L34.4988 38.7632L34.3986 39.1986L34.3414 39.7063L34.3203 40.2915L34.3414 40.8776L34.3986 41.3845L34.4988 41.8131L34.642 42.1634L34.8559 42.4345L35.1632 42.6274L35.5842 42.7486L36.0987 42.7848H54.6631L55.1768 42.7486L55.5911 42.6274L55.906 42.4345L56.1199 42.1634L56.263 41.8131L56.3624 41.3845L56.4196 40.8776L56.4415 40.2915L56.4196 39.7063L56.3624 39.1986L56.263 38.7632L56.1199 38.4062L55.906 38.1208L55.5911 37.9204L55.1768 37.7991L54.6631 37.7562H36.0987Z" fill="#CC965A" stroke="#CC965A" stroke-width="0.0597848" stroke-linecap="round" stroke-linejoin="round"/>
<path d="M36.0987 48.0745L35.5842 48.1174L35.1632 48.2387L34.8559 48.4382L34.642 48.7245L34.4988 49.0815L34.3986 49.5169L34.3414 50.0246L34.3203 50.6098L34.3414 51.1959L34.3986 51.7028L34.4988 52.1314L34.642 52.4817L34.8559 52.7528L35.1632 52.9457L35.5842 53.0669L36.0987 53.1031H54.6631L55.1768 53.0669L55.5911 52.9457L55.906 52.7528L56.1199 52.4817L56.263 52.1314L56.3624 51.7028L56.4196 51.1959L56.4415 50.6098L56.4196 50.0246L56.3624 49.5169L56.263 49.0815L56.1199 48.7245L55.906 48.4382L55.5911 48.2387L55.1768 48.1174L54.6631 48.0745H36.0987Z" fill="#CC965A" stroke="#CC965A" stroke-width="0.0597848" stroke-linecap="round" stroke-linejoin="round"/>
</g>
<defs>
<clipPath id="clip0_16091_4894">
<rect width="91" height="91" fill="white"/>
</clipPath>
</defs>
</svg>
