<svg width="11" height="79" viewBox="0 0 11 79" fill="none" xmlns="http://www.w3.org/2000/svg">
<path id="Vector 1" d="M5.86601 0.688655C6.03791 0.163805 6.60274 -0.122316 7.12759 0.049584C7.65244 0.221487 7.93856 0.786317 7.76666 1.31117L5.86601 0.688655ZM9.40866 78.1898L0.154045 71.2843L10.7617 66.7223L9.40866 78.1898ZM6.26902 73.0471C5.81834 71.7931 5.39885 70.5322 5.00902 69.2664L6.92043 68.6777C7.30144 69.9149 7.7112 71.1465 8.15115 72.3706L6.26902 73.0471ZM3.9218 65.4363C3.5864 64.1486 3.27973 62.8578 3.00022 61.5662L4.95498 61.1432C5.22878 62.4085 5.52904 63.6721 5.85723 64.9322L3.9218 65.4363ZM2.23652 57.6614C2.00674 56.3505 1.8033 55.0407 1.62457 53.7343L3.60611 53.4632C3.78155 54.7456 3.98115 56.0306 4.20648 57.3161L2.23652 57.6614ZM1.15696 49.7881C1.0236 48.462 0.914321 47.1415 0.827376 45.8289L2.823 45.6967C2.90849 46.9873 3.01591 48.2851 3.14693 49.588L1.15696 49.7881ZM0.630099 41.8662C0.585242 40.5304 0.562308 39.2055 0.559398 37.8939L2.55939 37.8895C2.56226 39.1807 2.58483 40.4848 2.62897 41.7991L0.630099 41.8662ZM0.61083 33.9308C0.648419 32.5893 0.705826 31.2653 0.780886 29.9616L2.77758 30.0765C2.70362 31.3611 2.64707 32.6655 2.61005 33.9868L0.61083 33.9308ZM1.06586 26.0096C1.18231 24.6651 1.31636 23.3469 1.46539 22.0587L3.45214 22.2885C3.30528 23.5581 3.17316 24.8571 3.05839 26.1822L1.06586 26.0096ZM1.97841 18.1235C2.17405 16.7762 2.38456 15.4696 2.60644 14.2083L4.57619 14.5548C4.35774 15.7966 4.1504 17.0835 3.95765 18.4109L1.97841 18.1235ZM3.35545 10.3118C3.64088 8.9467 3.93696 7.65122 4.23799 6.43303L6.17959 6.91282C5.88448 8.10704 5.59373 9.37903 5.31311 10.7211L3.35545 10.3118ZM5.27691 2.5844C5.47425 1.91631 5.67113 1.28368 5.86601 0.688655L7.76666 1.31117C7.57824 1.88644 7.38716 2.50037 7.19499 3.15097L5.27691 2.5844Z" fill="#CC965A"/>
</svg>
