<svg width="142" height="142" viewBox="0 0 142 142" fill="none" xmlns="http://www.w3.org/2000/svg">
<g clip-path="url(#clip0_18001_745)">
<path d="M71.0002 141.953C110.187 141.953 141.954 110.186 141.954 70.9994C141.954 31.8129 110.187 0.0460205 71.0002 0.0460205C31.8138 0.0460205 0.046875 31.8129 0.046875 70.9994C0.046875 110.186 31.8138 141.953 71.0002 141.953Z" fill="black" stroke="black" stroke-width="0.0597848" stroke-linecap="round" stroke-linejoin="round"/>
<path d="M71 123.327C99.9 123.327 123.328 99.8994 123.328 70.9994C123.328 42.0993 99.9 18.6713 71 18.6713C42.1 18.6713 18.6719 42.0993 18.6719 70.9994C18.6719 99.8994 42.1 123.327 71 123.327Z" fill="white" stroke="black" stroke-width="0.0597848" stroke-linecap="round" stroke-linejoin="round"/>
<path d="M129.085 56.3817L128.753 56.4868L128.427 56.5498L128.112 56.5669L127.802 56.542L127.498 56.4736L127.205 56.3619L126.916 56.2056L126.637 56.0072L126.363 55.7654L126.099 55.479L125.842 55.1492L125.59 54.7747L125.348 54.3569L125.113 53.897L124.886 53.3924L124.666 52.8445L123.607 50.055L123.46 49.6529L123.333 49.2666L123.225 48.8934L123.136 48.5334L123.062 48.1892L123.008 47.8554L122.974 47.5374L122.957 47.2326L122.96 46.9435L122.978 46.665L123.017 46.4009L123.074 46.1512L123.15 45.916L123.245 45.694L123.358 45.4864L123.488 45.2906L123.707 45.0344L123.96 44.8136L124.243 44.6323L124.559 44.4891L129.176 42.735L129.511 42.6272L129.841 42.5641L130.161 42.5444L130.474 42.5668L130.778 42.6325L131.076 42.7428L131.365 42.8966L131.648 43.095L131.922 43.3367L132.186 43.6206L132.445 43.9477L132.697 44.3196L132.939 44.7361L133.174 45.1934L133.402 45.6966L133.621 46.2419L134.683 49.0393L134.867 49.5386L135.023 50.005L135.154 50.4452L135.265 50.8539L135.346 51.2362L135.404 51.5884L135.438 51.9076L135.446 52.202L135.415 52.6277L135.329 53.0179L135.189 53.3727L134.995 53.6959L134.751 53.9824L134.453 54.232L134.101 54.4488L133.695 54.6302L129.085 56.3817Z" fill="white" stroke="black" stroke-width="0.0597848" stroke-linecap="round" stroke-linejoin="round"/>
<path d="M128.413 54.6669L133.058 52.9036L133.211 52.8326L133.345 52.7446L133.461 52.6395L133.558 52.5146L133.64 52.3727L133.7 52.2138L133.742 52.0351L133.768 51.8393L133.774 51.6264L133.762 51.3965L133.729 51.1481L133.68 50.8814L133.615 50.5976L133.529 50.2967L133.424 49.9761L133.302 49.6384L132.201 46.7438L132.069 46.4087L131.932 46.0973L131.798 45.8135L131.658 45.5546L131.516 45.3221L131.374 45.1145L131.23 44.9331L131.084 44.7768L130.937 44.6467L130.786 44.5416L130.633 44.4641L130.48 44.4102L130.326 44.3813L130.167 44.3787L130.008 44.4023L129.846 44.4522L125.201 46.2156L125.053 46.2839L124.923 46.3693L124.813 46.4744L124.718 46.5966L124.642 46.7385L124.585 46.8975L124.544 47.0736L124.525 47.2694L124.52 47.4822L124.534 47.7122L124.567 47.9605L124.618 48.2272L124.686 48.5137L124.774 48.8172L124.88 49.1378L125.002 49.4768L126.104 52.3806L126.237 52.7131L126.371 53.0205L126.505 53.3017L126.643 53.5592L126.782 53.7918L126.921 53.9968L127.063 54.1781L127.208 54.3345L127.351 54.4632L127.498 54.5684L127.648 54.6472L127.797 54.7037L127.949 54.7326L128.103 54.7352L128.256 54.7129L128.413 54.6669Z" fill="black" stroke="black" stroke-width="0.0597848" stroke-linecap="round" stroke-linejoin="round"/>
<path d="M129.01 38.1125L128.876 38.1926L128.748 38.2425L128.624 38.2636L128.507 38.257L128.391 38.2176L128.281 38.1519L128.175 38.0533L128.076 37.9285L124.138 32.2851L123.962 32.0381L123.788 31.8121L123.623 31.6071L123.458 31.4218L123.299 31.2576L123.146 31.1157L122.996 30.9935L122.851 30.891L122.712 30.8095L122.578 30.7491L122.447 30.707L122.322 30.6873L122.2 30.69L122.081 30.7123L121.97 30.7543L121.862 30.8174L117.44 33.9039L117.299 34.0235L117.188 34.1627L117.107 34.3243L117.061 34.5057L117.046 34.7054L117.063 34.9261L117.109 35.1653L117.191 35.4268L117.239 35.5542L117.305 35.6961L117.387 35.8551L117.484 36.0259L117.599 36.2164L117.728 36.4201L117.873 36.6395L118.034 36.8747L121.794 42.2619L121.876 42.3999L121.928 42.5287L121.953 42.6535L121.947 42.7731L121.913 42.8887L121.851 42.9964L121.759 43.0989L121.639 43.1961L121.468 43.3144L121.336 43.3946L121.206 43.4458L121.084 43.4681L120.966 43.4589L120.852 43.4235L120.744 43.3578L120.639 43.2632L120.541 43.1383L116.791 37.7656L116.628 37.5304L116.481 37.3096L116.347 37.1099L116.226 36.9233L116.12 36.7552L116.029 36.6041L115.95 36.4687L115.887 36.3518L115.711 35.9655L115.572 35.5713L115.468 35.1732L115.403 34.7671L115.379 34.3703L115.393 33.9985L115.451 33.6569L115.55 33.3363L115.692 33.0446L115.874 32.7791L116.098 32.5387L116.364 32.3258L120.727 29.284L120.937 29.154L121.155 29.0541L121.382 28.9831L121.621 28.9411L121.866 28.9266L122.123 28.9411L122.39 28.9858L122.663 29.0593L123.126 29.238L123.564 29.4719L123.977 29.7676L124.368 30.1223L124.588 30.3602L124.83 30.6505L125.094 30.9987L125.381 31.3969L129.328 37.0534L129.411 37.1901L129.464 37.3228L129.492 37.4502L129.487 37.5698L129.455 37.6841L129.391 37.7919L129.3 37.8944L129.181 37.9929L129.01 38.1125Z" fill="white" stroke="black" stroke-width="0.0597848" stroke-linecap="round" stroke-linejoin="round"/>
<path d="M113.012 31.5296L112.887 31.6347L112.765 31.7083L112.643 31.753L112.521 31.7674L112.398 31.7503L112.275 31.7017L112.153 31.6229L112.033 31.5125L111.63 31.0973L111.525 30.9751L111.451 30.8503L111.408 30.7281L111.395 30.6059L111.412 30.4837L111.459 30.3641L111.536 30.2419L111.647 30.1211L118.328 23.6485L118.45 23.5434L118.573 23.4698L118.695 23.4278L118.817 23.4133L118.937 23.4304L119.059 23.479L119.18 23.5579L119.299 23.6656L119.703 24.0808L119.808 24.2056L119.884 24.3278L119.927 24.4527L119.942 24.5749L119.925 24.6944L119.879 24.8166L119.8 24.9375L119.693 25.0571L113.012 31.5296Z" fill="white" stroke="black" stroke-width="0.0597848" stroke-linecap="round" stroke-linejoin="round"/>
<path d="M116.587 21.8655L116.482 21.985L116.374 22.0783L116.261 22.1401L116.144 22.169L116.022 22.1716L115.895 22.144L115.765 22.0862L115.631 21.9982L112.206 19.4255L107.103 26.2212L106.995 26.346L106.885 26.442L106.771 26.505L106.651 26.5366L106.526 26.5418L106.399 26.5142L106.266 26.4564L106.132 26.3684L105.667 26.0202L105.545 25.9151L105.453 25.806L105.391 25.6904L105.359 25.5708V25.446L105.388 25.3185L105.447 25.1845L105.538 25.0479L110.641 18.2508L107.271 15.7201L107.152 15.615L107.058 15.5073L106.998 15.3943L106.966 15.2773L106.964 15.1578L106.993 15.0329L107.049 14.9029L107.137 14.7688L107.265 14.598L107.367 14.4771L107.475 14.3878L107.587 14.3287L107.705 14.2971H107.824L107.952 14.3234L108.081 14.3825L108.216 14.4706L116.57 20.746L116.692 20.8511L116.784 20.9589L116.846 21.0705L116.88 21.1888L116.883 21.3084L116.855 21.4332L116.8 21.562L116.713 21.6947L116.587 21.8655Z" fill="white" stroke="black" stroke-width="0.0597848" stroke-linecap="round" stroke-linejoin="round"/>
<path d="M102.535 17.0407L102.43 17.2312L102.35 17.356L102.262 17.4572L102.163 17.5295L102.058 17.5794L101.944 17.6031H101.821L101.691 17.5768L101.552 17.5255L93.0535 13.6862L92.2809 15.3969L92.2296 15.5349L92.2007 15.6716L92.1902 15.8082L92.206 15.9449L92.2401 16.0802L92.2953 16.2142L92.3742 16.3482L92.474 16.4836L92.5949 16.615L92.7381 16.7477L92.9024 16.8791L93.0876 17.0092L93.2965 17.1419L93.5265 17.2706L93.7775 17.3981L94.0494 17.5282L100.28 20.3426L100.422 20.4189L100.535 20.5016L100.618 20.5962L100.677 20.704L100.706 20.8196V20.9471L100.68 21.0837L100.626 21.2296L100.54 21.4214L100.467 21.5607L100.381 21.6697L100.285 21.7538L100.178 21.8077L100.061 21.834H99.9333L99.7967 21.8077L99.6469 21.7512L93.3596 18.9118L93.2059 18.8382L93.0364 18.7501L92.8511 18.6503L92.6501 18.5346L92.2835 18.3126L91.9484 18.0853L91.6449 17.858L91.3716 17.628L91.1298 17.3981L90.9196 17.1629L90.7383 16.929L90.5911 16.6885L90.4716 16.4494L90.3862 16.2076L90.3297 15.9619L90.3047 15.7175L90.3126 15.4679L90.3494 15.2196L90.4177 14.9673L90.5175 14.7124L92.6895 9.90462L92.8629 9.58664L93.0758 9.31071L93.3281 9.08077L93.6185 8.89551L93.9496 8.7536L94.3214 8.65242L94.7288 8.59855L95.1768 8.58936L95.4948 8.60644L95.818 8.64323L96.1478 8.69973L96.4829 8.77462L96.8245 8.87054L97.1753 8.98485L97.5288 9.12282L97.8914 9.27655L99.6061 10.0492L99.7454 10.1254L99.8571 10.2081L99.9425 10.3041L99.999 10.4092L100.029 10.5235V10.6509L100.002 10.785L99.9478 10.9321L99.8624 11.1253L99.7888 11.2646L99.7034 11.3749L99.6075 11.4577L99.501 11.5142L99.3828 11.5405H99.2553L99.1187 11.5142L98.9702 11.4577L97.1872 10.6536L96.6852 10.463L96.2477 10.3106L95.8561 10.2108L95.5092 10.1569L95.2084 10.1543L94.9521 10.1989L94.7419 10.2935L94.575 10.4355L94.4555 10.6286L93.7091 12.2842L102.2 16.1196L102.352 16.1998L102.472 16.2904L102.56 16.3903L102.619 16.5007L102.643 16.6202L102.639 16.7529L102.603 16.8922L102.535 17.0407Z" fill="white" stroke="black" stroke-width="0.0597848" stroke-linecap="round" stroke-linejoin="round"/>
<path d="M90.6113 7.06635L90.5679 7.22271L90.5088 7.35542L90.4326 7.46316L90.3406 7.54068L90.2302 7.59718L90.1028 7.6274L89.9609 7.63135L89.8019 7.61032L85.6248 6.751L83.9325 14.9934L83.8891 15.1498L83.83 15.2812L83.7538 15.3889L83.6631 15.4691L83.5567 15.5229L83.4319 15.5558L83.2899 15.5597L83.1336 15.5387L82.5752 15.4231L82.424 15.381L82.294 15.3232L82.1915 15.2444L82.1153 15.1524L82.0614 15.042L82.0351 14.9146L82.0325 14.77L82.0548 14.6084L83.7472 6.36732L79.5675 5.50931L79.4112 5.46464L79.2811 5.40683L79.176 5.32799L79.0984 5.2347L79.0446 5.12301L79.0143 4.99556L79.0117 4.85102L79.0341 4.68941L79.0787 4.47655L79.1195 4.32019L79.1812 4.19142L79.2574 4.08631L79.3494 4.00747L79.4572 3.9536L79.5846 3.92469L79.7265 3.91943L79.8855 3.94177L90.1225 6.04409L90.2762 6.08614L90.4063 6.14789L90.5114 6.22279L90.5916 6.31608L90.6454 6.42645L90.673 6.55128L90.677 6.6945L90.656 6.85349L90.6113 7.06635Z" fill="white" stroke="black" stroke-width="0.0597848" stroke-linecap="round" stroke-linejoin="round"/>
<path d="M75.8298 11.6324L75.8127 12.0607L75.7444 12.4497L75.6222 12.7992L75.4514 13.1093L75.2294 13.3839L74.9547 13.6164L74.6276 13.8122L74.2505 13.9686L73.9693 14.054L73.6618 14.1302L73.3241 14.1959L72.9615 14.2498L72.5699 14.2958L72.1521 14.3299L71.7053 14.3549L71.2323 14.3693L64.5325 14.4968L64.3735 14.4889L64.2342 14.46L64.116 14.4088L64.0187 14.3352L63.9425 14.2419L63.8886 14.1276L63.8545 13.9896L63.84 13.8306L63.8348 13.6204L63.8427 13.4614L63.8716 13.3221L63.9228 13.2052L63.9964 13.1093L64.0923 13.0344L64.2066 12.9779L64.3459 12.9437L64.5049 12.9319L71.2481 12.8018L71.5779 12.7913L71.8853 12.7729L72.1718 12.7479L72.4385 12.7138L72.6829 12.6717L72.905 12.6231L73.106 12.5666L73.2873 12.5009L73.4437 12.4273L73.5803 12.3472L73.696 12.2591L73.7906 12.1632L73.8642 12.0607L73.9128 11.9477L73.9443 11.8282L73.9522 11.7007L73.9325 10.7376L73.9207 10.6036L73.8865 10.4761L73.83 10.3592L73.7564 10.2514L73.6592 10.1529L73.5409 10.0622L73.4016 9.98468L73.2427 9.9111L73.0626 9.84935L72.8616 9.79548L72.6396 9.75474L72.3965 9.71795L72.1297 9.69299L71.8472 9.67591L71.5411 9.66933L71.2139 9.67196L68.6386 9.72058L68.0434 9.72321L67.4889 9.7035L66.9725 9.66408L66.4916 9.60495L66.0501 9.52743L65.6467 9.42625L65.2801 9.30668L64.9529 9.16741L64.6612 9.00579L64.4103 8.82709L64.1948 8.62737L64.0187 8.404L63.8794 8.16486L63.7783 7.90339L63.7152 7.61957L63.6902 7.31868L63.6758 6.53688L63.6929 6.13481L63.7612 5.76822L63.8794 5.43053L64.0503 5.12569L64.2684 4.85371L64.539 4.61457L64.8597 4.40433L65.2315 4.22826L65.5035 4.12972L65.8044 4.04431L66.1381 3.97073L66.5034 3.91029L66.9015 3.85773L67.3325 3.81963L67.7924 3.79203L68.2864 3.77758L69.2666 3.7605L69.4283 3.76838L69.5675 3.79729L69.6845 3.8459L69.783 3.91686L69.8605 4.01015L69.9144 4.12446L69.9486 4.26243L69.963 4.41879L69.9683 4.63165L69.9617 4.79064L69.9315 4.92991L69.8776 5.04686L69.8041 5.14409L69.7094 5.2203L69.5925 5.2768L69.4506 5.31096L69.289 5.32541L68.2694 5.34512L67.9382 5.35563L67.6281 5.37403L67.3391 5.40162L67.0723 5.43579L66.8279 5.47915L66.6033 5.5317L66.4035 5.59215L66.2222 5.65784L66.0632 5.73668L65.9266 5.81946L65.811 5.91275L65.715 6.01261L65.6428 6.12298L65.5915 6.23992L65.5613 6.36475L65.5547 6.50009L65.5692 7.23327L65.5915 7.39751L65.6493 7.54599L65.7479 7.68133L65.8819 7.79827L66.0527 7.89813L66.263 7.98354L66.51 8.05449L66.7938 8.10836L66.9265 8.12544L67.0829 8.13858L67.2616 8.15041L67.4639 8.15698L67.6873 8.16223H67.9356H68.2076L68.5006 8.15698L71.1101 8.10836H71.5385L71.9497 8.12282L72.3426 8.15304L72.7223 8.19902L73.081 8.26078L73.4292 8.33568L73.7564 8.42897L74.0691 8.53671L74.4712 8.71278L74.8207 8.91513L75.1164 9.14375L75.3607 9.39735L75.5513 9.67591L75.6905 9.98206L75.7773 10.3119L75.8114 10.6693L75.8298 11.6324Z" fill="white" stroke="black" stroke-width="0.0597848" stroke-linecap="round" stroke-linejoin="round"/>
<path d="M60.7369 9.58395L60.7776 9.80863L60.7973 9.96368L60.7934 10.103L60.7658 10.2278L60.7171 10.3342L60.6436 10.4301L60.5477 10.509L60.4307 10.5694L60.2914 10.618L51.3263 12.9884L51.7783 14.7005L51.823 14.8319L51.8835 14.9501L51.9623 15.0552L52.0569 15.1446L52.1673 15.2208L52.2947 15.2852L52.4366 15.3338L52.5982 15.3706L52.7717 15.3942L52.9648 15.4021L53.1751 15.3969L53.3998 15.3798L53.6402 15.3482L53.8991 15.3036L54.1724 15.2458L54.4641 15.1722L61.0404 13.4338L61.1967 13.4036L61.336 13.401L61.4635 13.4233L61.5752 13.4746L61.6711 13.5508L61.7512 13.6533L61.8196 13.7833L61.8708 13.9397L61.9273 14.1499L61.9588 14.3115L61.9641 14.4574L61.9444 14.5875L61.8984 14.7005L61.8248 14.8003L61.7276 14.8831L61.6028 14.9501L61.4503 15.0014L54.782 16.7621L54.6152 16.8028L54.4299 16.8422L54.221 16.8816L53.9937 16.9184L53.5693 16.9762L53.1646 17.0117L52.7861 17.0288L52.4287 17.0209L52.0937 16.9946L51.7836 16.9447L51.4945 16.8737L51.2304 16.7831L50.986 16.6714L50.7666 16.5361L50.5682 16.3823L50.3948 16.2063L50.2423 16.0079L50.1136 15.7911L50.0084 15.5506L49.9244 15.2891L48.5723 10.1713L48.5066 9.81389L48.4961 9.46438L48.5473 9.12406L48.6551 8.79426L48.822 8.47366L49.0466 8.16357L49.3278 7.86267L49.6708 7.56835L49.927 7.38308L50.2016 7.20701L50.492 7.04276L50.8034 6.88903L51.1279 6.74975L51.4722 6.61704L51.8322 6.49748L52.2119 6.38973L54.0278 5.91145L54.1855 5.88123L54.3274 5.87598L54.4509 5.89831L54.5639 5.94693L54.6598 6.02314L54.7426 6.12563L54.8083 6.25571L54.8596 6.40944L54.9161 6.6223L54.9476 6.78392L54.9555 6.93108L54.9358 7.05985L54.8898 7.17547L54.8162 7.27533L54.7177 7.35811L54.5928 7.42512L54.4443 7.47637L52.5509 7.97436L52.0398 8.14386L51.6075 8.30284L51.2383 8.47103L50.9374 8.64973L50.7022 8.83631L50.5314 9.0334L50.4263 9.23969L50.3895 9.45255L50.4158 9.67724L50.8783 11.43L59.8854 9.05048L60.0536 9.01895L60.206 9.01369L60.3374 9.03866L60.4557 9.0899L60.5503 9.17137L60.6317 9.28042L60.6922 9.41707L60.7369 9.58395Z" fill="white" stroke="black" stroke-width="0.0597848" stroke-linecap="round" stroke-linejoin="round"/>
<path d="M38.8796 20.8839L39.0806 21.1703L39.2344 21.462L39.3461 21.7603L39.4144 22.0625L39.4394 22.3713L39.4196 22.6866L39.3566 23.0072L39.2488 23.3318L39.0977 23.6642L38.9019 24.0019L38.6641 24.3448L38.3803 24.6944L38.0558 25.0491L37.6839 25.4091L37.27 25.7757L36.8128 26.1476L34.4634 27.9832L34.1231 28.2407L33.7933 28.4746L33.4674 28.6901L33.1521 28.8806L32.8433 29.0527L32.5424 29.2012L32.2494 29.3287L31.963 29.4338L31.6844 29.5166L31.4137 29.5809L31.151 29.6204L30.8947 29.6387L30.6477 29.6374L30.4086 29.6125L30.176 29.5678L29.9513 29.4995L29.6399 29.3654L29.3561 29.1894L29.0972 28.9713L28.8647 28.7124L25.8229 24.8165L25.6192 24.5275L25.4629 24.2318L25.3485 23.9309L25.2776 23.6261L25.25 23.3147L25.2671 22.9994L25.3288 22.6774L25.434 22.3489L25.5824 22.0165L25.7769 21.6788L26.0108 21.3346L26.292 20.9864L26.6178 20.6329L26.9844 20.2729L27.397 19.9089L27.8529 19.5371L30.2102 17.6949L30.6306 17.3743L31.0314 17.0866L31.4111 16.829L31.7698 16.607L32.1101 16.4138L32.4281 16.2548L32.7264 16.13L33.0023 16.0354L33.4188 15.9395L33.817 15.908L34.1993 15.9342L34.5633 16.0249L34.9075 16.1747L35.236 16.3876L35.5461 16.6582L35.8391 16.9933L38.8796 20.8839Z" fill="white" stroke="black" stroke-width="0.0597848" stroke-linecap="round" stroke-linejoin="round"/>
<path d="M37.2931 22.0797L34.2947 18.2429L34.1843 18.1207L34.0621 18.0209L33.9307 17.9394L33.7888 17.8842L33.6338 17.8501L33.4682 17.8369L33.2922 17.8501L33.1043 17.8816L32.9032 17.9355L32.6956 18.0104L32.4722 18.1115L32.241 18.2311L31.9979 18.373L31.7443 18.5386L31.4776 18.7251L31.2017 18.9354L28.8405 20.7789L28.5698 20.9996L28.3228 21.2125L28.1007 21.4201L27.8997 21.6224L27.7263 21.8182L27.5765 22.0087L27.449 22.1953L27.3492 22.3766L27.2716 22.5527L27.2178 22.7209L27.1875 22.8851L27.1836 23.0441L27.202 23.1978L27.2467 23.345L27.315 23.4869L27.4083 23.6236L30.4067 27.4603L30.5145 27.5799L30.6314 27.6758L30.7615 27.752L30.9021 27.8059L31.0571 27.8348L31.2201 27.844L31.3961 27.8321L31.5827 27.7953L31.7811 27.7388L31.9913 27.6613L32.2108 27.5602L32.4433 27.438L32.6877 27.2921L32.9426 27.1252L33.2094 26.9373L33.4879 26.7271L35.8544 24.8784L36.1237 24.6603L36.3681 24.45L36.5915 24.2451L36.7886 24.044L36.9633 23.8482L37.1118 23.6603L37.2366 23.4764L37.3391 23.2977L37.418 23.1269L37.4718 22.96L37.5007 22.7997L37.5086 22.6447L37.4889 22.4962L37.4469 22.3516L37.3838 22.2124L37.2931 22.0797Z" fill="black" stroke="black" stroke-width="0.0597848" stroke-linecap="round" stroke-linejoin="round"/>
<path d="M28.1781 31.7726L28.4369 31.9907L28.6209 32.2102L28.7286 32.4375L28.7602 32.6674L28.7326 32.8461L28.6616 33.0445L28.5447 33.2692L28.3804 33.5136L28.2911 33.6095L28.161 33.6923L27.9968 33.7606L27.7944 33.8198L27.7471 33.8289L27.6617 33.846L27.5421 33.8657L27.3831 33.8907L15.894 36.7157L22.0025 41.1371L22.13 41.2423L22.2259 41.35L22.2916 41.4643L22.3257 41.5813L22.331 41.7035L22.306 41.8309L22.2522 41.9636L22.1668 42.1003L21.8317 42.5628L21.7318 42.685L21.6241 42.7783L21.5137 42.8413L21.3968 42.8729L21.2772 42.8781L21.1498 42.8505L21.0197 42.7967L20.883 42.7113L13.4539 37.3333L13.3317 37.2071L13.2529 37.035L13.2188 36.8182L13.2253 36.5567L13.2818 36.3071L13.4066 36.0771L13.542 35.9208L13.7102 35.7762L13.9112 35.6435L14.1477 35.5213L14.3855 35.4241L14.6076 35.3558L25.8524 32.4743L19.9409 28.1947L19.8214 28.0949L19.7281 27.9871L19.6676 27.8768L19.6361 27.7598L19.6308 27.6402L19.6571 27.5128L19.7136 27.3827L19.799 27.2461L20.1301 26.7914L20.2326 26.6666L20.3404 26.5733L20.4507 26.5102L20.5677 26.4735L20.6872 26.4708L20.8147 26.4958L20.9435 26.5483L21.0788 26.6351L28.1781 31.7726Z" fill="white" stroke="black" stroke-width="0.0597848" stroke-linecap="round" stroke-linejoin="round"/>
<path d="M17.6409 44.0818L17.976 44.2316L18.2716 44.4129L18.5331 44.6205L18.7591 44.857L18.947 45.1264L19.0981 45.422L19.2137 45.7479L19.2913 46.1027L19.3333 46.489L19.3386 46.9015L19.3083 47.3443L19.24 47.816L19.1349 48.3206L18.9956 48.8514L18.8169 49.4112L18.6041 49.9998L17.6331 52.5318L17.453 52.9891L17.2665 53.4187L17.0812 53.8208L16.8933 54.194L16.7041 54.5422L16.5109 54.8628L16.3178 55.1558L16.122 55.4199L15.9223 55.6564L15.7239 55.8666L15.5202 56.048L15.3152 56.2017L15.1103 56.3291L14.9027 56.4303L14.6911 56.5026L14.4796 56.5473L14.1511 56.5643L13.7897 56.5275L13.3903 56.4369L12.9554 56.2897L6.39877 53.7735L6.25161 53.7052L6.13204 53.6277L6.04137 53.5396L5.97568 53.4358L5.93889 53.3268L5.92969 53.2019L5.94677 53.0666L5.99013 52.9234L6.18328 52.4162L6.25029 52.2769L6.32782 52.1652L6.41848 52.0785L6.52097 52.0207L6.63791 51.9892L6.76799 51.9839L6.9099 52.0062L7.06626 52.0549L13.5743 54.5514L13.8108 54.6223L14.0407 54.6473L14.2667 54.6276L14.4861 54.5632L14.699 54.4568L14.9066 54.3017L15.1103 54.1046L15.3074 53.8615L15.4138 53.7078L15.5202 53.5317L15.6306 53.3307L15.7462 53.1086L15.8605 52.8642L15.9775 52.5975L16.101 52.3071L16.2232 51.9931L17.1955 49.4598L17.3177 49.1326L17.4281 48.8265L17.5214 48.5453L17.6015 48.2838L17.6685 48.0434L17.7211 47.8266L17.7579 47.6308L17.7828 47.4573L17.7999 47.1486L17.7802 46.8674L17.729 46.6164L17.6409 46.393L17.5187 46.1999L17.3624 46.0356L17.1719 45.899L16.9459 45.7913L10.4313 43.2895L10.2828 43.2212L10.1619 43.1436L10.0699 43.053L10.0029 42.9505L9.96746 42.8349L9.95695 42.71L9.97403 42.5734L10.0187 42.4262L10.2119 41.9256L10.2749 41.7863L10.3538 41.676L10.4444 41.5905L10.5469 41.5314L10.6612 41.4999L10.7887 41.4946L10.9306 41.517L11.0843 41.5656L17.6409 44.0818Z" fill="white" stroke="black" stroke-width="0.0597848" stroke-linecap="round" stroke-linejoin="round"/>
<path d="M13.0107 85.4332L13.3444 85.3307L13.6663 85.2742L13.9843 85.2598L14.2931 85.2887L14.594 85.3622L14.887 85.4792L15.1734 85.6382L15.452 85.8432L15.724 86.0928L15.9854 86.3845L16.239 86.7196L16.4861 87.1006L16.7265 87.5237L16.9578 87.9915L17.1838 88.5026L17.3979 89.0571L18.4373 91.8873L18.5792 92.2933L18.704 92.6836L18.8118 93.0607L18.8998 93.4247L18.9681 93.7742L19.0194 94.1092L19.0535 94.4298L19.0693 94.7386L19.064 95.0316L19.0417 95.3102L19.0023 95.5743L18.9445 95.8266L18.8683 96.0644L18.7723 96.2864L18.6607 96.494L18.5279 96.6898L18.3085 96.9447L18.0536 97.1615L17.7698 97.3402L17.4518 97.4821L12.8346 99.1798L12.4995 99.2822L12.1724 99.3414L11.8518 99.3585L11.539 99.3282L11.2355 99.2573L10.9399 99.143L10.6508 98.984L10.3722 98.7777L10.1016 98.5333L9.83747 98.2429L9.58256 97.9079L9.33291 97.5281L9.09377 97.1077L8.86383 96.6412L8.63914 96.1327L8.42366 95.5795L7.38169 92.7427L7.203 92.2395L7.04926 91.7638L6.91918 91.3223L6.81407 90.9058L6.73392 90.5221L6.68004 90.1674L6.64851 89.8441L6.64062 89.5485L6.67479 89.1215L6.76282 88.7273L6.90473 88.3725L7.09788 88.0493L7.3449 87.7655L7.64317 87.5171L7.99531 87.3043L8.40132 87.1282L13.0107 85.4332Z" fill="white" stroke="black" stroke-width="0.0597848" stroke-linecap="round" stroke-linejoin="round"/>
<path d="M13.6656 87.1452L9.02214 88.8546L8.86841 88.923L8.73307 89.011L8.61613 89.1161L8.51758 89.2383L8.43743 89.3829L8.37568 89.5418L8.33232 89.7205L8.30735 89.9176L8.30078 90.1331L8.31261 90.3657L8.34151 90.618L8.38882 90.8886L8.45451 91.1777L8.53992 91.4825L8.64241 91.8084L8.76198 92.1527L9.84862 95.1025L9.98001 95.4454L10.1127 95.7608L10.2467 96.0485L10.386 96.3126L10.5253 96.5531L10.6659 96.7633L10.8091 96.9512L10.9536 97.1102L11.1008 97.2442L11.2519 97.3546L11.4017 97.4387L11.5554 97.4939L11.7118 97.5241L11.8682 97.5307L12.0271 97.5083L12.1888 97.4623L16.8323 95.7529L16.9821 95.6872L17.1121 95.6018L17.2238 95.4967L17.3171 95.3745L17.3933 95.2326L17.4511 95.0736L17.4932 94.8949L17.5155 94.6965L17.5195 94.481L17.505 94.2471L17.4735 93.9948L17.4249 93.7228L17.3592 93.4351L17.2738 93.1263L17.17 92.7991L17.0478 92.4536L15.9598 89.4972L15.8297 89.1569L15.6983 88.8441L15.5643 88.5564L15.4263 88.2936L15.2897 88.0571L15.1504 87.8468L15.0111 87.6603L14.8692 87.5013L14.7247 87.3673L14.5775 87.2595L14.429 87.1767L14.2793 87.1176L14.1308 87.0861L13.977 87.0808L13.822 87.1005L13.6656 87.1452Z" fill="black" stroke="black" stroke-width="0.0597848" stroke-linecap="round" stroke-linejoin="round"/>
<path d="M12.99 103.888L13.1241 103.807L13.2515 103.757L13.3763 103.736L13.4959 103.743L13.6089 103.782L13.7193 103.848L13.8244 103.947L13.9243 104.071L17.8608 109.715L18.0369 109.962L18.2117 110.187L18.3772 110.393L18.5415 110.576L18.7005 110.742L18.8542 110.884L19.004 111.007L19.1472 111.109L19.2878 111.19L19.4218 111.251L19.5532 111.293L19.678 111.31H19.8002L19.9185 111.288L20.0302 111.246L20.1379 111.183L24.5594 108.096L24.7013 107.977L24.8143 107.837L24.8918 107.676L24.9391 107.494L24.9536 107.295L24.9391 107.074L24.8905 106.835L24.809 106.573L24.7604 106.446L24.6947 106.304L24.6132 106.145L24.516 105.971L24.4004 105.782L24.2716 105.58L24.1271 105.359L23.9655 105.125L20.2063 99.7381L20.1235 99.6001L20.0722 99.4713L20.0473 99.3465L20.0525 99.2269L20.0867 99.1113L20.1484 99.0036L20.2404 98.9011L20.3613 98.8038L20.5321 98.6856L20.6635 98.6054L20.7936 98.5542L20.9158 98.5319L21.0327 98.5397L21.1484 98.5752L21.2561 98.6422L21.3612 98.7368L21.4584 98.8617L25.2085 104.234L25.3714 104.47L25.5186 104.689L25.6526 104.89L25.7748 105.077L25.8799 105.245L25.9706 105.396L26.0494 105.531L26.1125 105.648L26.2885 106.035L26.4278 106.426L26.5303 106.827L26.5973 107.233L26.621 107.63L26.6065 108.002L26.5474 108.343L26.4501 108.661L26.3082 108.954L26.1243 109.221L25.9022 109.461L25.6355 109.674L21.2732 112.716L21.0629 112.846L20.8448 112.943L20.6175 113.017L20.381 113.059L20.134 113.073L19.8765 113.056L19.6097 113.014L19.3364 112.941L18.8739 112.762L18.4364 112.528L18.0225 112.231L17.6309 111.878L17.4115 111.64L17.1697 111.349L16.9056 111.001L16.6192 110.603L12.6721 104.947L12.5893 104.81L12.5354 104.677L12.5078 104.55L12.5131 104.43L12.5446 104.316L12.609 104.208L12.6983 104.106L12.8192 104.007L12.99 103.888Z" fill="white" stroke="black" stroke-width="0.0597848" stroke-linecap="round" stroke-linejoin="round"/>
<path d="M28.9871 110.469L29.1119 110.364L29.2341 110.292L29.3563 110.247L29.4811 110.233L29.6007 110.25L29.7229 110.298L29.8451 110.377L29.966 110.487L30.3693 110.903L30.4745 111.025L30.548 111.15L30.5914 111.272L30.6032 111.394L30.5861 111.516L30.5401 111.636L30.4626 111.758L30.3523 111.879L23.6708 118.351L23.5486 118.457L23.4264 118.53L23.3042 118.572L23.182 118.587L23.0611 118.57L22.9389 118.521L22.8194 118.442L22.6998 118.334L22.2964 117.919L22.1913 117.794L22.1151 117.672L22.0717 117.547L22.0586 117.425L22.0744 117.306L22.1203 117.183L22.1979 117.062L22.3056 116.943L28.9871 110.469Z" fill="white" stroke="black" stroke-width="0.0597848" stroke-linecap="round" stroke-linejoin="round"/>
<path d="M25.4546 119.826L25.5624 119.706L25.6727 119.613L25.7871 119.552L25.904 119.522L26.0262 119.521L26.151 119.55L26.2785 119.609L26.4112 119.697L29.7368 122.279L34.8967 115.628L35.0044 115.504L35.1174 115.415L35.2344 115.353L35.3539 115.322H35.4761L35.6062 115.353L35.7376 115.415L35.8729 115.504L36.3368 115.864L36.459 115.975L36.5523 116.086L36.614 116.202L36.6429 116.321V116.446L36.614 116.574L36.5523 116.705L36.4616 116.84L31.3017 123.492L34.672 126.106L34.7916 126.214L34.8822 126.323L34.9427 126.439L34.9729 126.556V126.681L34.9427 126.805L34.8822 126.936L34.7916 127.07L34.6602 127.24L34.5524 127.361L34.442 127.451L34.3291 127.51L34.2121 127.539H34.0899L33.9625 127.51L33.8324 127.451L33.701 127.361L25.4441 120.956L25.3245 120.848L25.2339 120.738L25.1734 120.623L25.1445 120.506V120.384L25.1734 120.259L25.2326 120.129L25.3219 119.998L25.4546 119.826Z" fill="white" stroke="black" stroke-width="0.0597848" stroke-linecap="round" stroke-linejoin="round"/>
<path d="M39.531 124.702L39.6387 124.511L39.7189 124.387L39.8095 124.287L39.9068 124.213L40.0145 124.164L40.1275 124.14L40.2497 124.142L40.3785 124.168L40.5191 124.222L48.9756 128.129L49.7233 126.51L49.7719 126.38L49.8021 126.25L49.8087 126.118L49.7942 125.988L49.7574 125.859L49.6996 125.729L49.6208 125.597L49.5209 125.468L49.4001 125.338L49.2568 125.208L49.0926 125.079L48.9073 124.949L48.6984 124.818L48.4711 124.687L48.2214 124.557L47.9508 124.429L41.7489 121.562L41.6096 121.487L41.4966 121.401L41.4139 121.303L41.3574 121.198L41.3285 121.081V120.953L41.3574 120.817L41.4139 120.669L41.5019 120.479L41.5768 120.34L41.6635 120.229L41.7581 120.149L41.8659 120.093L41.9828 120.065L42.1103 120.068L42.2469 120.098L42.3967 120.153L48.6603 123.046L48.814 123.12L48.9822 123.208L49.1662 123.31L49.3646 123.427L49.7285 123.656L50.061 123.883L50.3645 124.113L50.6339 124.344L50.873 124.58L51.0832 124.818L51.2593 125.054L51.4065 125.294L51.5208 125.536L51.6062 125.778L51.6574 126.022L51.6798 126.269L51.6732 126.519L51.6311 126.771L51.5602 127.022L51.4577 127.277L49.2371 132.085L49.0611 132.403L48.8456 132.678L48.5907 132.907L48.2976 133.093L47.9652 133.232L47.5934 133.331L47.1847 133.382L46.7354 133.388L46.4174 133.369L46.0942 133.331L45.767 133.271L45.4319 133.193L45.089 133.095L44.7421 132.976L44.3873 132.838L44.0273 132.679L42.3179 131.892L42.1786 131.816L42.0669 131.73L41.9828 131.636L41.9276 131.528L41.9 131.412V131.286L41.9276 131.151L41.9828 131.005L42.0708 130.81L42.147 130.671L42.2325 130.562L42.331 130.478L42.4387 130.423L42.5557 130.395L42.6831 130.398L42.8198 130.427L42.9683 130.483L44.7474 131.303L45.248 131.496L45.6855 131.647L46.0771 131.747L46.4266 131.799L46.7327 131.797L46.9916 131.745L47.2071 131.645L47.3805 131.491L47.508 131.287L48.3174 129.535L39.8581 125.627L39.707 125.545L39.5862 125.453L39.4981 125.352L39.4429 125.241L39.418 125.12L39.4232 124.991L39.4626 124.852L39.531 124.702Z" fill="white" stroke="black" stroke-width="0.0597848" stroke-linecap="round" stroke-linejoin="round"/>
<path d="M51.3548 134.874L51.3982 134.718L51.4573 134.585L51.5348 134.48L51.6281 134.4L51.7358 134.343L51.8633 134.315L52.0052 134.312L52.1642 134.334L56.3281 135.212L58.0651 126.97L58.1085 126.813L58.1676 126.682L58.2438 126.577L58.3358 126.495L58.4436 126.44L58.5684 126.41L58.7103 126.407L58.8667 126.43L59.4251 126.547L59.5762 126.591L59.7063 126.65L59.8061 126.728L59.8837 126.821L59.9362 126.933L59.9651 127.06V127.205L59.9428 127.366L58.207 135.608L62.3854 136.488L62.5431 136.533L62.6719 136.593L62.7743 136.669L62.8558 136.765L62.9097 136.874L62.936 137.004L62.9386 137.149L62.9163 137.31L62.8703 137.523L62.8256 137.68L62.7678 137.808L62.6889 137.911L62.597 137.992L62.4866 138.046L62.3618 138.072L62.2172 138.075L62.0582 138.053L51.8357 135.902L51.682 135.857L51.5519 135.797L51.4468 135.721L51.3692 135.627L51.3154 135.517L51.2878 135.391L51.2852 135.246L51.3075 135.087L51.3548 134.874Z" fill="white" stroke="black" stroke-width="0.0597848" stroke-linecap="round" stroke-linejoin="round"/>
<path d="M66.168 130.368L66.1851 129.939L66.256 129.55L66.3769 129.201L66.5477 128.889L66.7698 128.616L67.047 128.384L67.3715 128.188L67.7486 128.031L68.0298 127.946L68.3373 127.87L68.675 127.804L69.0389 127.748L69.4279 127.704L69.847 127.67L70.2938 127.645L70.7655 127.631L77.4666 127.503L77.6256 127.511L77.7649 127.54L77.8832 127.591L77.9804 127.662L78.0566 127.758L78.1105 127.872L78.1446 128.009L78.1591 128.168L78.1643 128.378L78.1565 128.537L78.1276 128.675L78.0763 128.792L78.0027 128.889L77.9068 128.966L77.7925 129.019L77.6532 129.054L77.4942 129.068L70.751 129.198L70.4212 129.207L70.1125 129.227L69.8273 129.252L69.5606 129.286L69.3162 129.328L69.0928 129.377L68.8931 129.433L68.7144 129.499L68.5554 129.573L68.4188 129.653L68.3031 129.741L68.2085 129.837L68.1349 129.939L68.0863 130.052L68.0535 130.172L68.0469 130.298L68.0666 131.262L68.0785 131.396L68.1126 131.524L68.1691 131.641L68.2453 131.749L68.3399 131.847L68.4569 131.936L68.5975 132.015L68.7565 132.086L68.9365 132.149L69.1375 132.203L69.3596 132.245L69.6039 132.282L69.8681 132.307L70.1519 132.324L70.458 132.331L70.7852 132.328L73.3605 132.279L73.9544 132.277L74.5102 132.296L75.0266 132.336L75.5075 132.395L75.9477 132.473L76.3511 132.572L76.719 132.693L77.0462 132.833L77.3379 132.994L77.5888 133.172L77.8043 133.373L77.9804 133.595L78.1197 133.835L78.2195 134.097L78.2839 134.38L78.3076 134.681L78.3233 135.463L78.3063 135.865L78.2366 136.232L78.1197 136.569L77.9515 136.872L77.7307 137.146L77.4601 137.385L77.1395 137.596L76.7676 137.772L76.4956 137.87L76.1947 137.953L75.8597 138.029L75.4957 138.09L75.0976 138.141L74.6666 138.178L74.2067 138.208L73.7127 138.222L72.7325 138.239L72.5709 138.232L72.4316 138.203L72.3146 138.154L72.2161 138.083L72.1386 137.99L72.0847 137.875L72.0505 137.738L72.0348 137.581L72.0308 137.368L72.0374 137.209L72.0689 137.07L72.1215 136.953L72.1937 136.855L72.2897 136.78L72.4092 136.723L72.5485 136.689L72.7101 136.675L73.7298 136.655L74.0596 136.644L74.371 136.625L74.6587 136.598L74.9254 136.564L75.1698 136.52L75.3958 136.468L75.5956 136.408L75.7769 136.339L75.9359 136.263L76.0725 136.181L76.1882 136.087L76.2828 135.987L76.3563 135.877L76.4076 135.76L76.4378 135.635L76.4444 135.5L76.4299 134.767L76.4076 134.6L76.3498 134.451L76.2512 134.319L76.1172 134.202L75.9451 134.099L75.7348 134.014L75.4878 133.945L75.2053 133.892L75.0726 133.875L74.9163 133.859L74.7376 133.85L74.5365 133.842L74.3118 133.838L74.0622 133.835L73.7915 133.838L73.4972 133.842L70.889 133.892H70.4606L70.0494 133.876L69.6552 133.847L69.2794 133.801L68.9168 133.739L68.5699 133.664L68.2427 133.571L67.9287 133.463L67.5279 133.287L67.1784 133.084L66.8828 132.856L66.6384 132.603L66.4478 132.324L66.3072 132.018L66.2218 131.688L66.1877 131.331L66.168 130.368Z" fill="white" stroke="black" stroke-width="0.0597848" stroke-linecap="round" stroke-linejoin="round"/>
<path d="M81.3069 132.479L81.2636 132.254L81.2439 132.101L81.2465 131.961L81.2728 131.837L81.3227 131.726L81.3936 131.633L81.4856 131.555L81.6039 131.491L81.7432 131.442L90.6938 129.029L90.2313 127.317L90.1853 127.185L90.1235 127.067L90.046 126.964L89.9527 126.874L89.8397 126.796L89.7123 126.735L89.5717 126.683L89.4127 126.649L89.2366 126.627L89.0421 126.618L88.8345 126.623L88.6099 126.641L88.3681 126.677L88.1106 126.72L87.8373 126.782L87.5456 126.854L80.9824 128.625L80.826 128.657L80.6867 128.662L80.5593 128.64L80.4463 128.589L80.3517 128.515L80.2676 128.412L80.2019 128.282L80.148 128.126L80.0902 127.916L80.0573 127.754L80.0508 127.608L80.0705 127.478L80.1165 127.364L80.1901 127.263L80.2873 127.18L80.4121 127.112L80.5619 127.06L87.2236 125.266L87.3892 125.223L87.5758 125.181L87.7808 125.143L88.0081 125.104L88.4338 125.045L88.8345 125.005L89.2143 124.988L89.5717 124.994L89.9054 125.021L90.2168 125.067L90.5046 125.138L90.7713 125.226L91.0157 125.338L91.2364 125.47L91.4349 125.627L91.6109 125.8L91.762 125.999L91.8921 126.217L91.9999 126.456L92.0853 126.717L93.4662 131.837L93.5359 132.193L93.5451 132.544L93.4991 132.883L93.3913 133.214L93.2271 133.536L93.005 133.848L92.7238 134.152L92.3835 134.446L92.126 134.634L91.8553 134.81L91.5636 134.977L91.2562 135.131L90.9303 135.275L90.5887 135.407L90.226 135.526L89.8502 135.637L88.033 136.128L87.8767 136.159L87.7374 136.162L87.6099 136.14L87.4969 136.091L87.4023 136.016L87.3182 135.915L87.2525 135.786L87.1987 135.631L87.1422 135.418L87.1106 135.258L87.1041 135.111L87.1225 134.978L87.1698 134.864L87.2407 134.765L87.338 134.683L87.4628 134.614L87.6126 134.563L89.5007 134.052L90.0092 133.881L90.4415 133.719L90.8081 133.549L91.109 133.37L91.3442 133.181L91.5124 132.984L91.6175 132.777L91.6543 132.562L91.6254 132.337L91.1537 130.584L82.1584 133.01L81.9902 133.044L81.8404 133.049L81.7064 133.027L81.5907 132.973L81.4935 132.893L81.4147 132.785L81.3516 132.646L81.3069 132.479Z" fill="white" stroke="black" stroke-width="0.0597848" stroke-linecap="round" stroke-linejoin="round"/>
<path d="M103.299 121.233L103.096 120.952L102.937 120.663L102.822 120.367L102.754 120.066L102.727 119.756L102.744 119.441L102.805 119.12L102.911 118.79L103.06 118.455L103.253 118.11L103.49 117.76L103.774 117.405L104.1 117.041L104.469 116.672L104.881 116.295L105.339 115.911L107.689 114.014L108.028 113.747L108.359 113.504L108.684 113.282L108.999 113.081L109.311 112.904L109.612 112.746L109.907 112.612L110.194 112.498L110.472 112.407L110.743 112.339L111.007 112.289L111.265 112.265L111.514 112.26L111.756 112.28L111.989 112.319L112.216 112.38L112.529 112.507L112.818 112.675L113.077 112.888L113.312 113.143L116.396 116.965L116.601 117.249L116.762 117.542L116.879 117.838L116.953 118.144L116.982 118.455L116.967 118.772L116.907 119.095L116.804 119.425L116.657 119.763L116.467 120.106L116.231 120.458L115.95 120.813L115.627 121.176L115.26 121.546L114.848 121.923L114.392 122.304L112.035 124.206L111.614 124.536L111.213 124.835L110.834 125.101L110.475 125.334L110.135 125.532L109.817 125.7L109.518 125.836L109.24 125.936L108.822 126.041L108.423 126.084L108.039 126.067L107.672 125.987L107.323 125.845L106.992 125.643L106.676 125.378L106.378 125.05L103.299 121.233Z" fill="white" stroke="black" stroke-width="0.0597848" stroke-linecap="round" stroke-linejoin="round"/>
<path d="M104.738 120.134L107.75 123.869L107.863 123.988L107.986 124.084L108.12 124.158L108.267 124.206L108.426 124.234L108.597 124.238L108.781 124.218L108.974 124.175L109.179 124.112L109.397 124.022L109.627 123.911L109.869 123.777L110.123 123.619L110.388 123.439L110.666 123.235L110.954 123.008L113.421 121.017L113.705 120.782L113.965 120.552L114.199 120.33L114.407 120.115L114.591 119.905L114.75 119.705L114.881 119.509L114.989 119.32L115.073 119.14L115.131 118.964L115.164 118.797L115.17 118.635L115.153 118.482L115.111 118.332L115.043 118.192L114.951 118.058L111.938 114.324L111.83 114.209L111.709 114.117L111.575 114.048L111.431 114.001L111.274 113.977H111.106L110.925 113.998L110.732 114.043L110.527 114.111L110.309 114.202L110.079 114.316L109.837 114.452L109.582 114.611L109.318 114.793L109.039 115L108.749 115.227L106.274 117.224L105.992 117.459L105.736 117.684L105.504 117.905L105.296 118.118L105.112 118.325L104.956 118.524L104.82 118.717L104.714 118.899L104.63 119.078L104.572 119.251L104.538 119.416L104.527 119.572L104.542 119.723L104.584 119.868L104.647 120.006L104.738 120.134Z" fill="black" stroke="black" stroke-width="0.0597848" stroke-linecap="round" stroke-linejoin="round"/>
<path d="M113.82 110.227L113.562 110.009L113.378 109.787L113.27 109.561L113.238 109.333L113.265 109.154L113.336 108.953L113.454 108.731L113.617 108.486L113.71 108.39L113.837 108.308L114.004 108.239L114.204 108.18L114.253 108.17L114.337 108.153L114.459 108.134L114.615 108.109L126.104 105.284L119.996 100.863L119.868 100.758L119.773 100.65L119.707 100.536L119.673 100.417L119.667 100.295L119.692 100.169L119.746 100.036L119.832 99.8997L120.167 99.4372L120.269 99.315L120.374 99.2217L120.487 99.1586L120.602 99.1271L120.724 99.1218L120.849 99.1481L120.981 99.202L121.115 99.2887L128.544 104.665L128.667 104.793L128.746 104.964L128.78 105.182L128.772 105.443L128.717 105.693L128.592 105.923L128.456 106.079L128.288 106.224L128.087 106.355L127.851 106.477L127.616 106.576L127.391 106.644L116.146 109.526L122.058 113.805L122.177 113.905L122.269 114.013L122.331 114.123L122.365 114.238L122.368 114.36L122.34 114.487L122.285 114.617L122.198 114.754L121.868 115.209L121.766 115.333L121.658 115.427L121.548 115.49L121.431 115.524L121.311 115.529L121.184 115.504L121.054 115.45L120.92 115.365L113.82 110.227Z" fill="white" stroke="black" stroke-width="0.0597848" stroke-linecap="round" stroke-linejoin="round"/>
<path d="M124.493 97.8907L124.158 97.7435L123.86 97.5674L123.599 97.3625L123.374 97.1273L123.183 96.8632L123.028 96.5675L122.911 96.2456L122.831 95.8908L122.787 95.5085L122.777 95.0959L122.804 94.6557L122.868 94.184L122.965 93.6821L123.102 93.1512L123.274 92.5915L123.482 92.0015L124.428 89.4709L124.604 89.0136L124.785 88.5826L124.966 88.1819L125.152 87.8061L125.337 87.4579L125.526 87.1373L125.717 86.8443L125.91 86.5775L126.106 86.341L126.304 86.1308L126.504 85.9468L126.707 85.7905L126.91 85.663L127.117 85.5605L127.326 85.487L127.539 85.441L127.864 85.4213L128.226 85.4528L128.622 85.5408L129.057 85.6827L135.613 88.1359L135.76 88.2016L135.88 88.2778L135.973 88.3658L136.039 88.4657L136.076 88.5787L136.088 88.7009L136.071 88.8349L136.03 88.9794L135.841 89.4853L135.778 89.6246L135.699 89.7376L135.609 89.823L135.506 89.8848L135.391 89.9163L135.261 89.9229L135.119 89.9018L134.963 89.8545L128.455 87.4211L128.218 87.3528L127.988 87.3304L127.766 87.3501L127.548 87.4172L127.335 87.5262L127.13 87.6813L126.929 87.881L126.736 88.1227L126.631 88.2778L126.526 88.4539L126.416 88.6536L126.305 88.8743L126.191 89.1214L126.075 89.3881L125.958 89.6785L125.839 89.9912L124.893 92.5258L124.772 92.853L124.667 93.1591L124.575 93.4429L124.496 93.7018L124.433 93.9435L124.382 94.1617L124.345 94.3574L124.323 94.5309L124.308 94.8384L124.33 95.1182L124.384 95.3666L124.474 95.5873L124.596 95.7805L124.754 95.9421L124.947 96.0761L125.171 96.1812L131.686 98.6199L131.836 98.6856L131.955 98.7644L132.049 98.8538L132.114 98.955L132.154 99.0667L132.166 99.1915L132.148 99.3294L132.104 99.4753L131.918 99.9772L131.855 100.116L131.779 100.227L131.689 100.312L131.589 100.37L131.473 100.404L131.344 100.41L131.204 100.39L131.05 100.344L124.493 97.8907Z" fill="white" stroke="black" stroke-width="0.0597848" stroke-linecap="round" stroke-linejoin="round"/>
<path d="M46.3789 74.6048V74.2014" stroke="black" stroke-width="0.0597848" stroke-linecap="round" stroke-linejoin="round"/>
<path d="M82.6937 99.177L85.457 99.1205L88.0428 98.9537L90.4395 98.6751L92.6692 98.2744L94.7203 97.7724L96.5927 97.1588L98.2864 96.423L99.7909 95.5768L101.128 94.6295L102.287 93.5586L103.269 92.3773L104.072 91.0844L104.696 89.6798L105.141 88.1648L105.408 86.5368L105.497 84.7985V46.4574L105.42 45.4312L105.174 44.606L104.762 43.9714L104.194 43.526L103.469 43.2132L102.588 43.0017L101.574 42.8677L100.415 42.823L99.2114 42.8677L98.1747 42.9899L97.2838 43.2132L96.5585 43.5141L95.9791 43.9596L95.5665 44.5955L95.3221 45.4207L95.2433 46.4456V84.6093L95.1986 85.2111L95.0541 85.801L94.8202 86.3595L94.4851 86.8942L94.0515 87.4172L93.5273 87.9191L92.9136 88.3869L92.2015 88.8441L91.3868 89.2567L90.4513 89.6246L89.3923 89.9255L88.2215 90.1712L86.9404 90.3709L85.5358 90.505L84.0195 90.5943L82.381 90.6167H59.2765L57.638 90.5943L56.1112 90.505L54.7066 90.3709L53.4242 90.1712L52.2547 89.9255L51.1957 89.6246L50.2588 89.2567L49.4455 88.8441L48.732 88.3869L48.1184 87.9191L47.5955 87.4172L47.1606 86.8942L46.8255 86.3595L46.5916 85.801L46.4471 85.2111L46.4024 84.6093V46.4456L46.3249 45.4207L46.0792 44.5955L45.6666 43.9596L45.099 43.5141L44.3632 43.2132L43.471 42.9899L42.4343 42.8677L41.2425 42.823L40.0823 42.8677L39.0692 43.0017L38.1994 43.2132L37.4754 43.526L36.8947 43.9714L36.4834 44.606L36.2377 45.4312L36.1602 46.4574V84.7985L36.2482 86.5368L36.5162 88.1648L36.9617 89.6798L37.5858 91.0844L38.3886 92.3773L39.3701 93.5586L40.529 94.6295L41.8548 95.5768L43.3711 96.423L45.0648 97.1588L46.9372 97.7724L48.9883 98.2744L51.218 98.6751L53.6134 98.9537L56.1992 99.1205L58.9638 99.177H82.6937Z" fill="black" stroke="black" stroke-width="0.0597848" stroke-linecap="round" stroke-linejoin="round"/>
<path d="M85.2112 42.8151L86.014 42.8821L86.6723 43.0713L87.1506 43.384L87.4856 43.8294L87.7077 44.3865L87.864 45.0672L87.9534 45.8582L87.9876 46.7714L87.9534 47.6859L87.864 48.4769L87.7077 49.1457L87.4856 49.6923L87.1506 50.1154L86.6723 50.4163L86.014 50.6068L85.2112 50.662H56.2438L55.441 50.6068L54.7945 50.4163L54.3044 50.1154L53.9694 49.6923L53.7473 49.1457L53.5909 48.4769L53.5016 47.6859L53.4688 46.7714L53.5016 45.8582L53.5909 45.0672L53.7473 44.3865L53.9694 43.8294L54.3044 43.384L54.7945 43.0713L55.441 42.8821L56.2438 42.8151H85.2112Z" fill="black" stroke="black" stroke-width="0.0597848" stroke-linecap="round" stroke-linejoin="round"/>
<path d="M56.3298 58.9163L55.5269 58.9833L54.87 59.1725L54.3904 59.4852L54.0566 59.9306L53.8332 60.4877L53.6769 61.1671L53.5875 61.9594L53.5547 62.8726L53.5875 63.7871L53.6769 64.5781L53.8332 65.2469L54.0566 65.7935L54.3904 66.2166L54.87 66.5175L55.5269 66.7067L56.3298 66.7632H85.2984L86.0999 66.7067L86.7464 66.5175L87.2378 66.2166L87.5716 65.7935L87.7949 65.2469L87.95 64.5781L88.0393 63.7871L88.0735 62.8726L88.0393 61.9594L87.95 61.1671L87.7949 60.4877L87.5716 59.9306L87.2378 59.4852L86.7464 59.1725L86.0999 58.9833L85.2984 58.9163H56.3298Z" fill="black" stroke="black" stroke-width="0.0597848" stroke-linecap="round" stroke-linejoin="round"/>
<path d="M56.3298 75.0173L55.5269 75.0843L54.87 75.2736L54.3904 75.585L54.0566 76.0317L53.8332 76.5888L53.6769 77.2681L53.5875 78.0604L53.5547 78.9736L53.5875 79.8882L53.6769 80.6792L53.8332 81.3479L54.0566 81.8946L54.3904 82.3176L54.87 82.6185L55.5269 82.8077L56.3298 82.8643H85.2984L86.0999 82.8077L86.7464 82.6185L87.2378 82.3176L87.5716 81.8946L87.7949 81.3479L87.95 80.6792L88.0393 79.8882L88.0735 78.9736L88.0393 78.0604L87.95 77.2681L87.7949 76.5888L87.5716 76.0317L87.2378 75.585L86.7464 75.2736L86.0999 75.0843L85.2984 75.0173H56.3298Z" fill="black" stroke="black" stroke-width="0.0597848" stroke-linecap="round" stroke-linejoin="round"/>
</g>
<defs>
<clipPath id="clip0_18001_745">
<rect width="142" height="142" fill="white"/>
</clipPath>
</defs>
</svg>
