<svg width="0" height="0" class="hidden">
  <symbol fill="none" xmlns="http://www.w3.org/2000/svg" viewBox="0 0 42 42" id="ic_3d_model">
    <path d="M32.8867 18.2764V10.5323C32.8867 9.93973 32.4656 9.43688 31.8925 9.32483L21.5487 3.35287C21.168 3.13303 20.6989 3.13303 20.3182 3.35287L9.72858 9.46682C9.34787 9.68659 9.11334 10.0928 9.11334 10.5324V18.2765C5.03319 19.5602 0 22.2097 0 26.4849C0 30.1535 3.88927 33.3405 10.443 35.0783L9.95408 37.3171C9.74441 38.277 10.6957 39.089 11.6132 38.722L17.7656 36.2611C18.5795 35.9357 18.8025 34.8835 18.1863 34.2563L13.5926 29.5806C12.9091 28.8851 11.7213 29.225 11.5127 30.1805L10.9687 32.6712C5.77582 31.272 2.46094 28.879 2.46094 26.4849C2.46094 24.4058 4.97815 22.3056 9.11334 20.8687V22.7603C9.11334 23.1999 9.34787 23.6061 9.72858 23.8259L20.3848 29.9782C20.7655 30.1981 21.2345 30.1981 21.6152 29.9782L32.2714 23.8259C32.6521 23.6061 32.8867 23.1999 32.8867 22.7603V20.8687C37.0219 22.3056 39.5391 24.4058 39.5391 26.4849C39.5391 31.0414 29.5314 33.3544 24.6168 33.7597C23.9395 33.8157 23.4358 34.4101 23.4917 35.0873C23.5471 35.7578 24.1344 36.2682 24.8193 36.2124C31.226 35.6827 42 32.9143 42 26.4849C42 22.2093 36.9654 19.5598 32.8867 18.2764ZM13.4316 32.9282L15.1356 34.6626L12.8534 35.5756L13.4316 32.9282ZM20.9335 5.83924L29.1287 10.5708C28.1282 11.1485 21.6677 14.8784 21 15.2639C20.2716 14.8433 13.8978 11.1635 12.8047 10.5323L20.9335 5.83924ZM11.5743 12.6637L19.7695 17.3951V26.7814L11.5743 22.0498V12.6637ZM30.4257 22.0498L22.2305 26.7814V17.3951L30.4257 12.6637V22.0498Z" fill="currentColor"></path>
  </symbol>
  <symbol fill="none" xmlns="http://www.w3.org/2000/svg" viewBox="0 0 32 32" id="ic_arr_hor">
    <path d="M9.99994 16C9.99994 16.2558 10.0977 16.5117 10.2929 16.707L20.2929 26.707C20.6837 27.0977 21.3164 27.0977 21.7069 26.707C22.0974 26.3162 22.0977 25.6835 21.7069 25.293L12.4139 16L21.7069 6.707C22.0977 6.31625 22.0977 5.6835 21.7069 5.293C21.3162 4.9025 20.6834 4.90225 20.2929 5.293L10.2929 15.293C10.0977 15.4883 9.99994 15.7443 9.99994 16Z" fill="currentColor"></path>
  </symbol>
  <symbol fill="none" xmlns="http://www.w3.org/2000/svg" viewBox="0 0 32 32" id="ic_arr_ver">
    <path d="M15.9999 10C16.2557 10 16.5117 10.0977 16.7069 10.293L26.7069 20.293C27.0977 20.6837 27.0977 21.3165 26.7069 21.707C26.3162 22.0975 25.6834 22.0977 25.2929 21.707L15.9999 12.414L6.70694 21.707C6.31619 22.0978 5.68344 22.0978 5.29294 21.707C4.90244 21.3163 4.90219 20.6835 5.29294 20.293L15.2929 10.293C15.4882 10.0977 15.7442 10 15.9999 10Z" fill="currentColor"></path>
  </symbol>
  <symbol fill="none" xmlns="http://www.w3.org/2000/svg" viewBox="0 0 10 10" id="ic_arr_ver2">
    <path d="M4.50495 7.64507L0.205241 3.34522C-0.0684138 3.0717 -0.0684138 2.62823 0.205241 2.35484C0.478652 2.08143 0.922098 2.08143 1.19549 2.35484L5.00007 6.15954L8.80452 2.35495C9.07805 2.08154 9.52145 2.08154 9.79486 2.35495C10.0684 2.62836 10.0684 3.07181 9.79486 3.34533L5.49508 7.64518C5.35831 7.78189 5.17925 7.85016 5.00009 7.85016C4.82085 7.85016 4.64165 7.78176 4.50495 7.64507Z" fill="currentColor"></path>
  </symbol>
  <symbol fill="none" xmlns="http://www.w3.org/2000/svg" viewBox="0 0 12 12" id="ic_check">
    <path d="M4.31725 10.3173C4.07378 10.3173 3.83005 10.2244 3.64431 10.0385L0.278815 6.67302C-0.0929383 6.30127 -0.0929383 5.69864 0.278815 5.32689C0.650568 4.95513 1.2532 4.95513 1.62495 5.32689L4.31725 8.01919L10.375 1.9615C10.7468 1.58986 11.3496 1.58975 11.7211 1.9615C12.0929 2.33326 12.0929 2.93603 11.7211 3.30764L4.99033 10.0385C4.80446 10.2243 4.56084 10.3173 4.31725 10.3173Z" fill="currentColor"></path>
  </symbol>
  <symbol fill="none" xmlns="http://www.w3.org/2000/svg" viewBox="0 0 17 17" id="ic_close">
    <path d="M6.94254 8.51387L0.323076 1.89421C-0.107706 1.46363 -0.107706 0.767434 0.323076 0.336852C0.753658 -0.0937294 1.44985 -0.0937294 1.88043 0.336852L8.5001 6.95652L15.1196 0.336852C15.5503 -0.0937294 16.2463 -0.0937294 16.6769 0.336852C17.1077 0.767434 17.1077 1.46363 16.6769 1.89421L10.0574 8.51387L16.6769 15.1335C17.1077 15.5641 17.1077 16.2603 16.6769 16.6909C16.4623 16.9057 16.1802 17.0136 15.8982 17.0136C15.6163 17.0136 15.3343 16.9057 15.1196 16.6909L8.5001 10.0712L1.88043 16.6909C1.66564 16.9057 1.3837 17.0136 1.10175 17.0136C0.819809 17.0136 0.537863 16.9057 0.323076 16.6909C-0.107706 16.2603 -0.107706 15.5641 0.323076 15.1335L6.94254 8.51387Z" fill="currentColor"></path>
  </symbol>
  <symbol fill="none" xmlns="http://www.w3.org/2000/svg" viewBox="0 0 32 32" id="ic_email">
    <path d="M25.3333 1.33331H6.66667C4.89921 1.33543 3.20474 2.03849 1.95496 3.28827C0.705176 4.53806 0.00211714 6.23252 0 7.99998L0 24C0.00211714 25.7674 0.705176 27.4619 1.95496 28.7117C3.20474 29.9615 4.89921 30.6645 6.66667 30.6666H25.3333C27.1008 30.6645 28.7953 29.9615 30.045 28.7117C31.2948 27.4619 31.9979 25.7674 32 24V7.99998C31.9979 6.23252 31.2948 4.53806 30.045 3.28827C28.7953 2.03849 27.1008 1.33543 25.3333 1.33331ZM6.66667 3.99998H25.3333C26.1317 4.00155 26.9114 4.242 27.5719 4.69038C28.2325 5.13877 28.7438 5.77458 29.04 6.51598L18.8293 16.728C18.0779 17.4764 17.0606 17.8966 16 17.8966C14.9394 17.8966 13.9221 17.4764 13.1707 16.728L2.96 6.51598C3.2562 5.77458 3.76748 5.13877 4.42806 4.69038C5.08864 4.242 5.86829 4.00155 6.66667 3.99998ZM25.3333 28H6.66667C5.6058 28 4.58839 27.5786 3.83824 26.8284C3.08809 26.0783 2.66667 25.0608 2.66667 24V9.99998L11.2853 18.6133C12.5368 19.8617 14.2323 20.5627 16 20.5627C17.7677 20.5627 19.4632 19.8617 20.7147 18.6133L29.3333 9.99998V24C29.3333 25.0608 28.9119 26.0783 28.1618 26.8284C27.4116 27.5786 26.3942 28 25.3333 28Z" fill="currentColor"></path>
  </symbol>
  <symbol fill="none" xmlns="http://www.w3.org/2000/svg" viewBox="0 0 16 16" id="ic_location">
    <path d="M7.9987 4C7.47128 4 6.95571 4.1564 6.51718 4.44941C6.07865 4.74243 5.73685 5.15891 5.53502 5.64618C5.33319 6.13345 5.28038 6.66962 5.38327 7.18691C5.48617 7.70419 5.74014 8.17935 6.11308 8.55229C6.48602 8.92523 6.96118 9.1792 7.47846 9.28209C7.99574 9.38499 8.53192 9.33218 9.01919 9.13035C9.50646 8.92851 9.92293 8.58672 10.216 8.14819C10.509 7.70966 10.6654 7.19408 10.6654 6.66667C10.6654 5.95942 10.3844 5.28115 9.88432 4.78105C9.38422 4.28095 8.70594 4 7.9987 4ZM7.9987 8C7.73499 8 7.4772 7.9218 7.25794 7.77529C7.03867 7.62878 6.86778 7.42055 6.76686 7.17691C6.66594 6.93328 6.63954 6.66519 6.69099 6.40655C6.74243 6.14791 6.86942 5.91033 7.05589 5.72386C7.24236 5.53739 7.47994 5.4104 7.73858 5.35895C7.99722 5.30751 8.26531 5.33391 8.50894 5.43483C8.75258 5.53574 8.96082 5.70664 9.10733 5.92591C9.25383 6.14517 9.33203 6.40296 9.33203 6.66667C9.33203 7.02029 9.19156 7.35943 8.94151 7.60948C8.69146 7.85952 8.35232 8 7.9987 8Z" fill="currentColor"></path>
    <path d="M8.00021 16C7.43884 16.0029 6.88495 15.8712 6.38492 15.616C5.88489 15.3608 5.45327 14.9896 5.12621 14.5333C2.58554 11.0287 1.29688 8.39399 1.29688 6.70199C1.29688 4.92416 2.00312 3.21914 3.26024 1.96202C4.51735 0.704899 6.22237 -0.00134277 8.00021 -0.00134277C9.77804 -0.00134277 11.4831 0.704899 12.7402 1.96202C13.9973 3.21914 14.7035 4.92416 14.7035 6.70199C14.7035 8.39399 13.4149 11.0287 10.8742 14.5333C10.5471 14.9896 10.1155 15.3608 9.6155 15.616C9.11547 15.8712 8.56158 16.0029 8.00021 16ZM8.00021 1.45399C6.60849 1.45558 5.27422 2.00914 4.29012 2.99324C3.30603 3.97734 2.75246 5.3116 2.75087 6.70332C2.75087 8.04333 4.01287 10.5213 6.30354 13.6807C6.498 13.9485 6.75312 14.1665 7.04802 14.3168C7.34291 14.4672 7.66921 14.5455 8.00021 14.5455C8.33121 14.5455 8.6575 14.4672 8.9524 14.3168C9.2473 14.1665 9.50241 13.9485 9.69688 13.6807C11.9875 10.5213 13.2495 8.04333 13.2495 6.70332C13.248 5.3116 12.6944 3.97734 11.7103 2.99324C10.7262 2.00914 9.39193 1.45558 8.00021 1.45399Z" fill="currentColor"></path>
  </symbol>
  <symbol fill="none" xmlns="http://www.w3.org/2000/svg" viewBox="0 0 16 16" id="ic_phone">
    <path d="M8.66796 0.666633C8.66796 0.489822 8.7382 0.320252 8.86322 0.195228C8.98825 0.0702039 9.15781 -3.39877e-05 9.33463 -3.39877e-05C11.1021 0.00190708 12.7967 0.704909 14.0465 1.95473C15.2963 3.20455 15.9994 4.89912 16.0013 6.66663C16.0013 6.84344 15.9311 7.01301 15.806 7.13804C15.681 7.26306 15.5114 7.3333 15.3346 7.3333C15.1578 7.3333 14.9882 7.26306 14.8632 7.13804C14.7382 7.01301 14.668 6.84344 14.668 6.66663C14.6664 5.25263 14.104 3.897 13.1041 2.89715C12.1043 1.8973 10.7486 1.33489 9.33463 1.3333C9.15781 1.3333 8.98825 1.26306 8.86322 1.13804C8.7382 1.01301 8.66796 0.843444 8.66796 0.666633ZM9.33463 3.99997C10.0419 3.99997 10.7201 4.28092 11.2202 4.78101C11.7203 5.28111 12.0013 5.95939 12.0013 6.66663C12.0013 6.84344 12.0715 7.01301 12.1966 7.13804C12.3216 7.26306 12.4911 7.3333 12.668 7.3333C12.8448 7.3333 13.0143 7.26306 13.1394 7.13804C13.2644 7.01301 13.3346 6.84344 13.3346 6.66663C13.3336 5.60609 12.9118 4.58929 12.1619 3.83938C11.412 3.08946 10.3952 2.66769 9.33463 2.66663C9.15781 2.66663 8.98825 2.73687 8.86322 2.8619C8.7382 2.98692 8.66796 3.15649 8.66796 3.3333C8.66796 3.51011 8.7382 3.67968 8.86322 3.8047C8.98825 3.92973 9.15781 3.99997 9.33463 3.99997ZM15.3966 11.1593C15.783 11.5467 15.9999 12.0715 15.9999 12.6186C15.9999 13.1658 15.783 13.6906 15.3966 14.078L14.79 14.7773C9.32996 20.0046 -3.95671 6.7213 1.18996 1.24397L1.95663 0.577299C2.34447 0.201751 2.86458 -0.00600127 3.40443 -0.00101076C3.94428 0.00397975 4.46046 0.221312 4.84129 0.603966C4.86196 0.624633 6.09729 2.2293 6.09729 2.2293C6.46385 2.61438 6.6679 3.12592 6.66703 3.65757C6.66616 4.18922 6.46044 4.70008 6.09263 5.08397L5.32063 6.05463C5.74786 7.09271 6.376 8.03613 7.16897 8.8307C7.96193 9.62526 8.90408 10.2553 9.94129 10.6846L10.918 9.90797C11.3019 9.54044 11.8127 9.33496 12.3442 9.33422C12.8756 9.33347 13.387 9.53752 13.772 9.90397C13.772 9.90397 15.376 11.1386 15.3966 11.1593ZM14.4793 12.1286C14.4793 12.1286 12.884 10.9013 12.8633 10.8806C12.7259 10.7445 12.5404 10.668 12.347 10.668C12.1535 10.668 11.968 10.7445 11.8306 10.8806C11.8126 10.8993 10.468 11.9706 10.468 11.9706C10.3773 12.0428 10.2695 12.09 10.1551 12.1078C10.0406 12.1256 9.92351 12.1132 9.81529 12.072C8.4716 11.5717 7.25112 10.7885 6.23652 9.77535C5.22191 8.76225 4.43689 7.54292 3.93463 6.19997C3.89009 6.09027 3.87557 5.97069 3.89256 5.85353C3.90955 5.73636 3.95744 5.62583 4.03129 5.5333C4.03129 5.5333 5.10263 4.18797 5.12063 4.17063C5.2568 4.03329 5.33321 3.84771 5.33321 3.6543C5.33321 3.46089 5.2568 3.27531 5.12063 3.13797C5.09996 3.11797 3.87263 1.5213 3.87263 1.5213C3.73323 1.3963 3.5513 1.32936 3.36412 1.3342C3.17695 1.33903 2.99872 1.41527 2.86596 1.5473L2.09929 2.21397C-1.66204 6.73663 9.85196 17.612 13.8153 13.8666L14.4226 13.1666C14.5649 13.0348 14.6504 12.8528 14.661 12.6591C14.6716 12.4654 14.6064 12.2752 14.4793 12.1286Z" fill="currentColor"></path>
  </symbol>
  <symbol fill="none" xmlns="http://www.w3.org/2000/svg" viewBox="0 0 16 16" id="ic_search">
    <path d="M15.6444 13.904L12.3463 10.606C13.1411 9.45866 13.5387 8.17959 13.5387 6.76948C13.5387 5.85283 13.3607 4.97615 13.0048 4.13965C12.6491 3.30302 12.1683 2.5819 11.5626 1.97613C10.9568 1.37036 10.2358 0.889531 9.3993 0.533821C8.56256 0.178011 7.68595 0.00012207 6.76929 0.00012207C5.85271 0.00012207 4.97603 0.178011 4.13953 0.533821C3.30289 0.889531 2.58177 1.37036 1.976 1.97613C1.37017 2.5819 0.889409 3.30315 0.533666 4.13965C0.177889 4.97625 0 5.85283 0 6.76948C0 7.68607 0.177889 8.56245 0.533666 9.39918C0.889375 10.2357 1.37017 10.9567 1.976 11.5625C2.58177 12.1684 3.30303 12.6491 4.13953 13.005C4.97613 13.3607 5.85271 13.5386 6.76929 13.5386C8.17971 13.5386 9.45857 13.1409 10.606 12.3462L13.9041 15.6346C14.1348 15.8781 14.4229 16 14.7694 16C15.1027 16 15.3913 15.8781 15.6347 15.6346C15.8782 15.3911 16 15.1026 16 14.7693C16.0001 14.4297 15.8816 14.1411 15.6444 13.904ZM9.8126 9.81245C8.96966 10.6555 7.95531 11.077 6.76929 11.077C5.58348 11.077 4.56913 10.6554 3.72613 9.81245C2.88313 8.96952 2.46164 7.9553 2.46164 6.76928C2.46164 5.58347 2.88323 4.56895 3.72613 3.72612C4.56896 2.88308 5.58348 2.46163 6.76929 2.46163C7.95517 2.46163 8.96953 2.88325 9.8126 3.72612C10.6557 4.56895 11.0771 5.58347 11.0771 6.76928C11.0771 7.9553 10.6555 8.96952 9.8126 9.81245Z" fill="currentColor"></path>
  </symbol>
  <symbol fill="none" xmlns="http://www.w3.org/2000/svg" viewBox="0 0 24 20" id="ic_tg">
    <path d="M1.60995 8.545L21.8575 0.738247C22.7972 0.398747 23.618 0.967497 23.3135 2.3885L23.3152 2.38675L19.8677 18.6285C19.6122 19.78 18.928 20.06 17.9707 19.5175L12.7207 15.6482L10.1885 18.0877C9.90845 18.3677 9.6722 18.604 9.1297 18.604L9.50245 13.2612L19.2325 4.471C19.656 4.09825 19.138 3.88825 18.5797 4.25925L6.55545 11.8297L1.37195 10.2127C0.246703 9.85575 0.222204 9.0875 1.60995 8.545Z" fill="currentColor"></path>
  </symbol>
  <symbol fill="none" xmlns="http://www.w3.org/2000/svg" viewBox="0 0 32 32" id="ic_time">
    <path d="M16 32C7.17733 32 0 24.8227 0 16C0 7.17733 7.17733 0 16 0C24.8227 0 32 7.17733 32 16C32 24.8227 24.8227 32 16 32ZM16 2.66667C8.648 2.66667 2.66667 8.648 2.66667 16C2.66667 23.352 8.648 29.3333 16 29.3333C23.352 29.3333 29.3333 23.352 29.3333 16C29.3333 8.648 23.352 2.66667 16 2.66667ZM22.6667 16C22.6667 15.2627 22.0707 14.6667 21.3333 14.6667H17.3333V8C17.3333 7.26267 16.736 6.66667 16 6.66667C15.264 6.66667 14.6667 7.26267 14.6667 8V16C14.6667 16.7373 15.264 17.3333 16 17.3333H21.3333C22.0707 17.3333 22.6667 16.7373 22.6667 16Z" fill="currentColor"></path>
  </symbol>
  <symbol fill="none" xmlns="http://www.w3.org/2000/svg" viewBox="0 0 20 24" id="ic_viber">
    <path d="M12.2087 0.947357H7.78762C5.73569 0.947357 3.76779 1.76249 2.31685 3.21343C0.865912 4.66437 0.0507819 6.63226 0.0507819 8.6842V12C0.0501659 13.4646 0.465303 14.8994 1.24793 16.1374C2.03055 17.3754 3.14852 18.3658 4.47183 18.9935V22.6879C4.47315 22.76 4.49548 22.8301 4.53608 22.8896C4.57667 22.9492 4.63378 22.9956 4.70038 23.0232C4.76698 23.0508 4.84018 23.0583 4.911 23.0449C4.98182 23.0315 5.04719 22.9977 5.09907 22.9476L8.30986 19.7368H12.2087C14.2606 19.7368 16.2285 18.9217 17.6795 17.4708C19.1304 16.0198 19.9455 14.0519 19.9455 12V8.6842C19.9455 6.63226 19.1304 4.66437 17.6795 3.21343C16.2285 1.76249 14.2606 0.947357 12.2087 0.947357ZM15.1045 15.4484L13.9992 16.5537C12.8221 17.7059 9.74947 16.3906 7.04157 13.6247C4.33368 10.8588 3.14552 7.75578 4.27841 6.60354L5.38368 5.49828C5.6003 5.30383 5.88194 5.19766 6.17302 5.20073C6.4641 5.2038 6.74344 5.31588 6.95591 5.51486L8.5696 7.17275C8.69776 7.305 8.79018 7.46768 8.83817 7.64548C8.88615 7.82328 8.88814 8.01036 8.84393 8.18914C8.79972 8.36791 8.71076 8.53251 8.58544 8.66745C8.46011 8.80239 8.30252 8.90324 8.12749 8.96052C7.86806 9.04012 7.64924 9.21658 7.51649 9.45327C7.38374 9.68996 7.34725 9.96868 7.4146 10.2316C7.69091 11.4584 9.24934 12.9947 10.4099 13.2959C10.6715 13.3583 10.9469 13.3231 11.1844 13.1969C11.422 13.0708 11.6054 12.8623 11.7003 12.6106C11.7616 12.4351 11.867 12.2783 12.0064 12.1554C12.1459 12.0324 12.3146 11.9474 12.4965 11.9085C12.6783 11.8696 12.867 11.8782 13.0446 11.9335C13.2221 11.9887 13.3824 12.0887 13.5101 12.2238L15.121 13.8817C15.3145 14.0977 15.4201 14.3783 15.4171 14.6683C15.414 14.9582 15.3025 15.2366 15.1045 15.4484ZM11.0039 6.19736C10.894 6.19683 10.7842 6.20329 10.6751 6.2167C10.627 6.22196 10.5784 6.2177 10.532 6.20416C10.4855 6.19062 10.4422 6.16807 10.4045 6.1378C10.3668 6.10752 10.3354 6.07011 10.3121 6.0277C10.2889 5.9853 10.2742 5.93873 10.2689 5.89065C10.2637 5.84257 10.2679 5.79392 10.2815 5.74749C10.295 5.70106 10.3176 5.65774 10.3478 5.62003C10.3781 5.58231 10.4155 5.55092 10.4579 5.52766C10.5003 5.5044 10.5469 5.48972 10.595 5.48446C10.7307 5.46883 10.8673 5.46145 11.0039 5.46236C11.9818 5.46162 12.9199 5.84918 13.6122 6.53986C14.3044 7.23053 14.6941 8.16779 14.6955 9.14565C14.6964 9.28228 14.689 9.41885 14.6734 9.55459C14.6682 9.60267 14.6535 9.64925 14.6302 9.69165C14.607 9.73406 14.5756 9.77147 14.5378 9.80174C14.5001 9.83202 14.4568 9.85457 14.4104 9.86811C14.364 9.88165 14.3153 9.88591 14.2672 9.88065C14.2192 9.87539 14.1726 9.86071 14.1302 9.83745C14.0878 9.81419 14.0504 9.7828 14.0201 9.74508C13.9898 9.70736 13.9673 9.66405 13.9537 9.61762C13.9402 9.57119 13.9359 9.52254 13.9412 9.47446C13.9532 9.36526 13.9597 9.25551 13.9605 9.14565C13.9591 8.36272 13.6468 7.61241 13.0924 7.05958C12.5381 6.50675 11.7869 6.19662 11.0039 6.19736ZM13.2145 9.14565C13.2065 9.23797 13.1641 9.32394 13.0958 9.38657C13.0276 9.44921 12.9383 9.48395 12.8456 9.48395C12.7529 9.48395 12.6636 9.44921 12.5953 9.38657C12.527 9.32394 12.4847 9.23797 12.4767 9.14565C12.4767 8.75504 12.3215 8.38044 12.0453 8.10425C11.7691 7.82805 11.3945 7.67288 11.0039 7.67288C10.9528 7.67731 10.9013 7.67106 10.8527 7.65454C10.8042 7.63801 10.7595 7.61157 10.7217 7.57688C10.6839 7.5422 10.6537 7.50003 10.633 7.45305C10.6124 7.40608 10.6017 7.35532 10.6017 7.304C10.6017 7.25268 10.6124 7.20193 10.633 7.15495C10.6537 7.10798 10.6839 7.06581 10.7217 7.03112C10.7595 6.99644 10.8042 6.96999 10.8527 6.95346C10.9013 6.93694 10.9528 6.93069 11.0039 6.93512C11.5902 6.93512 12.1525 7.16801 12.567 7.58257C12.9816 7.99712 13.2145 8.55938 13.2145 9.14565ZM16.0246 10.3421C16.0164 10.3923 15.998 10.4403 15.9704 10.4831C15.9429 10.5259 15.9068 10.5626 15.8644 10.5908C15.8221 10.619 15.7744 10.6382 15.7243 10.6471C15.6742 10.6561 15.6228 10.6546 15.5733 10.6428C15.5238 10.631 15.4772 10.6091 15.4365 10.5785C15.3959 10.5479 15.3619 10.5093 15.3369 10.465C15.3118 10.4207 15.2962 10.3717 15.2909 10.3211C15.2856 10.2705 15.2908 10.2193 15.3062 10.1708C15.386 9.8368 15.4259 9.49454 15.425 9.15117C15.425 7.97864 14.9592 6.85413 14.1301 6.02502C13.301 5.19591 12.1765 4.73012 11.0039 4.73012C10.8907 4.73012 10.7746 4.73012 10.6613 4.73012C10.613 4.73375 10.5645 4.72784 10.5186 4.71272C10.4726 4.6976 10.43 4.67358 10.3934 4.64202C10.3193 4.57828 10.2735 4.48772 10.2662 4.39025C10.2589 4.29278 10.2905 4.1964 10.3543 4.1223C10.418 4.0482 10.5086 4.00245 10.606 3.99512C10.7387 3.98407 10.8713 3.97854 11.0039 3.97854C12.3729 3.98074 13.6851 4.5261 14.6523 5.49488C15.6195 6.46366 16.1628 7.77668 16.1628 9.14565C16.1629 9.54845 16.1165 9.94992 16.0246 10.3421Z" fill="currentColor"></path>
  </symbol>
  <symbol fill="none" xmlns="http://www.w3.org/2000/svg" viewBox="0 0 18 21" id="ic_video_play">
    <path d="M18 10.5L0.749999 20.4593L0.75 0.540707L18 10.5Z" fill="currentColor"></path>
  </symbol>
  <symbol fill="none" xmlns="http://www.w3.org/2000/svg" viewBox="0 0 22 22" id="ic_whatsapp">
    <path d="M18.4065 3.59197C16.6591 1.82473 14.3373 0.740468 11.8605 0.534958C9.38373 0.329449 6.91507 1.01623 4.90024 2.47131C2.88541 3.92639 1.4572 6.05388 0.873459 8.46966C0.28972 10.8855 0.588921 13.4303 1.71704 15.6449L0.611779 21.0109C0.599944 21.0645 0.599486 21.12 0.610433 21.1738C0.62138 21.2276 0.643489 21.2785 0.675331 21.3232C0.720933 21.3908 0.786117 21.443 0.862162 21.4726C0.938207 21.5022 1.02149 21.5079 1.10086 21.4889L6.35086 20.2428C8.55931 21.3413 11.0859 21.6206 13.481 21.0308C15.876 20.4411 17.9841 19.0206 19.43 17.0222C20.8759 15.0238 21.5658 12.5772 21.3768 10.1179C21.1879 7.65855 20.1324 5.34604 18.3982 3.59197H18.4065ZM16.7652 16.6811C15.5567 17.8875 14.0004 18.6847 12.3152 18.9608C10.6301 19.2369 8.90077 18.9778 7.37046 18.2201L6.63546 17.8554L3.41086 18.618V18.5766L4.0906 15.3243L3.73138 14.617C2.94892 13.0825 2.67264 11.3396 2.9422 9.63839C3.21175 7.93716 4.01328 6.36505 5.23178 5.14763C6.76176 3.61925 8.8359 2.76074 10.9985 2.76074C13.1611 2.76074 15.2352 3.61925 16.7652 5.14763L16.8011 5.19737C18.3112 6.73061 19.1542 8.7985 19.1464 10.9505C19.1387 13.1025 18.2808 15.1643 16.7597 16.6866L16.7652 16.6811Z" fill="currentColor"></path>
    <path d="M16.4822 14.3158C16.0871 14.9375 15.4599 15.6974 14.6779 15.888C13.2963 16.2196 11.1935 15.888 8.56025 13.4537L8.5271 13.4233C6.23644 11.2846 5.62854 9.50238 5.76394 8.09041C5.84407 7.28633 6.51275 6.56238 7.07644 6.08712C7.16606 6.01155 7.27211 5.958 7.38613 5.93073C7.50014 5.90347 7.61895 5.90326 7.73306 5.9301C7.84717 5.95695 7.95342 6.01012 8.04331 6.08537C8.13321 6.16061 8.20426 6.25583 8.25078 6.36344L9.09907 8.28107C9.15445 8.40451 9.17522 8.54068 9.15915 8.67502C9.14309 8.80936 9.0908 8.93679 9.00788 9.0437L8.57683 9.59633C8.48724 9.71104 8.43387 9.84986 8.42353 9.99505C8.41319 10.1402 8.44636 10.2852 8.5188 10.4115C8.92826 11.0149 9.41817 11.5597 9.97499 12.0307C10.5741 12.6072 11.2535 13.094 11.9921 13.4758C12.1269 13.5301 12.2748 13.5431 12.417 13.5131C12.5592 13.4831 12.6893 13.4114 12.7906 13.3073L13.2853 12.8044C13.3794 12.7032 13.4997 12.63 13.6328 12.5929C13.7659 12.5558 13.9067 12.5563 14.0396 12.5944L16.0567 13.1719C16.171 13.2044 16.276 13.2634 16.3633 13.344C16.4506 13.4247 16.5177 13.5247 16.5591 13.6361C16.6005 13.7475 16.6151 13.867 16.6018 13.9851C16.5884 14.1032 16.5475 14.2165 16.4822 14.3158Z" fill="currentColor"></path>
  </symbol>
</svg>